<mxfile host="app.diagrams.net" modified="2023-12-05T18:38:30.178Z" agent="Mozilla/5.0 (Windows NT 10.0; Win64; x64) AppleWebKit/537.36 (KHTML, like Gecko) Chrome/119.0.0.0 Safari/537.36 Edg/119.0.0.0" etag="7uyoJs18aLpRXqbgxijc" version="22.1.5" type="github">
  <diagram name="Page-1" id="NP4gEvPnvQWe29YxIECZ">
    <mxGraphModel dx="746" dy="467" grid="1" gridSize="10" guides="1" tooltips="1" connect="1" arrows="1" fold="1" page="1" pageScale="1" pageWidth="850" pageHeight="1100" math="0" shadow="0">
      <root>
        <mxCell id="0" />
        <mxCell id="1" parent="0" />
        <mxCell id="HS_xxe3dGCpR05CBSFz7-1" value="" style="rounded=0;whiteSpace=wrap;html=1;strokeColor=none;" vertex="1" parent="1">
          <mxGeometry x="40" y="40" width="720" height="440" as="geometry" />
        </mxCell>
        <mxCell id="HS_xxe3dGCpR05CBSFz7-2" value="" style="shape=image;verticalLabelPosition=bottom;labelBackgroundColor=default;verticalAlign=top;aspect=fixed;imageAspect=0;image=data:image/jpeg,/9j/4AAQSkZJRgABAQEASABIAAD/4gIYSUNDX1BST0ZJTEUAAQEAAAIIAAAAAAQwAABtbnRyUkdCIFhZWiAH4AABAAEAAAAAAABhY3NwAAAAAAAAAAAAAAAAAAAAAAAAAAAAAAAAAAAAAQAA9tYAAQAAAADTLQAAAAAAAAAAAAAAAAAAAAAAAAAAAAAAAAAAAAAAAAAAAAAAAAAAAAAAAAAAAAAAAAAAAAlkZXNjAAAA8AAAAGRyWFlaAAABVAAAABRnWFlaAAABaAAAABRiWFlaAAABfAAAABR3dHB0AAABkAAAABRyVFJDAAABpAAAAChnVFJDAAABpAAAAChiVFJDAAABpAAAAChjcHJ0AAABzAAAADxtbHVjAAAAAAAAAAEAAAAMZW5VUwAAAEYAAAAcAEQAaQBzAHAAbABhAHkAIABQADMAIABHAGEAbQB1AHQAIAB3AGkAdABoACAAcwBSAEcAQgAgAFQAcgBhAG4AcwBmAGUAcgAAWFlaIAAAAAAAAIPdAAA9vv///7tYWVogAAAAAAAASr8AALE3AAAKuVhZWiAAAAAAAAAoOwAAEQsAAMjLWFlaIAAAAAAAAPbWAAEAAAAA0y1wYXJhAAAAAAAEAAAAAmZmAADypwAADVkAABPQAAAKWwAAAAAAAAAAbWx1YwAAAAAAAAABAAAADGVuVVMAAAAgAAAAHABHAG8AbwBnAGwAZQAgAEkAbgBjAC4AIAAyADAAMQA2/9sAQwAEAwMEAwMEBAMEBQQEBQYKBwYGBgYNCQoICg8NEBAPDQ8OERMYFBESFxIODxUcFRcZGRsbGxAUHR8dGh8YGhsa/9sAQwEEBQUGBQYMBwcMGhEPERoaGhoaGhoaGhoaGhoaGhoaGhoaGhoaGhoaGhoaGhoaGhoaGhoaGhoaGhoaGhoaGhoa/8IAEQgFAAJAAwEiAAIRAQMRAf/EABwAAQACAwEBAQAAAAAAAAAAAAAGBwMEBQgCAf/EABoBAQADAQEBAAAAAAAAAAAAAAABAwQFAgb/2gAMAwEAAhADEAAAAaSAAAAAAAAAAAAAAAAAAAAAAAAAAAAAAAAAAAAAJMRlJ9c4Dr7xGgAAAAAAAAAAAAAAAAAAAAAAHa9Lnk56r8zHNZJ8V62LeKZd/qkLS7KQxII+AAAJvCBOI7yRcehVYAAAAAAAAAAAAAAAAAAAAAAA+vUHl3bPRPnD67BZUJ6kfOTenn+0iOTKruYWny6+FzUzkxgAAAAAAAAAAAAAAAAAAAAAAAAAAAAAAAAAAAAAAAAAAAAAAAAAAAAAAAAAAAAAAAAAAAAAAAAAAAAAAAA2DXbeoAAD9PwB9ZDC/R+AAAAAAAAAAAAAAAGQxu3xAAAAAAASw7VeXNGiu3U5YAB2ppy4wSSEWHMyl9Gfy8p/Rn0tKhsDUsAoL6uHkkUlcUmJuQbrSFFU4L5i6auxWVWoAAAAAAAAAAAAAsit7GODubf6V+ABvaO8SmETeEAAAE7hGMAAAZLErcWTHIyLH5MOFj8+Eb5YXT4ECJhjhY7PxyR05nXItHRryRH7HAAAAAAAAAAAAAAAzzCEDb1AAb2iJvCAAAAAAAAAAAAAAAAAAAAAAAAAAAAAAAAAAAAAAAAAAAAAAAAAAAAAAAAAAAAAAAAAAAAAAAAAAAAAMv2a7YGu2Brtga7NhAAAAAAAAAAAAAAAAAAAAAAAAAAAAAAHQ0+pMBJOOJs8/TMaqlkoxaa407mhl1UJ19h18XHZMfmQEzhlrFUrk+SG/nXFc2BX9pkfhlrbxTffsPrlDLNkZR62uMV8u/kFTrb1DgcSeRMmcDtOtSMr05BUUy7e2VOsr9K0lUVtshcYtvlFcrW0itlrfJVa8o6VesiQFQS/UkxVgAAAAAMvU5dpUWfsqkuz8j2op8y49xD473zTp4PLl/5ZNIc+56Z+p4HLxZcW7GAtaqRauOrvss/9+auFrVTJSY/lVC0dmpf0t7p0dmLaqPELV+asF+aNLYi0onGRdfIqsXpvUFiOnYVVC3Yn0q8N246PF5cqohZuzV+Es3t07iLsiMFxl/Rmq/wt7SrTpHDAAAAABlvih/RnM1Sj6zcH57p9L85vxTf8/H3zqdO3+RzJro7lJWTF+nkr3FlxfRcQASX1EaSrLMRBK8RGUn04cQefQAAAAAAAAAAAAAAAAAAAAAAGX0b5y9G4L5hs63B4HR7XB/fnDv8AmJyzFFkgy1n+dPnSmK/MCm2KYsuL6ngALLrR682XzIO9xYmzWSYncY5bx6Dx6AAAAAAAAAAAAAAAAAAAAAAAy3vQ1j83Td2fj5vmetsZNH6sZ+L0edTp/Pj7x0avmkrQqH6TiczFkx93kAAAAAAAAAAAAAAAAAAAAAAAAAAAAAN3SFhyqlPrBpuv8pVTbdH5TCZublVc9ee3zdT56WIAAAAAAAAAAAAAAAAAAAAAAAAAAAAAAAAAAAAAAAAAAAAAAAAAAAAAAAAAAAAAAAAAAbktNbUmvq8/vQr1Hnp6FHnp6FHnp6FHnp6FHnp6FHnp6FHnp6FHnp6FHnp6FHnp6FHnp6FHnp6FHnp6FHnp6FHnp6FHnp6FHnp6FHnp6FHnp6FHnp6FHnp6FHnp6FHnp6FHnp6FHnp6FHnp6FHnp6FHnp6AjPmalbmnRaEAAAN30XCLQ6OUNdIAAAAAAAAAAAA/D9AAa2yAAAAAAAAAAAAAcbzp6kq/JdTw52oAAD0TKIZM+xhCzyAAAAAAAAAAAAgs6jsx+YexzjU+OngOBYcekIESAAAAAAAAAAAAi8ohlfqgRx9wAAE4vnydaWyi32LL0MwAAAAAAAAAAAAAAAAAAAAAAAAAAAAxGWhu1VvP0hjvAAAA3O9FXqJYiaYliJiWImJYiYliJiWImJYiYliJiWImJYiYliJiWImJYiYliJiWImJYiYliJiWImJYiYliJiWImJYiYliJiWImJYiYliJiWImJYiYlXB00SHmQAAAAAAAAAAAAAAAAAAAAAAAAAAAAAAAAAAAAAAAAAAAAAAAAAAAAAAAAAAAAAAAAAAAAAAAAAAABvGinuuQpLo+aLubBG0g/SPJdrEadbIcVPomc1YHNIikXGNZ39oiyR8Q11hc8hqa8wjqS4yPJJgOElWicNI+Yc9N+KcJJNM46cxw5KUc45DsSYgKyYQc1IMJxUv4ZzG/nOSke6Q9KNgh6R8ExAAAAAAAk25DRYEe4AmnYrMSfsQAWJqwUdzfignUJxib/MKE9jnFFjfVc/RNo5zsJOMEP/AAm3PjP6S76hwtPlQHcOzvQwWNG46LE40UEsjOETjJAxKdXgCS9WCjvbMYFlcOIiwORFhLupXuUnHzBvkn/3XosmAaoAAAAAASCP9k6utm6xCZ1XU9OJs6kiIL2deYHB0pZoESkPO7pwtv6yGl8SvXOHgm0YOVtam2dfi/O+ae9k2CM7P10jR6Ml4Zz/AK19w5uPv/JFOltd8iPfYzlbki5BxO62yvsPR5wAAAAAAAAAAAAAAAAAABmYQAABsa4AAAOtyR9fIAbGzzgzYQAAAAAAAAAAAAAAAAAAAAAAAAAAAAAAAAAAAAAAAAAAAAAAAAAAAAAAAAAAAAAAAAAAAAAAAAAAAAAAAAAAAAAAAAAAAAAAAAAAAAAAAAAAAAAAAAAAAAAAAAAAAAAAAAAAAAAAAAAAAAAAAAAAAAAAAAAAAAAAAAAAAAAAAAAAAAAAAAAAAAAAAAAAAAAAAAAAAAAAAAAAAAAAAAAAAAAAAAAAAAAAAAAAAAAAAAAAAAAAAAAAAAAAAAAAAAAAAAAAAAAAAAAAAAAAAAAAAAAAAAAAAAAAAAAAAAAAAAAAAAAAAAAAAAAAAAAAAAAAAAAAAAAAAAAAAAAAAAAAAAAAAAAAAAAAAAAAAAAAAAAAAAAAAAAAAAAAAAAAAAAAAAAAAAAAAAAAAAAAAAAAAAAAAAAAAAAAAAAAAAAAAAAAAAAAAAAAAAAAAAAAAAAAAAAAAAAAAAAAAAAAAAAAAAAAAAAAAAAAAAAAAAAAAAAAAAAAAAAAAAAAAAAAAAAAAAAAAAAAAAAAAAAAAAAAAAAAAAAAAAAAAAAAAAAAAAAAAAAAAAAAAAAAAAAAAAAAAAAAAAAAAAAAAAAAAAAAAAAAAAAAAAAAAAAAAAAAAAAAAAAAAAAAAAAAAAAAAAAAAAAAAAAAAAAAAAAAAAAAAAAAAAAAAAAAAAAAAAAAAAAAAAAAAAAAAAAAAAAAAAAAAAAAAAAAAAAAAAAAAAAAAAAAAAAAAAAAAAAAAAAAAAAAAAAAAAAAAAAAAAAAAAAAAAAAAAAAAAAAAAAAAAAAAAAAAAAAAAAAAAAAAAAAAAAAAAAAAAAAAAAAAAAAAAAAAAAAAAAAAAAAAAAAAAAAAAAAAAAAAAAAAAAAAAAAAAAAAAAAAAAAAAAAAAAAAAAAAAAAAAAAAAAAAAAAAAAAAAAAAAAAAAAAAAAAAAAAAAAAAAAAAAAAAAAAAAAAAAAAAAAAAAAAAAAAAAAAAAAAAAAAAAAAAAAAAAAAAAAAAAAAAAAAAAAAAAAAAAAAAAAAAAAAAAAAAAAAAAAAAAAAAAAAAAAAAAAAAAAAAAAAAAAAAAAAAAAAAAAAAAAAAAAAAAAAAAAAAAAAAAAAAAAAAAAAAAAAAAAAAAAAAAAAAAAAAAAAAAAAAAAAAAAAAAAAAAAAAAAAAAAAAAAAAAAAAAAAAAAAAAAAAAAAAAAAAAAAAAAAAAAAAAAAAAAAAAAAAAAAAAAAAAAAAAAAAAAAAAAAAAAAAAAAAAAAAAAAAAAAAAAAAAAAAAAAAAAAAAAAAAAAAAAAAAAAAAAAAAAAAAAAAAAAAAAAAAAAAAAAAAAAAAAAAAAAAAAAAAAAAAAAAAAAAAAAAAAAAAAAAAAAAAAAAAAAAAAAAAAAAAAAAAAAAAAAAAAAAAAAAAAAAAAAAAAAAAAAAAAAAAAAAAAAAAAAAAAAAAAAAAAAAAAAAAAAAAAAAAAAAAAAAAAAAAAAAAAAAAAAAAAAAAAAAAAAAAAAAAAAAAAAAAAAAAAAAAAAAAAAAAAAAAAAAAAAAAAAAAAAAAAAAAAAAAAAAAAAAAAAAAAAAAAAAAAAAAAAAAAAAAAAAAAAAAAAAAAAAAAAAAAAAAAAAAAAAAAAAAAAAAAAAAAAAAAAAAAAAAAAAAAAAAAAAAAAAAAAAAAAAAAAAAAAAAAAAAAAAAAAAAAAAAAAAAAAAAAAAAAAAAAAAAAAAAAAAAAAAAAAAAAAAAAAAAAAAAAAAAAAAAAAAAAAAAAAAAAAAAAAAAAAAAAAAAAAAAAAAAAAAAAAAAAAAAAAAAASieFNrkFNrkFNrkFNrkFNrkFNrkFNrkFNrkFNrkgZFwAAAAAAAAAAAAAAAAAAAAAAAAAdOQwsTRCxNELE0QsTRCxNELE0QsTRCxNELE0j3MAAAAAAAAAAAAAH/8QANxAAAgICAgADBgUDBAAHAAAAAwQCBQABBhYTFBUREhcgMFAQITM2QCMyNSQlNIAiJjFEYHDA/9oACAEBAAEFAv8A7bp6Nm6IjRMvJCpXS7sq4la9bUh6eH26pQ9UfT4jVJwe4fVujfU8g6OEizsKMNbSLi8Y82uN1erpMVfZK8e82JOi8dUPHS++apIqr9DiO/8AzBxveMCGJZgiK/KeTQB6R9u1vcd8U5Fq3X5fyP00QxzMSdRPitJDe5cYQ/5z/BPPPcsh4V9x1BlPKVlZldG0fft9pAv4ffFWipMGMRgtVbFpzn5tYMwevTvqjJsRPiDZ5ZPktHfel7v4aJOMf+vQVysbMqdf59a9v4617d+CTNfnm9b1v+eMcyzNTvAH9dNEFKrOXvz+aqQ3ZPWV96fIfKGtiySTMB5tJmI82mzGHEBzFYDFM0ihICXHf8zY8odVeMILDHIYyneFUYBqYpj1EU5x/mLl1SUS/IXwG5GoMTHypEGFvkb6TxPm48ZMFhdkqhN+b45lhNQjPy8SLEdtYgms8vbpE36emO4Byl6TsKlYF6LlT23IVCwr9flDpXxfuWuWOtRWj6u63jv+ZsWaMTw7edpcxg12Ov35qXu+q8fc36Tx3+Yh4NzVB4o14nKNE2X5UpBg3yNmvYL89bahMtP3dT+aE5Cn64hYijbVFbiF0ZSwi7QhOLkJ4WsXKER1btolyuel3YN2wKzkNdcg0i21VDSqmoI2FmzBx+uYiq8PkC+rFC3p6onFyklc3j3n7L+bIxJ6qLeERtQFBj5EvB83yOVdIn8ZNwqDHaIa2c82TfOhbSr1P+zGhS3ngyzwZZ4Ms8GWeDLPBlngyzYpa+/jH7vyV3HSHx2orBB3r2SgkyTUoyhLCQ975pU4tcd/CNeh6CavQhR4nVqr0MqcWuO/gtUHar/ocgqBVBatWL1gxRUShrZdNdj8WqcQKD8aCo1cOX1V6Q/9FfYon5JVCQN9Qf5z/FR0SWpWrbcghrcA9Ur564hl8ym5r8CflP5J/sYIa1PjW/IchqBqA3xBtQEOI5y/+gGf7GCGtT41vyHIaipsVt8cqEVryxAQTx6amAHkljZ10Fn/AEunSsxJW1BWmHFPkdaD0/m//J47/m7jjqztkRVVC4FOJCJUy6/K7OyrE4vS93hnI0V5ovKL1fG8QhKr4paw3acYoK5TSMbumsI0ValFON3TWEaSpAOvAqO+jxitCTVq+oZVFUKNFdtJNb3vzfCPqC/U1r27R43KcY0iMdejo56Olno6WekJZ6QljHH1iabTKkTC/wB/yT/Y1j+yuL/4oX7Hd/ZGch16lST/AGNY/sri/wDiuMx09TUP+zPDq7/R+ME8Xkpf1OW/8BL9kWwLF8fJNTjxjm//ACeO/wCbueJu2FnUV+qLkUUrqFxr97WP+QsP2VxIorBXk1h6haprScavORlpWaS/JfFqBjPXi4cUOUUl7CqFw4oco2vO0+krhcNChN/c9Nipayre1X8r3/tdnH0viv1BfqcaRiWfs9ueUNkUjS2ylJePyWCunF969my/3/ND2bnZuV6VD+CFyVFP8db9m9/nvZiSh8kSzhH5ZFnPX40761VU/LMpCayZSE1/6ZMsy5rfs3Msy5Akx7CxsTFtaFtnPqC/U47+VYkPxDHdL4sHzRk075iHyu69jZf7/vYv1OMN6FTysPbH5HGoprr1rtnEnH5C36JlpUaUEX+/5HKny1cem2CqnXIqzHTe4fyCpmhV6/hPoRVH9wF+pxfy3o/tTxfavv2Xue9+HIISkhVNC8OyNAmby+/x5f7/AJAkCxjljAiDlXN9zZvNWO/dg5BuK6br5Ht/cBfqcXWgSn2jH3fklHU4+nMLb8C1zwLTH2mSkL/f97F+pxyet1iZfDMZAmyennyFaXcnEvLx+RyXvtF/v+9w37JcfsdKGzzBc8wXItmhI7U2PktH4pgye/bL74MuIXzCeo8nW3rsqmdlUzsimdjUzsauMck9uimmeZCff9S3rPElniSzxJZ4ks8SWeJLPElm5b3/ANF1lTOFT4br2Q4vWR11qrzrVXnWqvOtVedaq861V51qrzrVXnWqvOtVedaq861V51qrzrVXnWqvOtVedaq861V51qrzrVXnWqvOtVedaq861V51qrzrVXnWqvOtVedaq861V51qrzrVXnWqvOtVedaq861V51qrzrVXnWqvOtVedaq861V51qrzrVXnWqvOtVedaq861V51qrzrVXnWqvOtVedaq861V51qrzrVXk+L1ktOcN17GVTJl+ioqR1itrQ1i/3yyrQ2a7apEmPocOS1EP2HzAvd/mcxS1IP0OO69lN/MAzNRCDLYma98rJK2bfvLWk5Nf8AsP5nIte2m+hxc+jVH8z0v/SlV8VgVaTTHp3/AIx1hdF9L/ofzOUH0Go+hxiz0i59+5PZ6ec+jScn8KIywND70QsAwu+T+LH6a7Z1d65JZ6zstpnZbTOy2mdltM7LaZ2W0zstpnZbTOy2mdltM7LaZ2W0zstpnZbTOy2mdltM7LaZ2W0zstpnZbTOy2mdltM7LaZ2W0zstpnZbTOy2mdltM7LaZ2W0zstpnZbTOy2mdltM7LaZ2W0zstpnZbTOy2mdltM7LaZ2W0zstpnZbTOy2mdltM7LaZ2W0zstpnZbTOy2mdltM7LaZ2W0zstpnZbTN8ks94w2drf/btUwgEsPJias6eWmy1pmNtK7VJ6WbzgqUpdekF0mzUzUi1WmM7qkPIziE04L1sjgqq3wGoD8y9qpGJ9asKF0VSQwgAmwctVOMC0RhSHTTkE4JrGgmHdo8GAcaCKVbbjh769KU4WKgq4JUpIx3VH05QrxaOesmIRaYo4ppzdnWVnhWgKuZQXwogta8wBksVgmaDXFOPVGWTLdfJUStdNkNVU+FYsC0KnUT21kqg2iL18jDbpPcfcRmniqk28DXFOM1MUUUKeW2DV3isq0nvFFTzJEg5CJ9Z5oJbGDwNWOnwSLblAU+rEHo8bWBcedGyi64uVZ15SxkR9YarDA51Y5rvVs7JfZhy9wjbSvnKt9dfdc2CC6JFIWcnBbXZ2mjcHXVOpaN6efd8Ez25pqqFKuvXXH9LNOg8v51fw/UEh7YajqipWF1zjYXq13LKPu1jAojSeVrd/6V5S0Io66Leoli+tu6GwomFRsImpMi9FXmu1XRfVE5Jge6apKuMcrJSTLBVl65phJg7DcExI2eytKzWFqclEDxKiw2NtSWiPpns4WQyCZL47H2CMtwkQkikmWZNZ7fy/Df5/Iy2Zyf8AFGSQiSlucv4VIrBy0ZTI61CjYIyQOhnHUBXuN1kw6LVkKYgZDOaomEfoJvfDVEKs2oRIx6X+kermIFeGJav0YsZekH81GkMWZqmYgoQkSNxXDrzDBEHHWKgy+zVBBDlx08SOITTiGqmUEqUwzJ0WpsMVIl6xmrMZr0Y/mmaqa6fk5+RhTMTOWqNDStVEA9UxJRLTx9OPUzEKqpt6sS/kX+dUngtZgOBhKNiqAebdV8+kyIKkHhyM0RSVmd5WIW4JjtJ6C9V2zImDLvqiHvyiCtPaemKxslvDhajHYIue/Ya2ogBE8AitigZ3Jge6adkMV3GSdfA1itOybZEWr1BZtF2xjBuNiH1GU1pVNo+uxsLYTSaGuHjqpQHqdFUbbXfBUDD5BGAbBIJU7BcKjrsfLDZQJblgHYfs5SzPPZZ7F8wTTXL9BW0bShKW5y/EByLFbeYe3kCzHr/9i1SUZrs3w/Lnw/Lnw/Lnw/Lnw/Lnw/Lnw/Lnw/Lnw/Lnw/Lnw/Lnw/Lnw/Lnw/Lnw/Lnw/Lnw/Lnw/Ll3RmpDfdEbBmtL2y4ztlxnbLjO2XGdsuM7ZcZ2y4ztlxnbLjO2XGdsuM7ZcZ2y4ztlxnbLjO2XGdsuM7ZcY9YM2Rf/kX/xAAyEQABAgUCAwYDCQAAAAAAAAABAAIDERITUQQhMUCREBQgQWFxMlCBBSIjYIChsNHh/9oACAEDAQE/Af1IQ7Q+Lp5fUp0JsQgkhv1n/iiwIbWza4H5BDYYrg1NhQIQlt9UDp5hu2/srUPA6BGBBcPhC1Wn7u734c/pi5sSYE01he4uiBDTwgQ4DgpgAnCGoJOzepAPRawRIrB92Ut+PbsFUFUFMT5mCWh25I9k2GyMCGuKgstNDZzT2XGFuUIJEWstP7SWpj0wyC0ie28v77SJqmSpUgOZ0zwyKPXZOhvrrhmU8ojUkcQoFwN/E49n2jEBIZjf5AzUxYY4rvsb06Lv0b06I62MRxktyfyHwV0BXQroV0K6FdCuhXQroV0K6FdCuhXQroV0K6FdCuhXQroV0K6FdCuhXQroV0K6FdBXHwxHTMufhukZeF3E8+3iPDEYTvz8NhG/ikD5KkYVIwqRhUjCpGFSMKkYVIwqRhUjCpGFSMKkYVIwqRhUjCpGFSMKkYVIwqRhUjCpGFSMKkYVIwqRhUjCkB5fwBH/xAA1EQABAgQEAgYIBwAAAAAAAAABAAIDERNRBBIUITFBBSBAYXGREBUwUIGhsdEiJDJSYICw/9oACAECAQE/Af7IR9Q+Yh7d53PwAmocWJhgRJ0TxBA+cyoGMjRIga+GRPnI7ePuCPGGHhF55J+KxeIJIJ8BOXyX5vKXknbvKrxv3HzKZio7TPMfNYLFalhnxHH79v6Ra10EZzLcbynyKfFbBhiHBdPfcifwC1UYtLMxM01pcQBzRgMaPxP8gSPNdHvgwohGac9uBHpkSD3LIVkKyEDtOODjCGUA785S53TosTDOBfDHwA+oUeLWiF8pTUGJSiB8uBVScGk14l3zB+klg8KTGBDgZGZlP7elrsqL58Qqnci8kdp6RhOi4c5eIM1CjQ6dOKCQDMSTXYMEbHzCxFIxDSG3o6KhEAxL7D3BFwGHinMRLw2XqvDWPmvVmGsfNN6OwzTwn4lbAfwPcoYd57lpn3C0z7haZ9wtM+4WmfcLTPuFpn3C0z7haZ9wtM+4WmfcLTPuFpn3C0z7haZ9wtM+4WmfcLTPuFpn3C0z7haZ9wtM+4WmfcLTPuFpn3C0z7haZ9wtM+4Rw7x3rh1YEMAZr9vjwwRmt1Ye7B7fZbe3ifoPVgRQBlPb48UEZR1g4jmqj7qo+6qPuqj7qo+6qPuqj7qo+6qPuqj7qo+6qPuqj7qo+6qPuqj7qo+6qPuqj7qo+6qPuqj7qo+6qPuqj7qo+6qPuqj7ouJ5/wCAR//EAE8QAAECBAEIBAkIBwcDBQEAAAIBAwAEERIhBRMiMTRBo9EUMlFhECAjM0JScZGxMFByc4GTwfAVQENikqHCBiSAgqLS4WB04lNwg7LA8f/aAAgBAQAGPwL/AN2ySXsAB6xmuETE4CgDDIEVSXrW66RKWs7XVWluTFE1wcm4ouOBbiGpapX8YllmlG58a2p6PcvzezK50Wc4vWKEToyPl6z2l/xC2MdGc3G1h/KHpbOC7mipeGpYEGxUzJaIib4U3DRzKCPiLqCuDWiuj7YaarS80GsTOT3ZKZeMCMFdVsFL7Fh1iWU1aFBUb9eIov4w2jc7L9MdC9uXrVVT29vdDT81OMyYvqqS6OV0+SQ+M683KI29mEUqrc4upMPjD700aNq29mQH/wBQk63u+Rk03VL/AOpRlZN36Ne/CJU2pvPOOCt7aJTN90Tb+UXs0rbbeZ8mppfm0x+yMlONzqzR+UoqtKOcqWK+/wCb0IVoqb4zEyv99aTH99O2Fk5M/wC9uJpKn7MecCDQqZktERN8FO6K5ScVAQteZRezv74mVJaqs8FV/wAqxLfWj8YmJnp9mecU7czWlftiZCtbRbT/AEDDZqzLOSUw2pHOgukylvrboVrKkuL8nk24xevUVRFXVTfVYfNl9JYXzzrqqKEICO/HsSGXl6RmiVxtshXRlxHGrneWv59bmJY1bdbWorBuvkpuGtSVd8K9LNMm7SiK4NaeyLH2pRwewmqx0c2pdpq+/wAk1bjAGHWFapHmZT+Av90OTcwgo45SturVSKVW3s8KiJKglrSuv/D3Rho3V/cGsf3hlxr6YU8fDHw0TGOoXujDGKLh8wIDQqZLuFIzjsq4gdtP1Dp2VhQ3y8zLr+MESCg1WtE3eO2xqFcTXsSFksjALINYEdK4w41Og3NiQ+mNPBnCl3kD1lBaeDOFLvIHrWLTwIZS7qAvpWLSH0dAgLM6iSm+LWgJwuwUrFr7ZNr2ENIlfavwh9lsWbGzolRjI+Umm0ZN51EMe2JkQRSJVHBPopFX2HW07SBUhLwIa6qpCkAEQjrVE1frrczLonTJtVS9fRGEcWYJ1N4HqWGZmWGxmaC+nf4zJzAZxoTRSGGFkE6qLeVltfHEp8fqyXUK98VynJzDhkmiaFgqd2lGwTH8S/7oVcnNk0xTql41DWmcbUR9v5SH2neshrDTI5FZM1oOtMf9MPPNshbKy4rmxT0tLGBJxRJkiorVu6Jh6xLG2UdRv95a8oQzUVZUvNW7oecsRWwZzyN/vflIDOWqwZ0zVu6H/wDtU+MMlktGxmH8XHT9FIKVnJrp83rFxsOovtiV9q/CH0mZN5x9C0lRcFX+KMn6CMsNGiNtpujKByaMogoN7jqdTRh5h/KTOUmyHSCxBVIeZ60xIlh2qif8fCGJVMH5vTP2fmn66OTnHBZm2Vqyq+lFZw2mGB6x37olyAKSQtoLJVqi+MyU0NzKGl6d0Mfo1BwRb1ELU7vkP0flnSl/2bm9uCsW4a4L46G2tpCtUWBHLcqqujhnG4U8lyhuTG43N0HNueVVzzidsdKaYfVzWLfoosFPENUJLVbr6PZHSm2H1c1o36KLCzbbKukaW5ocdGG3ZeXfWYI9FpeqJdsPm+hkmYENDt1wUhlVsnJf0CDWkHL5PljccL9q7uhmYdqoAuNPZD77VUAyqlYl3nKqDZ1WkT5OtGUpOIiF6yYUheiMvlcmk4Wv2Q5mvNGJKdeyHXB82OgHsT9etNwiTsVYWQyomckjwx9CHBljVxpF0SVNfis9LxYvS/2Qx+i7K0W/Nph3fq4vy5UNP5wrreTWBml/awbry3Ga1VfkJlplpM4/hnK6v8TOqkbo3RujdG6N0bv+gMdfiI5N1ab9X0lihGkue4r4VEWsVBh1U+hCiaKKpuXwYa/GHKV551Ttt3a/Cs2s3/frvM17+yGpsJus6RYtVT4eB/KGUhUld0JcUWmPb+eyByleedU7bd2vwzE62QZpjAkVcfkWAZMzzjdy3QxLuKoi4VFVIJmYyk624OtPykCOTJhZlqyqkvb4krlETNXXjtUd2/l4itOErbIBcZJGZAlNtRQgJfkm1mBU2rtMUWlUhp+S2OZG5vu+VTxLm2Edf9c9SfZFHJrMB3YRdMzZOl7FSPJWD/kjz3+lYbcljudTAsN3hXxW/rv6ok56ckxecrgnrlVdcTzrMiEnMyg3aH57lh6ZzQZ9HaX0x1pElMC0CPk7QjpiuJeDJcmHUbZr+EN/Xf1RJz05Ji85XBPXKq64nnWZEJOZlBu0Pz3LE06kgCAzg43XzuCY6om5s5bMybIovR28arT/AIWBlZr+zhS8sa2o4jKoo/yickZkBfbbaVRvT6NPjD+T5HJ40TRSZLrLTfqjJ8y5INvzBt6IakXBKqsLlSUlhlHmTtMR3/mqQ1+jcgFNlTyrjqVx7olspS8ssibhWOMKlKLjyiS+oiS+sh99zKrMuR08mSJhh9KBYeNZ6WFUqrXpQDTv9ms3Jmtt+b0k79UOyZto7L5u8BPGJvJ8nk4D6w58td3ujJhURaP7/wDPEjlPJzQtMujaYjuX81iWR1kFnpvSuVMRT809/gmJgUXPzq2jTs/N0Sk4qLn5TQc9mrlEzlXKg51llbRb7V/KpBsz+TQlAt0Ta11+xImsqZRRXpZgrQD1vb70g2Z/JoSgW6Jta6/YkO5TmJZyf0rZdlArd3rDsvN5GLJrttWnkbtT4RPuvsJNzMtgDCw43OZHWRnP2SgNvviXnJTJo5Tfd85XSt+yGllZIpGY/bDqH3RU9cq9o+//AMvlUiia4Q50lD9wdceYRfasbOMbOMbOMbOMeYSPIVaL21SLHk9i9vgXxW/rv6oyd9d/vjL31H9Jw/8AX/1JEh9d+J+DJuUWsbBzbv59qfzhv67+qMnfXf74y99R/ScZSycBiL7mI3ez/iJ/Jc68LLzwDY6K4IVP/KP73lPNyw4k7nN0Ta9JWb8iqZ1UpdiMH7YyL9SvwGJ/6/8AEIkz/s69SSspRtyykSqOvpNOI8iE4m9dKJL6iJL6yJiZZcYQHKUuJa6vZDLWVCaUiaq2qLgi/lFhX5ydVmTR2tc7okleqgwv/bxN/XF8Yyd9d/viZyVOJc350Pfj+EO2LVpnyYfZDMu31nDthuRyaLVjLQot6Vp3e6JiQykLSC60ttiUjKGQZlxGZnO1BS3/AJpDjmVZlqWlwHritYncjq9m3DO5kiwu1coccyrMtS0uA9cVrB5NkZvo84yaqyXVvGsPPZXyuso0KYKhXVWJh6VygrGUB6g6ru+sTyf2nNk0t8jquu/NIamP7PZRvMvOtarV9kSaZRVpcqXaVnq4/wDEScmei/MnnDTu1/7flUg5lxK2YB7fB5tYpZTvWLlVCTxSBetrH2xRYXxxvWg1xj9G5OmOlEblxFTV4ZqUsB5l9NR7l7fEqmuMYsIyUeyviqgGQiutEXxkQzIkTUir4k46LqfpF7RAadVPz8PGo4ZF7V8FHDIvasdkeUMj+ksVTXHlDI/pLFWyUF7lgHlFHVErqHiiwUw9o7hH1U+VSA+kUIq6hxgs2VBipFcnZFqDanjP/TWF+fEhoc3dpF8YVBbQa+Kbp7t3bCOTEwbV2ItNYUihzUyi/Sja5j+OM8DhHjpXQviys4Dl+d66er2fjEvOXqrjxombp21jo87NmMz6VgVAPbE2M45a1KihEraXKVdVIlAk5lSbmCtoSaYe2Jl2aecAGXs3oBWsS7zDueYfRVBbbVw1/OKQ1nq3XF8Y1LHk+t3wNtL9/h0fRNFWEW5KGiKiwAgtypv8BfSSF8WWkX3EFqYkhSvqkJEqQroUtbygmbCvoCOEHMybrRSzxX3k4iWe2HSybOI06y0LbNcM9TXGTDnEYanc95TNU6vaXfE+VjL6rN9VzFN+MBeINg2lABtKCPzikNETtq3Fh9sErbtyp4qiaVRYX9HzStt+oSVpG2N/wRtbf8EE1Mu32FC/PiQKeqapCdhYQSt0tWNSe+NOgp7YQkKqeK8qeusL8+JCtPLRtzf2L4POH7484f8AFFb1X2wiHq7E8RaL5UsB8C/PtChAPyzXYutI02nUjqPe5I6jvuSOo77o6jvujqO+6KSzX2nCm6SkSxQfn/BY1xrjXGuNca41xiv+BdGpZtXDXsi6ffWvqt84xYU+9XFjZeIXONl4hc42XiFzjZeIXONl4hc42XiFzjZeIXONl4hc42XiFzjZeIXONl4hc42XiFzjZeIXONl4hc42XiFzjZeIXONl4hc42XiFzjZeIXONl4hc42XiFzjZeIXONl4hc42XiFzjZeIXONl4hc42XiFzjZeIXONl4hc42XiFzjZeIXONl4hc42XiFzjZeIXONl4hc42XiFzjZeIXONl4hc42XiFzjZeIXONl4hc42XiFzjZeIXONl4hc42XiFzjZeIXONl4hc42XiFzjZeIXONl4hc42XiFzjZeIXONl4hc42XiFzjZeIXONl4hc4wYUO9HFi6QfWvquc4VqZbVs07fkgYYTTNYRphMfTPeXz6rT6Y+ge8YNh9NMF+Remy6xLYPs/Pw+Yrs4FLra3b+z9dZmx6wrYXs/Px+RlfYvx/XcoPNIhEM2WC/SSM1Mi0dzSmGb7U3QKOOMLUdNtEUTBfxidV8miEXCwx61E/lDDRuy72dqio16C/jA/wDf/wBf67NexPj8i2O9slFfj+P67MMZ3zzucrbqxrAO3qNoEGHfDLkzMq/ma5vQov2rvia8suYmEW5unpLvrEsb0znOj9UUbt3Rms7+3z1be+tP11wd7hIKfH8PkVadWjL+Fewt3z+jTS1ZYwr2lv8Akhl8pKtqYC72e2ENo0MF3ivz2pumgAm8lgpfJqrauBO9vs+UrLPG19FY2r/QPKNq4Y8o2rhjyjauGPKNq4Y8o2rhjyjauGPKNq4Y8o2rhjyjauGPKNq4Y8o2rhjyjauGPKNq4Y8o2rhjyjauGPKNq4Y8o2rhjyjauGPKNq4Y8o2rhjyjauGPKNq4Y8o2rhjyjauGPKNq4Y8o2rhjyjauGPKNq4Y8o2rhjyjauGPKNq4Y8o2rhjyjauGPKNq4Y8o2rhjyjauGPKNq4Y8o2rhjyjauGPKNq4Y8o2rhjyjauGPKNq4Y8o2rhjyjauGPKNq4Y8o2rhjyjauGPKNq4Y8o2rhjyjauGPKNq4Y8o2rhjyjauGPKNq4Y8o2rhjyjav8AQPKKzLxu/SX/ABeXPsDMjTqkSp8IZl2JBtu9GivvJddF7YygTDkv5IyNWQXSEK+6G1Po0s2EqDimlUS1dVf3oQVcbdRRuQmyqiwMtUKkGcQ/RttrWGvLMNvPDc0yZaRdkBMuOsto5cgARLcSpupDim/Lm4z5xpD0k/PdE4rvRZQWVS9U0W0XsTfCgjjNiM57O36ChWlYZPONvNPVsNtcMNcZ83mZZq60VdLrL3Uid6UsujsuwpBnNIe4+9IsccbG9zE9QxlSVaNpwQYJQIl83ppr76RJK0srNo+q2KtSBVTWiw04T8uxnq5oDOil+e+AZbpeS0xWBNqYYmAziNqrZLoqv2Q83n5c32UVSZE9KiQw67MS7Avp5POGuOPsg2XhtcBaEkSOTlZQxbbud7TJRuX8EhjpWTUlGVPSNly+qb010gproSSKo6PR9flR+34wxMshmwmms5ampC1FT7UiXdz8u0kwqi0hktSWtOyHXM4y5mVRHgAqk3Xthyj8ubjQXm0JrcKe6kOyqqFzYKZHXRtpWsTTaiBL0Vy2/cvbAutOtTTZHm6sqq0Lsh6jzDjrKVdaAtIYIQUQEBuMzWgikSCuKzNSzxqlw6Qr3YwDzjzEuLi0bzpUvh9sARtBt0R+ikWzEoEzeqJpESU90TkrISjUv0S81O8qqIwwYKNHn8yNfWw5wUuExLE6AER0PqU7YbeR1p9pxVRDbVdaboN8nGpdgVtvdXBS7INJo5fybKuN3aQnorQu9IdmEekXHnnVQzENaWpojo4LDi5xpkG0qRuLhBiJtGKS6zCGJYEPdDDpuA2047mqqsTTUu81mGMScMsAx1LhrholIHWnUqDja6JQ9m6eSaJ1a9iQwYKNHn8yNfWw5w9R5h1xjF1sDqQxJK+7LirpCQsmWkQ190Th55iVZCYIEvWm/UiJE81NvNtnLtXDpYLqovshtSmJdpXvNCZrU+/V8YIHEtMVoqfLy7rZ1AQaRVp2ClYys6p+TmG3kbWi43aoZzU4suYyQNXKFQuTWJJSG1l7CJG0R02wsEj7kily9Ps6N/8AFW6v4RLvdOGWRtsUca6OhHUU9FbYyeF6k62Tqu91xViYzs2E7cidHqzR0V/eKnOJ+X6QjQOPi804QLRdGlF3wUm07nBblCbFy1dMycQvdEkyJeUbNxTTsrSkS8s9MjKuSxlS8FVCEqdm+JtBNc0kh0ZolHE6UgS7FrGVHWZjODNsqoaCpQlMVt/lGTc85bmZhwjwXBFEafCJcXpwMwKrnpZ9m/8Agw5QBzIf3S/UuOG6Mws0w+8Uy2SZmXzaW476JE7OJNXmJuWs2LdetU9lIyZn5tJY0Y0rgVajeWqm+HnwRUAl0a9kS85MmaS000mmGsDQaL/OBlSmCmwcmBcczVUQRSqYV34xMyrM307PkOaG0vJ034792ESknWqyzNp9xqqqqfzjIo36Uu4Su4dXTrGWkU69JcFWsOsl9YnFbmGEl3Jcwl2glqEKqO8qfjDLhIqTTw9Hqu9sFryT7ImOmOK225Lm3VErrhBYfGbdKYbdW0VREEK9u/GJtxrKAkLwqjbQy6CeluJbfxiblZk803MgiZy2tqotU+yJGX6QjoBMK+84ILamjSib4lUemklXJcVbJCFVuGqrVKb8YnZhuYVEoGZFQXTwRPsgFXUhRlAycpLzQuto7bqu30jJzSTSPE1O511RAqImHKMomZ0F5h4Qw1quqG5e7yyTJHSno2pHRH30lnW3VcAiqolWlUw9kCgOKrLMkbAuKPXKhbvaUNy93lkmSOndakTKOG01Mkg5lx1u8U7e34Q0CvooFJHLm6LNqCSquNsS0uzMJMOtzCuHaKompO32RlBvpVG5wheByxdAsdEk+2JRnJ8wpuMKZk8OCXFTBPdDn6SfJUelzYzi42VjJcqzMpMOjPoZ2iqJ6PbE++3NZ43BNttqxapdru3YRJzz03mc2jedasVSqNEw90TatPMMTBzRHnHmL7m+7BYnFz9jExKI0Lmb1LQd3+WJREn25ZJcM2aFL3KqJ6Q4Q66qqV5qVS1r8woQ60gnHFuMlqS9sAhrVAG0e5PBTd4ccfEvmnCdKlKl+rCba2mK1RYUixJcf1OWaeIEC9KoXpd0TDhPSgMs0RXR0Q7kwTXGZA2Vq1nRcv0CH2xmkdbcT1x6sS7DZtzAuMEtuvHNVhp5t2WmgzqNrYVUQu+Jh15yVlBSYJrWqDd2J3QTK0vErcFh4hmJd4mfOg2eIwDavyyPOChNtKeJ4eyOkOPMy7N6t1dVetCtPUVdaKOKEnakSHRHQeemR6iFvqvdqhx5p9iZBtaOZolW3+UZUXNobqZqzRqqVPdDqOvMNC0iZwiPASX0fbCMITaoTedzqFoWetWJdJd1l8HzsFwFWiF2LhDrgPMPZnzoNnVQ/PdE0gCyqZrSJ1OqlyYp34w2LLwuITYrRFxTBIV4Dls666SEpJUrbeqmGCwyKuNG89bY0BaS3aoeIH5d8mfOg2dVGHWukSudaS5wL10R7dUMmpg608lQNvUsNvG8xLi6tG86VL4mG33GWUl6IbhlhVdSQ63NTDSCkurrZCeB4Ljq1YQEyk2w65nFTRJaFqwTDXE6bqykqjBCjltRAapu90IwhNKit53O3aFnrR0sXmX2L83c2S646ZUc1nc131pWCavaRRYR9VIqIgrTnDJME3NA8ebAml9L1cYyirj0tMK3LFgC1UCw7vhGi/Lq9m85mb9Omv2aoknmHgcmJhVTN162KYJh34w8YPy7+Z86LZ4jEmky5LqSkJLLkulb8NW6D+l+vyrzy2tg4iksTMk88jFz+ebMhWi60osdFB69tqSebRyxdMz/AA8ErNo/h0ZWzGxagWathwHCoSzDJ6tyXV+MTisz4si5NE5Y+ze2Y9urXBGy2vQ85Wz92J8RmZcgdbVJcGpa2mKa1pDE09N5tWQaI2rFuVUAaW7oA5h9JVw5p4huRVH0K6oaGWVTaYaFoTX0qb4yY8TiqcuJNOtW42lXSRf80TaMzaTbkwObCwFS0aotVr7In1bNBmTzeaqNfSxiYZlJgJXPGL45xq4RL0gXD+caU2rgFLZnP5lKAta4DTVGTmOmDNeXvNGmrATDDcmOuJwmJtJg5hvNtggKlEqi1L3ROo4VFcl7Q71uHlEu9Lu3ErIiYW4goiiQ3L3eWSZI6d1qQzONeUbbzX8gRFiccYm0mSfaVpoEBUVELeUZWdFyrb8uQNrauK6MZOZAquM5y9KaqlhEms449Kk0itj5K5Hkuro9+MZRlc+EqSui4BuN3j1aKK64TPTautdGJjPZq1EUkXUibsYKX6QmdYmCINBfKitEw90ZSzLl2efaIMFxRBKvxhlryhtrk/Muk2FVb0rq/CFCWeV9FnU07La6C6kg5J6YGWMZjPCRiqoqW03RO2PF0b9Hi3nLNVFBNUSrTTqTZJMo+6QIqIlEpRKxPkE8jyvMEDQo2XdrgTbmGG5XNUFlJbyiFbvKnbvrGT3Fc8tIvEWatXTQlTVEwgZRF/OYADcugrT95aQxlN6czaVEjZsK5C5QrovVeV1Uzdno+tX5ovdK4sErAtKugKqqJ7f/AOeOLrJKDg6lT5FQlnybBcaQqmqqS4qq+ILrBq24OokgVmnVct6vYngNAKiGNpd6f/sWzBoxbBtKmZRtwfdxtwfdxtwfdxtwfdxtwfdxtwfdxtwfdxtwfdxtwfdxtwfdxtwfdxtwfdxtwfdxtwfdxtwfdxtwfdxtwfdxtwfdwAOmLgOJUDH51VySdVo1SixtnDHlG2cMeUbZwx5RtnDHlG2cMeUbZwx5RtnDHlG2cMeUbZwx5RtnDHlG2cMeUbZwx5RtnDHlG2cMeUbZwx5RtnDHlG2cMeUbZwx5Qjk66rpolE/6j//EAC4QAQEAAgIBAQYHAQEBAAMAAAERACExQVFhEHGBkaHRIDBQscHw8UDhgGBwwP/aAAgBAQABPyH/APbbpxdKF4IVWC6OmzEUK9tigm/es5N4OSA8RyXOgNtmuLmxWiqggKC9OMSXWVVRLQl31f0/pf3NIWTtZApdFycDN7j8P4GGJN6A/RPhfUyxPWyw/Z6TpE3MHlI9VLAnblB+cAV4c8FetB5QcgwCyvM+OEka9njenHWtY95njzmBhEms6D6TQkfg3MiNpCWauuxl+kmLIqL5QHQm6kE53GEdlqhEb0RtkVDn8lAztUulJP1+uIiNES8KW/T6YMah34q7tfHfm4Pd9dhFhz2mr51iYiJ4CO91II7bev092ThAxE4R6yWJ9n/8/wDsPOlpyHnpdeOfGAk8Oql0Ttx76IEAadddf1VSIEaq773n9P4588EkcXnznlcn3bs11cxZCCRZNkdrvmEr5fQx54Evr7sZdQdNxA70CArN7zXf0aZGraNtLeXX67CEC+fd2JRHSKY7VjVp5cYYKJPvROeH5ardgNur98WYEkxBWBLrnnNWQ2SlHX1PYA0yuCmg4KvB5wJEk7CxfdlSxl59c44ySvJII4p3/wDPaQ15F+kHIuydUv5h+NOBXoX2oQqeAKuU+/8AtgVBTwSrkEqOaR/QEQ9pir7jeaMtsVDyhU+P58sAt4wQFXU5nIe996DyoBUDgbNuN11x+MxqhCbHl+Og9UyslslJ5g00m1qviVSzYAIXhgAzxB9TObqXoxANnBR5qT2agTaKPNk9jlIIiV43Jnb8QKTuOHHw01PwN4OTzSnPMTP67zxHRFtUHyJhhrUSkUfWRLNiZECECq8EMo43QlfemJJJ2YE9LzzgCQ2CD3nH/asmcCwfXWpZ2u6AZbl9yh4nX0yGAyeDk6OCI+9fxaZxFaDvTz7nnjCo2ZgNQ4rI9d9/juAsqN3SJ8mwdzsgvuom6gBLshts3XEKDYIqozbte/X8W6RWeoZ8lg6pynYun3I344tJw5E9+84EhiSFq0NUDvyPRgATgME8DLZ2rv5Ya1mLQmwelwmlJIYMl1jBMgy8dvfU1gPIoDSU0eCkOlPBlSlGBBIcys9e+uvY+4BrRNu63iAEeVmGmJRIaIQg+KVTk4z+u88fmW72LIJ8PhgEOKaDhbC8Tgge9WkEnECJIj1fWbTKjHB2I2R2b29ajnKaY3dKdd0Q5RnIAo9muvRkz3/9qfA9WBbL8YhvQliYKmfGb2Tx8Z/GPtFODLdcagDyF8/iqKxC2t67PTvEQ7cyC6SFSO52b8fjTbA7Vjje33PXDR0AHFXJS6ZWU6r+Nxog2IjpMAg+NannSJ7tlrDjCZRRrKOdq/AClKZy4UdkrfhJrwayVtbQB7GXW/VDo0YJqVIDWV5JbNt85GWN4HRZZz7w8Yk7DNXGGhdJbOb5wRZwoIelZHc2Hg6cakAHl5J1lKvvI7ZyaGo/CTFwCLoZ4SN4ZIHbcOVsgitRwocvnAEkolCeBf3wMyBEWD4UwonVAA6hkanN4fTNqvRCS6Aprt44Oek00VU56Zxah7ly8Kvo25+Kr8f+3jjC4vwtnwXODgTst4bzLvWzk7MRWUkR5n898w4/ChshAXtvjc8zc4yLSLYTrhxebN+f+ffivWg8idj/AO8mTjbdC15YA7338XKb8V2/wdT8hQgrbpjCTkq28p4/+mfAHrrPU+bPU+bPU+bPU+bPU+bPU+bPU+bAOL7t/r4ARX9PbFkKvAYGnSQGj+P7rHBEbKV9y4UAigl3673nuQUn+McCWwkfd7BC6H8Qjs1rrreLwefaiNEkDwmldbtnXTkCUFrViQUgWrH4ns2HuZyao8o8nC5uCOzWuut4vB59oBLKobB0RHntPyTdNqaN40GCtvJoR86x55lwYpTieHE6UAxLRODoHjv8FDIRJO/F+ft/AhuBZoNBUhVu+hytJdNR54Aoj8J+UIfjZKbL0zNh55Kimyu4iJfKdfmgp4v7fg8CxX5I79Vx0JOQonwFfi4NqzvU/ZX54Xup3V+aXIdf6emALQyZY078P7+0QnF/D9Y/dhQu9AMEHGgF3TRp4xLTJg2AoUC0CJrTj2YpnrOXmR+uLfOEhRi89HyPY+EaQ0LAM9I/Nz6x+7Chd6AYIONALumjTxiWmTBsBQoFoETWnA02EERRPC3w8ZeoWitACAo2QiqHbm8DIg8Khm5Udd3JE/LdKlOLIvvw8dRQWReZ3JyaeDjAWR6B9NNGXVHl9+GLgCAFBNAPNZeTE5EY4aRGiPHUnh5w9DFOhsGpFmgojDv+p6ufQ8UUVIMg8HcvBzlUT9BKGiLwsg1iUeIoFKEVgwruu6ba4MPIEMQQ34WD6YkKBWJ3FBTB4icaDIQgGCjFSdnpgQPBgc5oPIV9DFR5B3VWM1CZ5XsVb1ss3DXWqH1MDeSSJ5GPKx/FzTwdbNfJ3sAWbcrD2YSDRpR8Wl51iLgqIokRZtALKt1lYezCQaNKPi0vOsksEkgMkXvTaAPKmB5zZgnSxeeG0vCGbaPGAu9701IUZHWzAPeRA720Fh1G3Sc5zoIEW2zRdJNHq4Iejw08EG+7Dnh5ylwsXaIn0Z8D83+n3OIQVMALXKtA1DT1XR7sHBJ2jn+w5/uOI/cfvj/6j980/wA798sPDSj4O80g3h2DzfZ+z/Y/D9Y/d7CfRcPpWP1v2CDJ8winPpEPg859Y/d7CfRcG4smpREfMGFBlMkxQ5NUKhuUWFJ2Y626KtOwQj74Hr2iMZrhCGbnEN8GfVf39nONuyLMtaDg7e9rRQISqI6xx4zWRW+4kvcz+p6ufQ8bNyARAOhHJ5xJp3y1htkYB6pgY6J7nSjvjYc9vP8Af9DP6Hzz+564sMkD0BF6KKerhq4EnhNfG278TODFBnFdvuDfwxFuwiU1okgH44OEdolkSK3TTxHACdaAYmjzu5yjSxwB5HZs1pD5cvAboMRUuAMarN7lWOrHAHkdmzWkPly8BuiprXO1XG3daFmneMg3LXQTWk4BqzWKz5Vs1FQVR2IDGLrSgYqqlDOAHek3zdZZIVZDA1VKRqykT1gc+z069x8ts1c8EgO4eXhKJ6Pj83+n3ORDGEl4bfgP1zYB26Mp/wCGB/eUwMk6YSY4+xcH7Qr4HH2xGCIxHpz9n+x+MEUBR0duAGlagA28S6CF7We0acRyjQYHsPmDdR9qWUHCMmJoqrvduFA3htPlZ+HliyIPwOfxctWhZ8Hj8D/ITq8Nsg1qXcfhs45wUHOLvyuWcc4KDnF35XBqjQ6RjcnLRxVnzxCVA6Rm8aFgNKL9cZJhyxr3mBmtspGx3U+OAiBA7QeC97avdfd+b/T7nALDbb13/wCYIjVX8ZwnGEBwZ5EgP2McJNF3bj7Ljj3gGNBD5ufs/wBj9c/p92SWjYs7emIoglHOBuPjE9mwIOqlPWREWRo9XNBWpcoM0hWQQu+778/Z/sfh0IAVAUnq2M21xi2EkcQQ270Dx3h+GFm1OEosu0xVCAaEUVNI2ujvN0HQRbNBjbRMETAYNNjFJxlEvjsKBK8Lzd7/AFH+n3YhAtyXyz+q54dHn/ON/ADxjjlmF90iJfm4+c889YOFyB7Emzn93P2f7H4bA57NoK8apPUxkGvyoTTqh7quOM8t1bQrSPQOpiauVIAgqznYI3XEoeBJUCUkGFeOvdCHModicQj8fXKzWlYu4V5eW/qP9PucHE3W182TQMsN5bzkxxw5B0RLp6yYdNDlPMdz5Ypz8h9s83yn2xQBYgAU1YBn7P8AY/XP6fdhIape+39nCM6Kv4/vrhkpKVnsIGPWdsC17N+y4t9gbcMH4ufs/wBj9cB707ytxkTo+H3dfLONmnyYx9loMPpnb8M1wA69g+zicUTk9fhlvPOU5wv66SDROHBPC4WB4Hx7xzYB7AH60z+xfzlP631z/B/fP8n98ev5H75QlXu4+B985uyK/wBmCHMvKdfr+jUPF/IbbbfLieL/APC/SCwcHm8HvcgVBswj1sN90+OAxs6Vfkh9P1nbbbbbbbbbbbbbbbbbbbbbbbbbbbbbbbbbbbbbbbbbbbbbbbbbbbbbbbZGNvap81PplCINGNe9AnunxzpBYOTzeH3n5V3EB4Dt9wbyqDVQ2eX08HXzX9cig3QNnk9PJ38km4gfCdPuTf5IA3azYIrfVQ/7VvDfw6W14Sbza83U5/7QBmlm1VG+iJ+SEp5n3r/7ZObaxoJp8OKo31iIXdbbp17sq9h0kIRXThYfcAddCNO1UJ9NKuDq9wCBTaoNSw39f7fe/wC0SvTHvD+SRvqtY+n/AGkvefrpiXfEuueMqOgxjx3bpJ47wguYI2EoK6e6u8WknrHoJPLg44ySlYQIx0u/XjXG1zh6P4iX4fx/2sb6rWvp+S0Qw+hcvQbH3j1+v7IYPRuXqEh7l7/KJ0FpKjoPKepvz5wIWaIj8T9bCFmyAfFwjQWkiOw8h6u/Hn8ynku6l+Bp+ODwSerfv+stttttttttttttttttttttttttttttttttttttttttttttttttttttttth4oPQv2xTyHVWfB0fD/68YpiAnabqG68zeJ027AlyKE3NnDihVNdruBoCKDQ6MLYjUaRSKpYwbhJBRmffEdREEnGdYvQ0+VLoPHImBaFIQ3pBCzQpdecsKQAZiAO6dobKlxhOFpVeIgMdNMvxxQS16kEEFaLoe3Hm4NNIgy6XYg6dWCoRSWUqCIIl4Tsy0duhA2AKwSqAU3jnrk9jNAII3Y8mvAlaWjmdoBoegOzRlYoQtLrQgDUHTq2YUPtoRAoIlGJ2O8cJWWAKXQgKQoqZEIMyAfNdB64ja80ylEO4xBNO8thxp5ilAdbg2dXWUk+kXQkFIm1hs3zE1N+tMb8rWk7UbAANSPnGHs2rLhVh3wyZPpJV1FdNsAYAbJiDAKCDUh0bA6EMRxeGBogpucvZveLdj5IUDQHZGLHNltMAlXsg1BUjnhI0w50siTXZitjriT1Toi29YNqCSMaQg7DSCMd4r2XNE0uwGLGLMWnmVGVWLywAVU1kR8CqA2wCJRicIlxfr7iQxSCAOqoXvDeVqADs0a53iMSM8rfItvfjKvBTtMkVK28HHOE9zaSRs6489vOsDIhpBNEkOelNNSYhliQJVUEY3jZgQRtggsAKs2zg5xEZu1GoWkFK2ccLTBY32Z6BBZrA5G9Zp2Z2CuiAqr0DioVAJaNS2iRmxuOEvSIgK6GEYc76yJplZCgcq04Bt13Bk4LGDEFBI6RBKZsE7DTXU0O96/fCe5tJI2dcee3nWRXxbAHbsBi7izvEiM2r8I7BoUXxvI+qBgtIAsA8Aa3gXXNdF2QbLenZrmJpplBGAiAUgoscotN3SMT4J+ftWfwiURKxOuZrJXeR9VM5L6ydzFAmzO6BKPSCDHeLqxKrNUCEQWFRYYakCBHkdklNzbHjBznCCQFkNlFSL2GJYAYIwBGA03rj0wLbPUc7YBAI7piTFAuOXKwIEaMeHyZrK8EIQCUAQWWPkykKfUjesjY8PW8UHyksS0KBOEiJvWDygVCRGFli74JcqRQ18MUA2oSIhOQTePW6xFg3emFobVcXjFTnG6FuwpT1hF2OVFBKWquxdxinYPOTqdSEIkWS8Jq6WsiNjtVsVIK2iqQlzh3WLWbJoRowaR5wJ645QAL7wr6uG3HB4BTuAU1RJi/kECnAlZT1oL3iuXPlCugIh0rlrwY90jD6k3cgfUcAnV+9EB43ouri2iDCIN7mtb3MbxgGQA3RuqKrWGCRsy7Qj6q/NH64AU9diZwd++HqZVvo9iCkaehCc4uTcEFvSADFErEmQx+0l2Q3UjBdjNZOTAlWNAWtujk5mU+GN1LEnQigwaYWP2EsQXWktdM1mtcCvoO8366Ih4arKbJd4EaRR34oKB4DbqRblgVMrECl8sDvEFpbbSEbJyJL1gACxhEJCibjG1NYsfyRTZAoMC8AWYdqVS6YjZOSS3WVVIfC6yQpw1wmrjw7MOfQGtnBUag0NNnO4iRBfgG3UijmiUQ16l2cygx3uAKwBgBFBgRUKroxxnQ2R0w2g8hveIOihooIgvHgbdSKPwqBahJNA9LWOsqgkaIgsIiVyJvTxlE6TFdgWCO0QWm9TOQiNgfMShY0IalN4XOA1axV1R4UiL3itcwQUVqGq3c1+goJGEfCcOJrXbylq/Fcd3KXyLD0qvx9lITQsLwvP7fT2pSqlrWq/gCloKWBwenP1f8AmReGfkR0/BMQWlS827f+N4RR6SJdRt8MOd5LDjJVUQVimhYNe8AAFOoeXTUdIhEbMkCELKqG6gwu9dPOUUybo0FoAK0eQBYmbk5wS2BQUY7KMd4OvAKZdiCgvKACbyuNCkij5NJ64VSRUSULsBBYosUya94ASEDgLYClTWooiwQpADIC7HoeGzVkRAeqmk7EaP8AOEPtg5VFSgAEVdI9bw0O7RbBRFF1SlyLGlwqCKUXjXObF5c2k1FddgIRrrONWHR26KBI0tJLiVCSKlaBGca2cYkVRQqZYgIOlSCnvwJEthZNTihvxcTT5SosuwIrTlnMzdvpuAlkUapOt6mKGiwQFUgG2bRvU3kkq0h2LEBB0osp1vEww5J01qCA1LY8dYuHLyyYmwRE2J2Y3MBqkMUggXVUL3ifzaJGhBVl4OnKJECBQO2jtQdcZUMOKAJBLC1qESZdi/kNUgqPIC14lRnwJHVtKUDjZaSYERSFNxZEEgbs5JRzS2GqvnpJJ3eesNKdaKVqchaejLq0EmMnHaBHd3KNO8I56tsQ7BqJUzzsvirSnT6NuUtnWCngpqogwU7GeFxcqysmssQEFiixTFk29UtxE9SmzrrDCaBQk1f+/Rr/AFYDtgK/AyYLHpgRAUEaMeG84E0KcFLAlA6FDhWX2clKTRQKCIrpLO5kAqhTrpQnTXLdXFyxrHaAtJ00KJsmC+IgEUJQLq7hdUy4t6srBOjCSoxVELsghyoBBQgFUjdJMppy0iIUKJRNRiM1gDT4ROzLwK6HcmCHhiLL4TDgzZ8chJQA62Y26gWV3gmkRcqV0Qg9z03hQQyVsRSu2gHWqbx8Mxg2bYKUkStXwY6LFEEjO0w08AhvnGpIYToRAEIgtW2ZSZWpdtNGtJrrWGda1CB2kRlEffMO1KpdMRsnJJbrGnkoiLKxmxEHil4xnYZINogCBILVHRmgKRl9CSnDvRrOwSu72yRodL65D8WMlbBADKOtm+sDYLCyHUo9EHYmrkMwdHbAQpexWrMIZA2kAKmnnGc+dZqQa3Si2EiNMd6zZxLhIlMKEqMi7usRHzaKKCNQEqzbJoUuREFqmiiSlN8ZGUHWFUlbYm5dWLrBlbQJDIKoqsA0b3kiB8Hai0AdSFOVTVt0WwXLzeXBLQgVJq2yRcqghAeZswQiI1ba2MgcC1jQMNJtRHASgjZbbNS5zbTIk06drJL3+kVCcReAAPkT4YqF8d0AvxB8vxrDG84fP5KWo1xBkoIx9SOJNVQqrta8v4EhzUxP6a9cjCKBAB5gAHqhuex8Ur9QZ7qD8P8A+xbJ0oBZdBDas9CDvgf9D98/0P3z/Q/fP9D98/0P3z/Q/fP9D98/0P3z/Q/fP9D98/0P3z/Q/fP9D98/0P3z/Q/fP9D98/0P3z/Q/fGdKASzSR2JfUib5D9UrHxANLxER48Z67N67N67N67N67N67N67N67N67N67N67N67N67N67N67N67N67N67NWPiQIXiABz4/8AyP8A/9oADAMBAAIAAwAAABAAAAAAAAAAAAAAAAAAAAAAAAAAAAAAAAAAAAAAQQwAAAAAAAAAAAAAAAAAAAAAAAQgQgwggAAACAAAAAAAAAAAAAAAAAAAAAAAABTghBRCgAAAAAAAAAAAAAAAAAAAAAAAAAAAAAAAAAAAAAAAAAAAAAAAAAAAAAAAAAAAAAAAAAAAAAAAAAAAAAAAAQgAAAAQQAAAAAAAAAAAAAAAQgAAAAABTAgADiCyTzRDjiAAAAAAAAAAAAABCAABQAAAAAAABDCCBSABASAAAAAAAAAAAAAAACABAAAAAAAAAAAAAAAAAAAAAAAAAAAAAAAAAAAAAAAAAAAAAAAAAAAAAAAAAAAAAAAAAAAAAAAAAAAAAAwwwwAAAAAAAAAAAAAAAAAAAAAAAAAAAAAAAADBUVAgAARRQAggQwRzQxgQAAAAwQwAAAAACl+cLgigAADgABBBBAjBAgCBDDCAjwgAAAAADyb1X/ygAQMs8AAAAAAAAAAAAAAAAAAAAAAAC/CwaEGgAPOHIAAAAAAAAAAAAAAAAAAAAAAACtvvayGAAAAAAAAAAAAAAAAAAAAAAAAAAAAAABwwx4gAAAAAAAAAAAAAAAAAAAAAAAAAAAAAAAAAAAAAAAAAAAAAAAAAAAAAAAAAAAAAAAAAAQ4IIIIIIIIIIIIIIIIIIIIIIIIIIII4gAAADMAAAAAAAAAAAAAQAAgAAAAAAAAAAAADMAAACIAAAAAAAAAAAABSbKgAAAAAAAAAAAABIAAACIAAAAAAAAAAAAAAAAAAAAAAAAAAAAABIAAAACLHHHHHHHHHHHHHHHHHHHHHHHHHHHFIAAAAAAAAAAAAAAAAAAAAAAAAAAAAAAAAAAAAAAAAAAAAAAAAAAAAAAAAAAAAAAAAAAAAAAAAAAAAAAgQAwAAggQAwggQgAwwwQQAAgwwwQAAAAAAAADADBABABAxABAARACADBCCBABBhCAAAAAABDQSyxiAiQRxxRywRxAiCQgAAAAAAAAAAAAAAAAAAAAAAAAAABCAAAAAAAAAAAAAAAAAAAAAAAAAAAAAAAAAAAAAAAAAAAAAAAAAAAAAAAAAAAAAAAAAAAAAAAAAAAAAAAAAAAAAAAAAAAAAAAAAAAAAAAAAAAAAAAAAAAAAAAAAAAAAAAAAAAAAAAAAAAAAAAAAAAAAAAAAAAAAAAAAAAAAAAAAAAAAAAAAAAAAAAAAAAAAAAAAAAAAAAAAAAAAAAAAAAAAAAAAAAAAAAAAAAAAAAAAAAAAAAAAAAAAAAAAAAAAAAAAAAAAAAAAAAAAAAAAAAAAAAAAAAAAAAAAAAAAAAAAAAAAAAAAAAAAAAAAAAAAAAAAAAAAAAAAAAAAAAAAAAAAAAAAAAAAAAAAAAAAAAAAAAAAAAAAAAAAAAAAAAAAAAAAAAAAAAAAAAAAAAAAAAAAAAAAAAAAAAAAAAAAAAAAAAAAAAAAAAAAAAAAAAAAAAAAAAAAAAAAAAAAAAAAAAAAAAAAAAAAAAAAAAAAAAAAAAAAAAAAAAAAAAAAAAAAAAAAAAAAAAAAAAAAAAAAAAAAAAAAAAAAAAAAAAAAAAAAAAAAAAAAAAAAAAAAAAAAAAAAAAAAAAAAAAAAAAAAAAAAAAAAAAAAAAAAAAAAAAAAAAAAAAAAAAAAAAAAAAAAAAAAAAAAAAAAAAAAAAAAAAAAAAAAAAAAAAAAAAAAAAAAAAAAAAAAAAAAAAAAAAAAAAAAAAAAAAAAAAAAAAAAAAAAAAAAAAAAAAAAAAAAAAAAAAAAAAAAAAAAAAAAAAAAAAAAAAAAAAAAAAAAAAAAAAAAAAAAAAAAAAAAAAAAAAAAAAAAAAAAAAAAAAAAAAAAAAAAAAAAAAAAAAAAAAAAAAAAAAAAAAAAAAAAAAAAAAAAAAAAAAAAAAAAAAAAAAAAAAAAAAAAAAAAAAAAAAAAAAAAAAAAAAAAAAAAAAAAAAAAAAAAAAAAAAAAAAAAAAAAAAAAAAAAAAAAAAAAAAAAAAAAAAAAAAAAAAAAAAAAAAAAAAAAAAAAAAAAAAAAAAAAAAAAAAAAAAAAAAAAAAAAAAAAAAAAAAAAAAAAAAAAAAAAAAAAAAAAAAAAAAAAAAAAAAAAAAAAAAAAAAAAAAAAAAAAAAAAAAAAAAAAAAAAAAAAAAAAAAAAAAAAAAAAAAAAAAAAAAAAAAAAAAAAAAAAAAAAAAAAAAAAAAAAAAAAAAAAAAAAAAAAAAAAAAAAAAAAAAAAAAAAAAAAAAAAAAAAAAAAAAAAAAAAAAAAAAAAAAAAAAAAAAAAAAAAAAAAAAAAAAAAAAAAAAAAAAAAAAAAAAAAAAAAAAAAAAAAAAAAAAAAAAAAAAAAAAAAAAAAAAAAAAAAAAAAAAAAAAAAAAAAAAAAAAAAAAAAAAAAAAAAAAAAAAAAAAAAAAAAAAAAAAAAAAAAAAAAAAAAAAAAAAAAAAAAAAAAAAAAAAAAAAAAAAAAAAAAAAAAAAAAAAAAAAAAAAAAAAAAAAAAAAAAAAAAAAAAAAAAAAAAAAAAAAAAAAAAAAAAAAAAAAAAAAAAAAAAAAAAAAAAAAAAAAAAAAAAAAAAAAAAAAAAAAAAAAAAAAAAAAAAAAAAAAAAAAAAAAAAAAAAAAAAAAAAAAAAAAAAAAAAAAAAAAAAAAAAAAAAAAAAAAAAAAAAAAAAAAAAAAAAAAAAAAAAAAAAAAAAAAAAAAAAAAAAAAAAAAAAAAAAAAAAAAAAAAAAAAAAAAAAAAAAAAAAAAAAAAAAAAAAAAAAAAAAAAAAAAAAAAAAAAAAAAAAAAAAAAAAAAAAAAAAAAAAAAAAAAAAwwwwwwwwwwAAAAAAAAAAAAAAAAAAAAAAAAAAAAAAAAAAAAAAAAAAAAAAAAD/xAAjEQABAwQBBAMAAAAAAAAAAAABABEhEDFAQWEgUGBxgLDR/9oACAEDAQE/EPkgEsjQDJhx07AEidAIJvHBAqG0VW22eawi4+4F1MRQmmyMRYByirCagWmTqMUaNpQpIFn7j9OlnAcaKBMySgUe9AkIQLcnQIWr9gGgIVhG8glwfBBzV/8A/wD/AP8A/wD/APjw5AhShOfKeo3maSSSSSSSSSSSSSSFp9AQ/8QAJhEAAQQBBAEDBQAAAAAAAAAAAAERYZExECBAUCEwQVFggIGw4f/aAAgBAgEBPxD7bGGG6BNF4nAB1qABOG9EBxksB7YQIUMZ0E9hLmYA92OMAOqkGRvQYAQS9rBFgg+fTV05KELmwDuQEiof3zB95ryAfDQ5KbaAagDhNgpQYKC28dAPL21IQdRCIyTH0GieBOf5ERERERERERERERERERPKmC7XmzzzTZ2l/h+smoq+stn/AI6pSpxYk2SbJNkmyTZJsk2SbJNkmyTZJsk2SbJNkmyTZJsk2SbJNkmyTZJsk2SbJNkmzN/oCH//xAAuEAACAQIEBAYCAwEBAQAAAAAAAREhMRBBUWEgMHGxQFCBkaHwwdFggOHxcMD/2gAIAQEAAT8Q/wDW4b8oKzaZDhgCOosWsemhNUACXl3OqxRDoeTB1EENHbLY2BpeYn5f0UDVgepAAMtXyfgwpn9LzpqTfldQ0YCRJAAAQzQmtAgXdgJfnRS9qBi53aNHQK64RdXdxlMyekTN4Q0ZKpoLbwDwbgbs9eoiQ5+H6dovPn8haPcMs1KttWyADpAg2qKbkoQ+7Nf6ggG1WCy7AAnzAT1wmeEbKAUCI1S7XdcRQH4WxBZb3y9YHrmdvEAJSSK3EVItbJdYYEb9lrx+xJkvp/TkvADWm+U6BCJboVJZqyHbE2zMOrfUZ/XYUZoRtu1iY9HoPEWSWdHoYICTjY/NGykMozZmtvMKGDcAB2aVskMHnXRaeetIQUwAAEigYgRJEO66QncXgBQ9G9qtJiSu+uv22nH1qH4J2AXU/wCvVHRYCJlwusoEhIsYBGNx/XvyBdcqkgMrrewnGG8cGB46IfOyJ79EgB6s+RHkEIGW0uBDSpem5DzyZmDWEIWjTzYQEggYpATyhYcZnY/BD1ABlbdW5mgEIAzmjuPCRADqYBLEZwWkcjfSKOOafYSoUELIm7EDYTwOYJQHdRrnlDAtgo4gmAQ4Wt7kCzBQHASZyfqVATYEX11fGiUAGu6VNgAiVr26z36IWpoJKOHjBgdkgwAgd7liz6fgpxrYkGsUkKzgOkqEAAJa2jfFBUx2R1RCzYB7nXnRAHsSe2SAvsuvXdhYhDKRZohoBaDp6vspICBDJBe7Q3UAKOJqKbzMEMuyrz4rW4D7zQRZJ+57AQBf0fH6FBfAADrhvgdgCwffQDFQosACZAlFJVhVCyEWUcYwbttQSClziFTBV17yyPxoLVpLq58qAQGucEAlE9cdxDWO+IAjmy7wQC9xaoxyIBAneyzC6AARb76b3xUOMFe10owGvYSxVYBQE0phhAAl7t06UdBZgJTdoAgBoldpQ7AANSqf4fkQDI7PI02AACs18VK3gAA7JBXUVeyE3cu8KAkOpZ36W1oQABbd5+JgAhCgUiLgG9QcHIYBZG4dSECilaBw34QBYB4cqkaWVbnmVHjhi27nfoB6ZiOQCAJOi1/DgDPUhqADLqx3eHYhSHRDkcwDLTaEFI6HyPIBYTDSIj+zMYBXPIljGMYxibU/4FZYEyjqADko+iL8iup/W6VnoLVUlbaDdySoRLnTDcwLL7ji3NOpG8cAfRTWuCzbx9LYzGCBULntUy1QEzuadSN4xFit8WCrR5I0/dUpCwNu8pjAK52PxR0AcJ+/YWYjo1Y/VmUcAm4SoREpAAC8rSUdLQD8oaLtyPQBHbQCCPmoDAS2o4C8dG4Pj2wCEBfkMj6+ASLNReQRNLOeF3zIYhOsDidxxIu900QBB7LTim54gD2UziUhrAa5XY48Swxcs72GYwc7jiRd7pogCD2WnFNzxANZlx1U1ABfgpZc8BAAyMG8+HAEKcKlVLhx1u1GZ6gIGt7hINIgwCQtLpHImDbIUKsSjEBOgTVKIACX1GjHRL7zTSACX8FDsaAABcyzwvCdgAEIuyBuNwwACkYoZGAahCn8AFWKh9moMRJ4PuJQp13obbiDjPauptcAPdj6vAdZmgAkcpo2xwoEBATgohABI5TRtiUCPmA5qzOAVDKwhooWmwBDdq6k8AgAgYi2RgaAIVcU9dFAcMWiIusgwIejMqFzSHeA3XXiAW3JhKDWKJ/c+s/k+o/nHhYTIpjZrx1nYM1qjpUc0g7dgyPrZiijiloq7gzt2COmxUpAEAZS414qyQAibIwaQIM2dINWIOEDY7AQndqCQGgEY88NLVakwlL6jRldH34nXIB422oudJED11AgMyo4IAb745oRJ4hrb6DGJmEku+5nHqMC4oLlornhEKoNhS7M4ln6gED+VtS6KAAJP82KOeIBCD+VtS6KAAKmrBwawME95pdDykAAmdAUELgpAAugRlIaYFJIEheup+EgF6uuOZAUgRzaRAIO8BVSNUXvRAeYEAZNoltRuwJDBhSVjFeEkuA4bq5DAIPSK2uQmDVGrcYIBC9rTHDwBEC9X5LA3PzjOQW1OmeEfNkT34ha5Lb08A+fynuMDhhqSQtj3pUCkkLY96VA9b0pAAdUkfaoT6/SxCI4ZChCShNcBHvagIMjfkZjuGYc0d4FfgnsRMDqrX6+CMMj+yZ1RCrXdz1BMK4vb2wMdWOX/Rbz2Q7zuHAaZ1gjzxVt/gzSXrwUqHXMtg8JXxe3+5aVAJRxj6FJBC5yxBTiBC8aZ7zODGYi2ZUZhEhTnM3kAAFA4j6lCAF/pFtkCaFk5jT/AAeYh3ncJCrBSyhZ/slGnln2tRP96+ynEjPIb/xAFFZouiZNv+j0Bt1aW0l3HMCGeB23WAkquFsqvICGuPApbSkAL2pxNkaAArZH3Gj6gG37XqkgIWsU8DNnmIO8BSGCVVUPRKJLsY4BDGiS8eMG7c65CoYKNfnyyFgbcAh3ncKbJDp+iDkV9LdRlRY6nIf+WGAZlZfYY2m6WGmMYrBjpZf56SFtoCO2nCBm4JuXcBCFLqP+4IRXnVBDUuQhTqx4WKNX3iMBySC/PdCwQTcykTE1mEuyGeBidgOyOyPAuTu361Erlz+tAeWfwAIKhvjfG+N8b43xvv6MDwrET98LDz0uAYmFF6IY33333333333333333333333333333333333333333333333333333333i9EMXAMTCrET9sLDlFf5c903qBNFvPUuAIosJcAV/ly3Seg5JFWXLDl40CksPIieLEgirLlxy5IFdNH1YfG91gnnIBciATMMoQH2OtmtRTUAVeGhMlGmIAVKdVq5xN44CC7adTDyftTmmz42Yv6wKLwCvRVWLIRWcU70hBF1jJ1bjJXXpOu17IAIV/7Jnq8a+1OabvJS2mxuHuHn4CW0WNg9g5YH5ESEEJkEukt52TIJdZbmn5ESEEKrTIb1+dg+5zHHHHHHHHHHHHHHHHHHHHHHHHHHHHHHHHHHHHHHHHHHHHHHHHHHHHHHHH9zmq0yG9P9vALOtWPUUAN66V/D6CGRkK1zss5QYXH7lL3oBlM8dHsqAEBdppbh5oBMWgh8SqwT/OHXT6AAK+Bw1iVGQKJaaWo7VNkLCgesKmw9wgECQIn3U4egBxo/W8anwICaf1HH1TzAxRLTVcoWBCwZkOXAV6QDzXcvNcIBS0nlrUrIuOozMrBA1prrpW7AoTMDl9VdhUixjyONAGD/AH1Mu91FMxhSXsyEAkzF5NWVuYDPvEhqFZRTd7U/xkchJ2yps7rIQANn3c3AVXHVEd3Bo0GCqwaLXfMbwJovRqGTUKS+EHBX/gAFKnunTQqOUL8u6MmAAASERsLl4kwEm3wuS4jAulHUuobgLYb5RHGWAOc9bvtioAJqkpkjoqQDPtCLw1AAEtOvfqn4QNhoUXw34AQybLxM5QgCK3RsOpQCVArtSguIFwE+WXS40KSAn2XnP8qhIBhqaD7SDAVK6yUkAIAG6XeIIJACapKZI6KkAZcexvj4WocRoxLcxrsDAo4k3nLwAXL6KSWjcGFzM6phtPAofMvf54c8bqrz2MAgZi9Y9oAAPHtHA22ABIL9CPFBQgMpx/WYkgn2etRhRBg0FRiyV0ApAIDYWnalhFwOKoND0YwBBe4mDL8A4CAPZiLAwTqH4iR6aABL0MxGIPAU5kMWcpIg24HSwcj4tcflwHIJ7c6UdGkaAwf6LqzoQCt8XkGKTIABKbMNpHITQB4ABjERFhC/S3yvaiA7N7TvPdTYGdOqhO3EUEFZqVTV0QHATVHWsKp5fnqJdsYT7UsWw8msL/X8YE4FN64c2xgEQhKSqR1ADZwOIx6ywDC79BbBsigZBGdmdRFQAAG9ev4QyzCBZ7RohF8SwA/Cu7k/czQAH37NyAcsXVdBZUAM89FMFZHAAM1h5EAB+92B5qEBSkK72v8AyAAJhjJI0SGgB8/8XyUICvM6gmW3YYG/DbeoLUhAIG6XKlHpABPO+OEz6YMIUwQ8+9JsARnHg5AyKCiKpEq3pAC97k830ULBCeirLxdtQIVxIgD1Y8CwlYsU1cNIMAUyzHVuSbyLYCuzCsUAwCrfcBn6N5cOoxpeI/GN4LBZf4DE3tKHABpXVmsaKvDGfO31yAOK3kxpeDFQr8ESKhgAlIU+LnSIZef2AXWAIA9jj+gKAVT6j8I36sAHgEmDeaAWwX0538wgFuVCXlCB90y/loWQKDPJndduEoBnhth1X4RBf/LbUagMt2YLho3FACIXbJ3RjPE5NAAeajkXXfIFAPrKa4G8QADeIyl7rYIVRhuGFBJJQNmruYzCMuTbdXZVtEGtHxdCs0hkOMjPtGgABOWFUMrDNBQLM1LLYSyBCYH2/PDeADrvm5CiYF2aEa0NewM9x/qRlvfFCE0flu6UCQAJ/EBUSqIEHzZqWghABdmzozsHCAGA4AAnRYYXS0AAHtiYF89qAApSt+k3DCwARfj/AI1LsZ1uTkBCAiqYdM0Sg5VR9hXtnQWvpZRApPIOXCXAAixpJl0mIINgMLMDgMBAItp1MSeQLBC+D99oOBgMtdPY93qIZxEEZkUClAhqNvFGAgASdxMtniSeA2RdPxmNSgCWsVNHMUwD3pANoayGBsFEUIhoGDqUlkFIICnbkKh4cB8DLHJxTrSAkRbaSQO8HAAMol1n9KSgQ6uRDhwTPQ/dJUaAHz/xfJQgHHHlUVEEMAU4UG0npoFAfuCCiJDAyy03QGAAzQMVsFAwgFZrawOTbCmIvncBsaMg/EBOhNBCA7Tj9OAwIuu5XaLzmEAKASmEYSiBlXmyLHyAEfM4tprCUMQBpCh/grcBBm4e+k4AFf8AjnjvJFAAWumXrIJXWBO2zuk0woBSHb13gUMJ2XyjKgAIfb3MfbssHK69ZdXGb29YfTlBUYeYYXAiTGDgD6LObegN17CiDh0AwiN8G/8A/wDYtmX7SQHSvA8GAGbNmzZs2bNmzZs2bNmzZs7dpIDtWgeagCGet/XS8HgHjx48ePHjx48ePHjx48ePQz1v66H8jwP/2Q==;" vertex="1" parent="1">
          <mxGeometry x="70" y="55" width="184.5" height="410" as="geometry" />
        </mxCell>
        <mxCell id="HS_xxe3dGCpR05CBSFz7-3" value="" style="shape=image;verticalLabelPosition=bottom;labelBackgroundColor=default;verticalAlign=top;aspect=fixed;imageAspect=0;image=data:image/jpeg,/9j/4AAQSkZJRgABAQEASABIAAD/4gIYSUNDX1BST0ZJTEUAAQEAAAIIAAAAAAQwAABtbnRyUkdCIFhZWiAH4AABAAEAAAAAAABhY3NwAAAAAAAAAAAAAAAAAAAAAAAAAAAAAAAAAAAAAQAA9tYAAQAAAADTLQAAAAAAAAAAAAAAAAAAAAAAAAAAAAAAAAAAAAAAAAAAAAAAAAAAAAAAAAAAAAAAAAAAAAlkZXNjAAAA8AAAAGRyWFlaAAABVAAAABRnWFlaAAABaAAAABRiWFlaAAABfAAAABR3dHB0AAABkAAAABRyVFJDAAABpAAAAChnVFJDAAABpAAAAChiVFJDAAABpAAAAChjcHJ0AAABzAAAADxtbHVjAAAAAAAAAAEAAAAMZW5VUwAAAEYAAAAcAEQAaQBzAHAAbABhAHkAIABQADMAIABHAGEAbQB1AHQAIAB3AGkAdABoACAAcwBSAEcAQgAgAFQAcgBhAG4AcwBmAGUAcgAAWFlaIAAAAAAAAIPdAAA9vv///7tYWVogAAAAAAAASr8AALE3AAAKuVhZWiAAAAAAAAAoOwAAEQsAAMjLWFlaIAAAAAAAAPbWAAEAAAAA0y1wYXJhAAAAAAAEAAAAAmZmAADypwAADVkAABPQAAAKWwAAAAAAAAAAbWx1YwAAAAAAAAABAAAADGVuVVMAAAAgAAAAHABHAG8AbwBnAGwAZQAgAEkAbgBjAC4AIAAyADAAMQA2/9sAQwAEAwMEAwMEBAMEBQQEBQYKBwYGBgYNCQoICg8NEBAPDQ8OERMYFBESFxIODxUcFRcZGRsbGxAUHR8dGh8YGhsa/9sAQwEEBQUGBQYMBwcMGhEPERoaGhoaGhoaGhoaGhoaGhoaGhoaGhoaGhoaGhoaGhoaGhoaGhoaGhoaGhoaGhoaGhoa/8IAEQgFAAJAAwEiAAIRAQMRAf/EABwAAQACAwEBAQAAAAAAAAAAAAAFBgMEBwIBCP/EABoBAQADAQEBAAAAAAAAAAAAAAABAgMEBQb/2gAMAwEAAhADEAAAAeJAAAAAAAAAAAAAAAAAAAAAAAAAAAAAAAAAAAAAFmKys+uQCX3itAHVTlQAAAAAAAAAAAAAAAAAAAACa/S5+Tn6r/MxGsl+OetjrxxlPypS1uylMWCvgAAC70gXiuxI7HocrAHvvfFLIUzHJxgAAAAAAAAAAAAAAAAAAAB6/UH5d2z9E/nD1MHSqTKV8ie6fn/qRXLly6MOpxfPh2bjOTGAAAAAAAAAAAAAAAAAAAAAAAAAAAAAAAAAAAAAAAAAAAAAAAAAAAAAAAAAAAAAAAAAAAAAAAAAAAAAAAADYNdt6gAAPp8AeshhfR8AAAAAAAAAAAAAAAMhjTcIAAAAAAC2E1zzs1aOdpSLAAJq6RdYLJSOh3M4vo3+3nH9G/W05D0DU6AcC9dhiSqWuqXE3KNLWFHKcHeaunl2LpXNQAAAAAAAAAAAAB0jm/RiB3Nv6c/AA3tHeLTSLvSAAAC90jGAAAMnRObjpNcrI6PE04dHj6RvnQpOAoRcMdLEz4iRJ3PnI6jo88sR9rgAAAAAAAAAAAAAAZ7hSBt6gAN7RF3pAAAAAAAAAAAAAAAAAAAAAAAAAAAAAAAAAAAAAAAAAAAAAAAAAAAAAAAAAAAAAAAAAAAAAAAAAAAAAAHqRIxcdm9KK3tGtwgAAAAAAAAAAAAAAAAAAAAAAAAAAAAAAPom8kFKWjcCG1OVlaOrZuRym2enr9r43S2AZXAXOmdWOUuyeSm/Jcc56Bz/AKmV+mdW3jjc/wBDlzgzptjOHutQxz52+IOTut6hAQl8qZc6H1PmpWXdIg5FcpvbOTulfTmlqqvWyl1jrcUc5dW0jmzq3k5W7lXTl7pFgOQW/UsxywAAAAACbhZqURjbEPvqVsmV6jqdZy8HVx/Wm4v1OLe6JybrfRlyRs63PqA6tykdVx8u9nT/AL55cOrcpspcfnKh1HZ5L9OvSfDsx1rkeIdV88sHfNHi2I6lU6yO1xHKx3Te4FiJPoXKh12pyXPDd7Hw8dyiuRDpuzy/CdNm+O4jtlRouM79WeV/Dr2lzSSIMAAAAAG/j2dCWLe0Zqk/oWXzxfxvu6mHLH4ddb493XiH0fkaNvqFi9vy9+nX+gTAZ3F2KSuG6UJZa0EvYyip6bKMseMgE9slYW74VJa48hAAAAAAAAAAAAAAAAAAAbrSnJQczDbNJ/V8dFTvxXvR0XPx2fVXuJ9R5V9N42C50zsHt+XS6nlxZ3Csus8mHQ46mjrNFgB1av0kW2QoQ6RtctHVoGji+3HiI6jXagAAAAAAAAAAAAAAAAAAAExDjY156Jl5z6Ss7vnUGXE2piWuEhyHoy8jn1AS0TNxn91LDDxhG/d22W6+e7t51SqR3QRR/t3iyper/WD5oWKfOaZr/WTXiLFZTnuLouc5nnuOIpgAAAAAAAAAAAAAAAAEvECc1Y3Zl92POAk8UQAgAA3tErPRGBFQnT78B9+D6+Dd0gffg3tEH34Pv3yPXkAAAAAAAAAAAAAAAAAAAAAAAAAAAAAAAAAAAAAAAAAAAAAAAAAAAABnMCb+kGnhAp4QKeECnhAp4QKeECnhAp4QKeECnhAp4QKe8kGmtE0wAHvbNFJiMSYjEmIxJiMSYjEmIxJiMSYjEmIxJiMSYjEmIxJ4TSevIAAABsyHqEAAAAAD15AADLiAAAAEpFje0ZuEGTHImf0AAAAAB9+AAAAAAAGOLmNM0QAAAS8RNQoAAAABdtHHl3z2JCB9zGx6wa0TbOZ2WtUkM7gAAATEPMwwl4iWMgAAAAGfB9JPNg9nn3gxm9C7+gAAAAAMObXI0AAAEvG4pwg0lGgAAAAAAAAAAAD7uyJ4g/vwbeoJpp7Z9AAAAAAAAAAAAPh9jcmmAAAAAbG/ECXRAl0QJdECXRAl0QJdECXRAl0QJdECXRAl0QJdEDc0wAAevIzMIzMIzMIzMIzMIzMIzMIzMIzMIzMIzMIzMIzY/IAAAAAAAAAAAAAAAAAAAAAAAAAAAAAAAAAAAAAAAAAAAAAAAAAAAAAAAAAAAAAAAAAAAAAAAAAAAAAG8aK+65Slur5opzYK2sH0ry3axWktkIVfqmRroEaVFYoY1k/tFWWOENd0KPKausYV1ZcZXlkwEEtWiQaxxhHrvCkEsmmQ681wiVojiITFmKC6TSCNWDCQq3wZGN/ORKx7pT1o2CnrHAmIAAAAAAFm3KaOgV6AF0mOZizzFAHRNWiic36oL1ScYu/mlC+1yFHRvXOfRdq5HYS8YKf8LtH1n6W71Th1OKoO4TO9TB0at10dEhqoLZWcIvGShi06sALLK0UT2zWB0qDqI6BEVYW6U57lLx5o3kv/AL56Ok0DVAAAAAACwV+ZJXWzSxSb1zq+kJs6liKLM69wIHStmgVKwx06QW36yGl4teuQeC7VgitrU2yXhfO+ae9k2Cs7PqSNGRssGR/rX3CNxz/kqkltT5UZ9jIrcsUQQk62zn2GRjgAAAAAAAAAAAAAAAAAADMwgAADY1wAAAS0SPXkANjZjgzYQAAAAAAAAAAAAAAAAAAAAAAAAAAAAAAAAAAAAAAAAAAAAAAAAAAAAAAAAAAAAAAAAAAAAAAAAAAAAAAAAAAAAAAAAAAAAAAAAAAAAAAAAAAAAAAAAAAAAAAAAAAAAAAAAAAAAAAAAAAAAAAAAAAAAAAAAAAAAAAAAAAAAAAAAAAAAAAAAAAAAAAAAAAAAAAAAAAAAAAAAAAAAAAAAAAAAAAAAAAAAAAAAAAAAAAAAAAAAAAAAAAAAAAAAAAAAAAAAAAAAAAAAAAAAAAAAAAAAAAAAAAAAAAAAAAAAAAAAAAAAAAAAAAAAAAAAAAAAAAAAAAAAAAAAAAAAAAAAAAAAAAAAAAAAAAAAAAAAAAAAAAAAAAAAAAAAAAAAAAAAAAAAAAAAAAAAAAAAAAAAAAAAAAAAAAAAAAAAAAAAAAAAAAAAAAAAAAAAAAAAAAAAAAAAAAAAAAAAAAAAAAAAAAAAAAAAAAAAAAAAAAAAAAAAAAAAAAAAAAAAAAAAAAAAAAAAAAAAAAAAAAAAAAAAAAAAAAAAAAAAAAAAAAAAAAAAAAAAAAAAAAAAAAAAAAAAAAAAAAAAAAAAAAAAAAAAAAAAAAAAAAAAAAAAAAAAAAAAAAAAAAAAAAAAAAAAAAAAAAAAAAAAAAAAAAAAAAAAAAAAAAAAAAAAAAAAAAAAAAAAAAAAAAAAAAAAAAAAAAAAAAAAAAAAAAAAAAAAAAAAAAAAAAAAAAAAAAAAAAAAAAAAAAAAAAAAAAAAAAAAAAAAAAAAAAAAAAAAAAAAAAAAAAAAAAAAAAAAAAAAAAAAAAAAAAAAAAAAAAAAAAAAAAAAAAAAAAAAAAAAAAAAAAAAAAAAAAAAAAAAAAAAAAAAAAAAAAAAAAAAAAAAAAAAAAAAAAAAAAAAAAAAAAAAAAAAAAAAAAAAAAAAAAAAAAAAAAAAAAAAAAAAAAAAAAAAAAAAAAAAAAAAAAAAAAAAAAAAAAAAAAAAAAAAAAAAAAAAAAAAAAAAAAAAAAAAAAAAAAAAAAAAAAAAAAAAAAAAAAAAAAAAAAAAAAAAAAAAAAAAAAAAAAAAAAAAAAAAAAAAAAAAAAAAAAAAAAAAAAAAAAAAAAAAAAAAAAAAAAAAAAAAAAAAAAAAAAAAAAAAAAAAAAAAAAAAAAAAAAAAAAAAAAAAAAAAAAAAAAAAAAAAAAAAAAAAAAAAAAAAAAAAAAAAAAAAAAAAAAAAAAAAAAAAAAAAAAAAAAAAAAAAAAAAAAAAAAAAAAAAAAAAAAAAAAAAAAAAAAAAAAAAAAAAAAAAAAAAAAAAAAAAAAAAAAAAAAAAAAAAAAAAAAAAAAAAAAAAAAAAAAAAAAAAAAAAAAAAAAAAAAAAAAAAAAAAAAAAAAAAAAAAAAAAAAAAAAAAAAAAAAAAAAAAAAAAAAAAAAAAAAAAAAAAAAAAAAAAAAAAAAAAAAAAAAAAAAAAAAAAAAAAAAAAAAAAAAAAAAAAAAAAAAAAAAAAAAAAAAAAAAAAAAAAAAAAAAAAAAAAAAAAAAAAAAAAAAAAAAAAAAAAAAAAAAAAAAAAAAAAAAAAAAAAAAAAAAAAAAAAAAAAAAAAAAAAAAAAAAAAAAAAAAAAAAAAAAAAAAAAAAAAAAAAAAAAAAAAAAAAAAAAAAAAAAAAAAAAAAAAAAAAAAAAAAAAAAAAAAAAAAAAAAAAAAAAAAAAAAAAAAAAAAAAAAAAAAAAAAAAAAAAAAAAAAAAAAAAAAAAAAAAAAAAAAAAAAAAAAAAAAAAAAAAAAAAAAAAAAAAAAAAAAAAAAAAAWi+HG3ZBxt2QcbdkHG3ZBxt2QcbdkHG3ZBxt2QcbdkoZVwAAAAAAAAAAAAAAAAAAAAAAAAASdhpYuili6KWLopYuili6KWLopYuili6KWLpXowAAAAAAAAAAAAAf/EADYQAAICAgAEBAQEBQQDAQAAAAMEAgUAAQYTFBUREiAwEBYXQCE1NlAiIyQyNCUzYIAmMXDA/9oACAEBAAEFAv8A63T0bN0RGiZeSFSul3ZVxK162pD08Pj2tT5J/aqlDuj6fCNUnB7g+rdG+p0Do4SLOwow1tIuLnHm1w3V6ukxV9krw91Yk6Lnqh4dL5zVJFVfY4R3/wCQcN7xgQxLMERX4p4mgDtHwhvyy1eUXy0SWpk/adb3HfCnEWrdfi/iPtohjmYk6ifCtJDe5cMIf5z/AAJ1z3FkOVfcOoMp5SsrMro2j79vtIF/D30DLAN3Klx4yxzftSrRUmDGIwWqti05z8bWDMHr076oybET6g2eWT5LR3zS8vw0ScY/9egrlY2ZU6/r1rx+OteO+STNfjm9b1v78Y5lmaneAP300QUqs5eefqqkN2T1lfdvkPihrYskkzAebSZiPNpsxhwgOYrAYpmkUJAS4d/ObHih1V4wgsMcQxlO8KowDUxTHqIpzj94uXVJRL8QvgNxGoMTHpSIMLfEb6TxPVw8ZMFhdkqhN9Xw5lhNQjPp4SLEdtYgms8vbpE329MdwDil6TsKlYF6Lip7bkKhYV+vxQ6V8X6lrljrUVo+rut4d/ObFmjE8O3naXMYNfMdfvqpeXuvD7m+08O/eIcm5qg8KNczijRNl9KUgwb4jZr2C+uttQmWn5dT9UJyFPviFiKNtUVuIXRlLCLtCE4uITwtYuUIjq3bRLlc9LuwbtgVnENdcg0i21VDSqmoI2FmzBx+uYiq8PiBfVihb09UThcpJXN4919l97IxJ6qLeERtQFBj0Jcnq+I5V0ifbJuFQY+aIa2c82TetC2lXqf9mox3Pca9iWJ8OMu4XhKwHFlJhOX/AAHWvHcVBgjKwlrUjEngWTL4HiGxBivF0S6b4eUshHARYvqlTi1w78I16HYTV6EKPE6tVehlTi1w78Fqg7Vf7HEFQKoLVqxesGKKiUNbLprsfFqnECg+NBUauHL6q7Q/7K+xRPxJVCQN7uteO/4a6E57JL0o2B6404K8VomFNcvpn+hghrU+Gt9BxDUDUBvhBtQEOEc4v/kBn+hghrU+Gt9BxDUVNitvhyoRWvLEBBPHpqYAeJLGzroLP9rp0rMSVtQVphxT4jrQdv43/wAnh387uOHVnbIiqqFwKcSESpl1+K7OyrE4vS8vBnEaK80XlF6vhvEISq+FLWG7ThigrlNIxu6awjRVqUU43dNYRpKkA68Co76PDFaEmrV9QyqKoUaK7aSa3vfV8Ee6nGIRznsk80He85GSrjwFyM2Hfwrn51zfEiQnVPTP9DWP6K4X/Khfod39EZxDruVJP9DWP6K4X/KuGY6epqH/AEZ4dXf6PwwTm8Sl/wBzi3/AS/RFsCxfHxJqceGON/8AJ4d/O7nhN2ws6iv1RcRRSuoXGv1tY/mFh+iuEiisFeJrDuFqmtJxq84jLSs0l+S+LUDGevFwcUOUUl7CqFwcUOUbXW0+krhcNChN/c9Nipayre1X8V7/ANLs49r4V9zWvHb+/J8A/jMQCHksi2ruUWWNcpSApx8sjf35woxFpRgO1j+qHhudm5XpUPwQuSop/HW/De/x3sxJQ9ESzhH0yLOevjTvrVVT6ZlITWTKQmv/AFkyzLmt+G5lmXIEmPYWNiYtrQts57iUfO01PzsYpDZTooQCIafMlLXhvL1OBVjf3ZwwXYrjicPKuP3uu/zC/wC5lR+ZT1PyGDMWbxRVq10evIWDkOUxlD+b8X/mnoSqUXMXq1IJj4fgIp6rpIYerdVC1UaSpEFk5inQQE1YoBCBCt0wGtr4u7ergRTpqTu4KSl7tsVenGvtK/tzH7MpPyMuQ8jOVP5jvXmgQkyZvW9ZEZ1ttkbXXZluZc4WDzbfiQ3OuPRTLkTymd34RfZsLkG1LSCBF1bjYzJZaH89JSVY35ndfDc2hdWRa0rMqYhFWGGw9spaNzoqzTCiryM3OycRzgR79nd/nCxcnKLWW0Gh9VPDszPHeXlkPkl34zzhsWq6rKTZifviRdbwwpAJmiyjnVmzqzZtou82SW/hT1k7RvimxhGPpAqPYeajPGlunwYJljyJ9PgltmxhaIfgIEiw0CW18jHc5HqzgiwvJYuCHIxT1xgQwYpFl8OVPk/sQyQdgYMwS9K4JHI3aKUaMpbnL0/3VViRLYHf4A1pdBcHAa7+5y6hJgk9Ln01jW/HRus6at6nVdMMWzlNE9m+2ELPkJzirCZcXN1F0w2GGHMQjoZlg4r54hBz+lIU86X9jE7/AA9IE+SQYhnTGyKDE86QIMK7/D61mOnlroRbMWRyfDe/H473veeOa/DAM7X18Nb8ME1sIfR47zW/D9niwWGdcxkmCz/6NBARifIUXyLKWtdWjnVo51aOdWjnVo51aOdWjnVo51aOdWjnVo51aOdWjnVo51aOdWjnVo51aOdWjnVo51aOdWjnVo5tpLeaGkfGFSLS9EY7lmgZyoZyoZyoZyoZyoZyoZyoZyoZyoZyoZyoZyoZyoZyoZyoZyoZyoZyoZyoZyoZyoZyoZyoZyoZyoZIGb14e0AMmCsMxhD7tZvl6aX6cnwhHz71ry6+7lHz63ry79gf9Oh7cYynv0jFMu/bFvqEPgGPhH3PD8PsDx/D2G5f0/tlbLVoSY1bt2VVBdItTX6biogsKvqYMxXr4oO+3W7/AKj4R/t9sMfOWbZIlkuPmaWiXCq60Lpw+f3C/wBnsH1zK/217Melu9y06zZCIju38bQNqHQV7KMMhaQEz7df/Br4Q34w9vW/DfVQ3sJf4dteGyFhKPU/z/cNvwh7CM4ywg5BJ93rXjtr+lB8Az++LPzb9mJxNQMicOvuQpmYzzhQ1vfjv4wL94QvuCYKDfc2d53JjO5MZ3JjO5MZ3JjO5MZ3JjO5MZ3JjO5MZ3JjO5MZ3JjO5MZ3JjO5MZ3JjO5MZ3JjO5MZ3JjO5MZ3JjO5s4ZozHr1Les5s85s85s85s85s85s85s85s85s85s85s85s85s85s85s85s85s85s85s85s85s85s85s85s85s83ve/8At4qYQCWHRias6eWmy1pmNtK7VJ2s3WCpSl12guk2amakWq0xndUh5GcQmnBetkcFVW8hqA+pe1UjE+tWFC6KpIYQATYOWqnGBaIwpDppyCcE1jQTDu0eDAONBFKttxw869KU4WKgq4JUpIx3VH05QrxaOesmIRaYo4ppzdnWVnKtAVcygvhRBa15gDJYrBM0GuKceqMsmW6+Sola6bIaqp5ViwLQqdRPbWSqDaIvXyMNuk8j7iM08VUm3ga4pxmpiiihTy2wau5rKtJ5iip5kiQchE955oJbGDwNWOnwSLblAU+rEHZ42sC486NlF1xcqzryljIj6w1WGBzqxzXerZ2S+zDl5CNtK9ZVvrr7rmwQXRIpCzk4La7O00bg66p1LRvTz7vJM9uaaqhSrr11x/KzToOn61fl9wSHthqOqKlYXXONherXcso+WsYFEaTytbv+leUtCKOui3qJYvrbuhsKJhUbCJqTIuyrzXarovqickwPdNUlXGOVkpJlgqy9c0wkwdhuCYkbPZWlZrC1OSiB4lRYbG2pLRH0z2cLIZBMl57H7BGW4SISRSTLMms8fw+G/wAfQy2Zyf2oySESUtzl9lSKwctGUyOtQo2CMkDoZx1AV7jdZMOi1ZCmIGQzmqJhH2E3nDVEKs2oRIx6X+UermIFeGJavsxYy7Qfqo0hizNUzEFCEiRuK4deYYIg4dYqDL7NUEEOXDp4kcQmnENVMoJUphmTotTYYqRL1jNWYzXZj9UzVTXT6OfQwpmJnLVGhpWqiAeqYkolp49uPUzEKqpt6sS/gX76pPBazAcDCUbFUA826r16TIgqQeHIzRFJWZ3lYhbgmO0noL1XbMiYMu+qIe+kQVp7TtisbJblwtRjsEXPPYa2ogBE8AitigZ3Jge6adkMV3GSdfA1itOybZEWr1BZtF2xjBuNiHuMprSqbR9djYWwmk0NcPDqpQHqdFUbbXfBUDD0CMA2CQSp2C4VHXY9MNlAluWAdh/Zylmeeyz2L1BNNcvsK2jaUJS3OXxAcixW3mHt5Asx6/8A2LVJRmuzfT8ufT8ufT8ufT8ufT8ufT8ufT8ufT8ufT8ufT8ufT8ufT8ufT8ufT8ufT8ufT8ufT8ufT8uXdGakN+6I2DNaX5suM+bLjPmy4z5suM+bLjPmy4z5suM+bLjPmy4z5suM+bLjPmy4z5suM+bLjPmy4z5suM+bLjPmy4x6wZsi/8AIv/EAC4RAAEDAgIIBAcAAAAAAAAAAAEAAhEhMQNQBBASEyJBUXEUMoGhQHCAkbDR8P/aAAgBAwEBPwH6bdoA3V8jgHktiPLRNdOQsYXcvZeGJrMdx+tT6cWQXKaS6jSB0FE/FGEJK05nEHxE9k6xTbD4+xWHN2wen9CDd40bwe6054Lw1pn1mqfQIUAyCyk6quM68SQPVYbiYiRPXtfIyAQmtAN/v8jajkqwoKEj8DL/AP/EAC8RAAEDAgEJBwUAAAAAAAAAAAEAAhEDIRITIjFBUFFhcZEFEBRAscHwcICw0eH/2gAIAQIBAT8B+23JuI0K42Do7g4jWsrNnj9p7MPGdg1KrKY0jlIHqvG4bESeBELSFSzgWFaPPak6QCi0MOJ4LtZNwPQKlSNY5vzpyXZlQGmWTMc/cJlnDmqtnnz5uCnwDhfLd4AkHqViybjkzI4j2uuzqZFIvcIJ4RZUhLxwunGSTv2BYqBu7nRTbhGwrfROQYvuspZPT+rNkfOqeQQI/Ay//8QAUhAAAQIEAwIHCQ0FBgUFAQAAAgEDAAQREhMhMQUiFDJBUWFx0RAgIzRCUpGTozAzNUBQYnJzgaGxwfAVJEOS4QaAgqLC0lNgY3SDcJSywOLx/9oACAEBAAY/Av8A1bJJewAHjGa5RMTgKAMMgRVJeNbrSJS1nxuqtLcmaJrBybii44FuYaLVK/nEss0o3PjW1PJ6F7zh+CnC7vfK/wDUp8lsyuKLOIvGKETgyPl5z29/SFsY4M5yG1l90PS2ILuEVLw0WBBsVMyWiInLCm4aObQR8RdQVya3V3euGmq0vNBrEzs92SmXjAjBXVbBS+xYdYllNWhQVG/XMUX84bRudl+GOhe3L1qqp18/RDT81OMyYvqqS6OV3+xIfGdeblEbewEUqrc4uiZfjD700aNq29ggP/EJON6PcZNOSpf/ABKNrJyfs178olTam8ZxwVvbRKYfRE2/tF7CVttvB8Gppfhpn9kbKcbnVmj8JRVaUcSpZr6e6iqKGici8sYKsUDTgd61u115umCIARtFXipyfJSEK0VOWMCZX99aTP56c8LJyZ/vbibyp/DHtgQaFTMloiJywU7urtJxUBC1wUXm6emJlSWqrPBVf8KxLfWj+MTEzw+zGcU7cGtK/bEyFa2i2n+QYbNWZZySmG1I50F3mUt87khWtqS4vyezbjF69RVEVdKctVh82X0lhfPFdVRQhAR5c+ZIZeXhGESuNtkK7suI51c6S1+IKU9K8LbtpZiqGfPHwGv/AL0oukpXgjdOJiKf3/JbcxLGrbra1FYN18lNw1qSrywr0s0ybtKIrg1p1RY+1KODzE1WODm1LtNX3+CatzgDDjCtUj3mU/kL/dDk3MIKOOUrbppSKVW3m7qiJKglqldf7vdGGjdX5g1j94Zca+mFO/yz7tEzjiF6Iyzii5fICA0KmS8gpGI7KuIHPT4hw7awob5e8y6/nBEgoNVrROTv22NBXM15khZLYwCyDWRHSucONToNzYkPljTuYhS7yB5ygtO5iFLvIHnWLTuIZS7qAvlWLSH0dAgLB0JKcsWtAThcwpWLX2ybXmIaRK9a/hD7LYs2NnRKjGx9pNNoybzqIY88TIgikSqOSfRSKvsOtpzkCpCXgQ10qkKQARCOqomnx1uZl0Thk2qpevkjCOLME6nKB6LDMzLDYzNBfTp75k5gMRoTRSGGFkE4qLeVlte/Ep8fqyXQV6YrtOTmHDJN00LJU6N6PEJj+Zf90KuzmyaYpxS76hrTEbUR6/0kPtO8ZDWGmR2KyZrQdUz/AMsPPNshbKy4rhinlb2cCTiiTJFRWreSJh6xLG2UdRv5y17IQzUVZUvereSHnLEVsGcZG/nfpIDEtVgzphW8kP8A/ap+MMlstGxmH83HT8lIKVnJrh83qLjYcReuJXrX8IfSZk3nH0LeVFyVf5o2fuIyw0aI22nJG0Dk0ZRBQb3HU4m7DzD+0mdpNkO8FiCqQ8zxpiRLLnVE/p+EMSqZPze+fV+qfHR2c44LM2ytWVXyorOG0wwPGO/kiXIApJC2gslWqL3zJTQ3MoaXp0Qx+zUHJFvUQtTo9w/Z+2d6X/hucrcFYtw1yXv0NtbSFaosCO25VVdHLEbhT2XKG5MchuckHNueFVz3xOeOFNMPq5qLfkosFPENUJLVbr5PNHCm2H1c1RvyUWFm22VdI0twhz3Ybdl5d9Zgj3Wl4olzw+b6GSYAhuc+sFIbVbJyX8gg1SDl9nyxuOF/Fd5IZmHaqALnTqh99qqAZVSsS7zlVBs6rSJ8nWjKUnERC85MqQvBGXyuTecLXqhzC96MSU680OuD72O4HUnx603CJOZVhZDaiYkkeWfkQ4MsauNIu6Spr3rPC82L0v6oY/ZdlaLfhpl0fFxflyoaffCut7NYGaX+LBuvLcZrVV9wmWmWkxH8sSun95ugoqr0RxKdcHY40NvPFRwnegT7YpMsm31p/wAhUTWL50uoE1i2WAWR++N8yX7YXg7zjVdbCpCUmSNOY96MLakuKiupBp/LHCdiuCnzfJXshW3wVsx1Re/HaV54qnbbya91ZtZv9+u95r080NTYTdZ0izaqn4dx/aG0hUld3JcUWmfP+uaB2leeKp228mvdmJ1sgwmMiRVz9xYBkzPEbuW6GJdxVEXCoqpBMzG0nW3B1T9JAjsyYWZasqpLz95K7REzV147VHk5ezvFacJW2QC4ySMECU21FCAl9ybWYFTau3xRaVSGn5LxOZG5vo92okVWhTJf5YuNar32LKnReVOQovbo1Nt/d/SCaeFRMVoqd839d/qiTnpyTF5yuSeeVV1iedZkQk5mUG7c/XQsPTOEGOjtL6Z6pElMC0CPk7QjpmuZdzZcmHEbZr+UN/Xf6ok56ckxecrknnlVdYnnWZEJOZlBu3P10LE06kgCAzk43X33JM9Im5s5bBk2RReDt51Wn9FgZWa/s4UvLGtqOIyqKP3ROSMyAvtttKo3p9Gn4w/s+R2eNE3UmS4y05dI2fMuSDb8wbe6GiLklVWF2pKSwyjzJ2mI8v6qkNfs3YBTZU8K46lc+iJbaUvLLIm4VjjCpSi59kSX1ESX1kPvubVZlyOngyRMsvpQLDxrPSwqlVa8qAad/s1hyZrbfh7ydOkOyZto7L4d4CecTez5PZwHxhxy1u9EbMKiLR/l/wAcSO09nNC0y6NpiPIv6rEsjrILPTe9cqZin6p6e5MTAouPOraNOb9XRKTiouPKbjnVp2RM7V2oOKyytot86/pUg2Z/ZoSgW7pta1+xImtqbRRXpZgrQDzuv0pBsz+zQlAt3Ta1r9iQ7tOYlnJ/etl2UCt3SsOy83sYtmu21aeRu1PwifdfYSbmZbIGFhxuc2OsjOfwlAbfTEvOSmzR2m+775Xet+yGllZIpGY/jDoPoip6yr276f8A9e7FMueTkCdMKR5qvczyjWEdNsxbXylHKNY5+4D7XJxk85Ib2pKcyX9Kd839d/qjZ313++NvfUf6Th/6/wD1JEh9d+Z9zZu0Ws7Bw3f11p98N/Xf6o2d9d/vjb31H+k42ls4DEX3Mxu6v6RP7LnXhZeeAbHRXJCp/wDqP3vaeHLDmTuJyRNrwlZvwKpiqlLsxg+uNi/Ur+AxP/X/AJhEmf8AZ16klZSjbllIlUdfSacR5EJxOVd6JL6iJL6yJiZZcYQHKUuJa6dUMtbUJpSJqraouSL+kWFfnJ1WZNHa1xd0krxUGF/7eJv64vxjZ313++JnZU4lzfvoenP8odsWrTPgw+yGZdvjOHbDcjs0WrGWhRb0rTo9ETEhtIWkF1pbbEpG0NgzLiMzOLUFLl/VIcc2rMtS0uA8cVrE7sdXsNwzuZIsrtOyHHNqzLUtLgPHFawezZGb4POMmqslxbxrDz219rrKNCmSoV1ViYeldoKxtAeIOl3TWJ5P7TmyaW+B0uu/VIamP7PbRvMvfWtLV6ok02irS7Uu3rPNz/pEnJnuvzJ4hp0a/wC33WiQ3Ljo2mfX3aMtk4vzUi/gGI7yKeifZFJ8Zt0fMBBFPxhR/ZT1Pooq/jCpRU6+7MyExmNKonzV1/XTDjJ8ZslHvxvWg1zj9m7OmOFEblxFTTuzUpYDzL6aHyLz95VNYziwjJR5q96qAZCK6oi98iGZEiaIq95OOi6n7Re3QGnFT9fh31HDIute5RwyLrWOaPCGR/SWKprHhDI/pLFWyUF6FgHlFHVErqHmiwUw9u8gj5qe6tp01h1fndwQHUsoRmXRBQUqqr+MUxm/sWsKncV5Eo43y86d1lE0cqK+iHV5HEQvlxv7fwg+vuS2VfCjl9sELcsoV1WExEpXuG4y/gNoSoKImawTbk24orqlo9kGGtuXclPpwH1KfivetS4zhLPOhcloeDH5qxLP7SmHW+FKqNI2FaUyqsTIzzjio08LKYAXKqloXVE2cw7k06rTVP4hdncR6YlnW215SGGZh2VeN96qkdaIznll0w69tCYVsAVEQG6KZw5iTC8CCXGYxEDetXRKc8MTci6bks8qpvjQhVORYdmZp3g8o1kp0qql5qdMPOPOYMrLjc6dK9SdcBO7OeN2XVzDJHBoQFE6QuKLjAooDTjLn2RMKbuEDIekub7lhianX3gxiIURttC0+2BAXMYDbFwCpTJej5HaXphxOmvcluTwg/jBK06aqOdFhLyVadwuBv4YEtVEhrDjuK0VqaYX9YUizIs+42X/AAxIvy/OH86oFBTvQMZlh3ZTzdZkloKjlmPnQrb5S3AZUr0J8bjD6HTDzsvMFJC+VTJDtoCf0gVwQdbbewrXXrcJnz+tVqsMma3Szb/GXmrrG1n9ozAuSz7Ri14W7FJeLRI2OOLVaO3pd87lg3JgxRln+Hegk50ZxcosCT4o2jKmJt2aIMSey5U5ccK5SMdxq7ohtjZBMpMtPlioVtac+fJG15CVNoCmgbtVFoCuDmqJHBZgh4U8+h4YkhWiicsbTdAkRwTYIUrxqHEtLyboqy9izRrzXAtqRKDsxxkTRxzEQ1D7ONAEhg49gjwggWqYnL+XyQ1MDypQuvuCSZKmkIbJoLtN8I8n+RIETpu83cWXZJDIuNTk7sxtB/ykqn0Ug3DzI1qvy6Uu7xHPuWFA+Tuaxx19McdYzJV7qNpk0ObhcyQGzZTIG/fKfcPfY8y5Y3dbREzWLFYNseQ0OqwBA4jjbmYlpDpB/DG4uqMf+HfZ9vcaQDC9xzDQOXrgrJhp21aUGte48Q0o0Fy+lE/ODeSlomg+mvZ3BEdVyg1XCPD46A6JKP2QrR0uSmnV3AbDjGVqQR1bcEeNhuIVvX3LW0qVFX0d3Ft8HdbXp+Q0ZmFo6nEOLXEp3yCNacq00gZbZNDeNK3c3SvTCkS1Jc1XvlpqD1V9ECnGftyUPziUbXUW6+mAxPe3PBn9EsoZkXN4pdkqIlM3lz7PREuTrJi4jT61fQbi3MqpEg8S1dKfopU6Ahf2gqE2M62maJ8+GUn2XhDhI7z1qUHlROiNp8MBBbQEw92nljxej+kTfAUVXMVvipVdC0gpI7G5hxoDJeZxNf8ALCE0lG8QUBPmppE+MuwQuuGQGZOVyuzolImnGCOtWh8C1efE/CJuTW0EbMX7qU3ab/b9kMOolqFMDROZLomW5VggJ1aGZuXZVrllG0gYRMdlV4OCBol29TpiVu3Z1yXcR0bc1yK2vTpEvaw85W7hCCg23XLVDrpDC7Ibrc6WLQbupF6KfnDgBSwJkrxBMhHsr8iYcyOK398VlXkr5hx73Xqj3o/5Y97p1xWaeT6ARhyw4Tf3r7gu7eBZGHPGKKm75rSpp1rBOOcYu7nn3c8+5llDlgjeaUvXUeru5ZQ42AAiuZK55VObvdYy+R91wk+2PfFjfcJft/uNWMipFH7w8rp+az2x4ipdb6x8H+3KPg/25R8H+3KPg/25R8H+3KPg/wBuUfB/tyj4P9uUfB/tyj4P9uUfB/tyj4P9uUfB/tyj4P8AblHwf7co+D/blHwf7co+D/blHwf7co+D/blHwf7co+D/AG5R8H+3KPEKf+dY8G4cuf8A1N4fTFHUyXQk0Xvco3ljSNI0jSNI0jSNI0jSNI0jSNI0jSNI0jSNI0jSNI0jSN1Yz9yFsNVhZeTyZ8ouVz45hPpiS5cYebpSKIt4FmBc6d2kZfHaL7ibn8R9cNPo8vulARVXo75UaAjVErup7o60vHY8IHVy93r+PV9xkg5EbVfSS+6SQSK4SvBiOOJqWekSvCWiE6UcNoak59kJMg2/Lri2KD1Fr0w9JNlMY4t3CS0t4taRLftEn8SYG/wdKAPJEy94SYabK1tG92/06QeHcgOSThWnS4ej3Qh5DaNF/l7qe6AK6KsKg5Ai0tiYuqghRcobVlVQSWi3ckGQoQ2+cusC3U7yGvuq+4yriJxFJsl+9PdBl5+VSbabzb37VGGXgZEWWRsBlF8nr5+mOCS8rgBi4lcS5YOeweMNLLvm0hkZySGZNjJs76Zcy88PhMy4vsPFcoItlC6IN1iVFsFZVpAEvvVeX3SZeXRtpU+1cu6nulUi8mUVznrEwTtCrTLngMEMMRzprFG2kCvLWsA7bxUpSvxZyWdWgPaF5pckEDiUIdfjlE1gZVOPW57r5E7tPj3V7kjc6thjkD35LF1t4eeG8PxrwbaqPnLkkeAJHpnz/JDqiq5r3lC+OUH3SrLhB1LGZivW2McYPVD2Rxg9UPZHGD1Q9kcYPVD2Rxg9UPZHGD1Q9kcYPVD2Rxg9UPZHGD1Q9kcYPVD2Rxg9UPZHGD1Q9kcYPVD2Rxg9UPZHGD1Q9kcYPVD2Rxg9UPZHGD1Q9kcYPVD2Rxg9UPZHGD1Q9kcYPVD2Rxg9UPZHGFP/ABD2R4Z0j+3v8lpGsaxrGsaxrGsaxrGsaxrGsaxrGsaxrGsaxrGsaxrGsZ5/3vLn2BmRpxSJU/CGZdiQbbvRor7yXWi88bQJhyX8EZGrILvCFfRDanwaWbCVBxTSqJaulfnQgq426ijchNlVFgZaoVIMRD8m22tYa8Mw288NzTJlvFzQEy46y2jlyABEtxKnJSHFN+XNxn3xpD3k/XRE4rvBZQWVS9U3W0XmTlhQRxmxGcbFv3FCtKwyeI2809Ww21yy1jHN5mWautFXS4y9FIneFLLo7LsKQYm8PQfSkWOONje5megxtSVaNpwQYJQIl973016aRJK0srNo+q2KtSBVTVFhpwn5djGrhAZ0Uv10wDLdLyWmawJtTDEwGIjaq2S7qr9kPN48ub7KKpMie9RIYddmJdgX08HiGuefVBsvDa4C0JIkdnKyhi23c7zmSjcv5JDHCtmpKMqe8bLl9U5U1pBTXAkkVR0eD6+FH7fxhiZZDDCaaxLU0QtCp9qRLu48u0kwqi0hktSWtOaHXMRlzBVEeACqTdeeHKPy5uNBebQmtwp6KQ7KqoXNgpkdd22laxNNqIEvBXLb+ReeBdadammyPDqyqrQuaHqPMOOspV1oC3hghBRAQG4zNaCKRIK4rM1LPGqXDvCvRnAPOPMS4uLRvFKl8PtgCNoNu6P0Ui2YlAmb1RN4iSnoiclZCUal+CXmp3lVRGGDBRo8/gjXzsu2ClwmJYnQAiOh8SnPDbyOtPtOKqIbarqnJBvk41LsCtt7q5KXNBpNHL+DZVxu7eE91aF0pDswj0i4886qGYhqlqbo7uSw4uI0yDaVI3FygxE2jFJdZhDEsiHohh03AbacdwqqsTTUu81gMZk4ZZBnouWsNEpA606lQcbXdKHsOngmidWvMkMGCjR5/BGvnZdsPUeYdcYzdbA6kMSSvuy4q6QkLJlvENfRE4eMxKshMECXrTl0REieam3m2zl2rh3sl0ovVDalMS7Sve9CZrU+nT8YIHEtMVoqe7y7rZ1AQaRVpzClY2s6p+DmG3kbWi53aQzhTiy5jJA1coVC5NRJKQ2svYRI2iOm2FgkfQkUuXh9nBv/ABVur+US73DhlkbbFHGuDoR1FPJW2NnhepOtk6rvRcVYmMWbCduROD1Zo6K/OKnbE/L8IRoHHxeacIFou7Si8sFJtO4gtyhNi5au+ZOIXoiSZEvCNm4ppzVpSJeWemRlXJYypeCqhCVOblibQTXCSQ4M0SjmdKQJcy1jajrMxiDNsqobipQlMVt+6Nm4zluDMOEeS5IojT8IlxenAwBVcaWfZv8A5MuyAOZD90v0XPLkjAWaYfeKZbJMGXw0tz5aJE7OJNXmJuWs2LdetU6qRszHm0ljRjeuBVqN5aU5YefBFQCXdrzRLzkyZpLTTSb4agaDRfvgZUpgpsHJgXHMKqIIpVMq8ucTMqzN8OxyHCG0vB05c+XkyiUk61WWZtPoNVVVT742KN+9LuEruXF36xtpFOvCXBVrLjJfWJxW5hhJdyXMJdoJahCqjylT84ZcJFSaeHg9V5WwWvYn2RMcMcVttyXNuqJXWEFh8Zt0pht1bRVEQQrz8ucTbjW0BIXhVG2hl0E97kJbfziblZk8JuZBExLa2qi1T7IkZfhCOgEwr7zggtqbtKJyxKo9NJKuS4q2SEKrcNVWqU5c4nZhuYVEoGCKgu/kifZAKuiFG0DJykvNC62jtul3LSNnNJNI8TU7iuqIFREy7I2iZnQXmHhDLVV0huXu8MkyR0p5NqRwR99JZ1t1XAIqqJVpVMuqBQHFVlmSNgXFHjlQuTrKG5e7wyTJHTotSJlHDaamSQcFx1u8U5+f8IaBX0UCkjlzdFm1BJVXO2JaXZmEmHW5hXDtFUTROfqjaDfCqNzhC8Dli7hZ7pJ9sSjOz5hTcYUzJ4ckuKmSeiHP2k+So9LmxiLnZWNlyrMykw6M+hnaKonk88T77c1jG4JtttWLVLtbuTKJOeem8HDRvFasVSqNEy9ETatPMMTBzRHiPMX3N9GSxOLj2MTEojQuYei0Hk/wxKIk+3LJLhhmhS9yqieUOUOuqqlealUtV+QUIdUgnHFuMlqS88AhrVAG0ehO5Tk7uefeXzThOlSlS+LCba2mK1RYUizJc/ics08QIF6VQvK6ImHCelAZZoiujuh0JkmsYIGytWsUXL9wh64wkdbcTzx4sS7DZtzAuMEtuueFWGnm3ZaaDFRtbCqiF0xMOvOSsoKTBNaqg3cydEEytLxK3JYeIZiXeJn30GzzGAbV+WR5wUJtpTzPLqjhDjzMuzerdXVXjQrT1FXVFHNCTnSJDgjoPPTI8RC5ar0aQ480+xMg2tHMIlW37o2ouGhuphWbtVSp8kOo68w0LSJiER5CS+T1wjCE2qE3i4qFuWedWJdJd1l8HzsFwFWiFzLlDrgPMPYPvoNnVQ/XRE0gCyqYW8TqcVLkzTpzhsWXhcQmxWiLmmSQrwHLYrrpISklStt4qZZLDIq40bz1tjQFvLdpDxA/Lvkz76DZ1UYda4RK4rSXOBeu6PPpDJqYOtPJUDb0WG3jeYlxdWjeKVL4mG33GWUl6IbhllVdEh1uamGkFJdXWyE8jyXPTTKAmUm2HXMRU3SWhaZJlrE6bqykqjBCjltRAapyeiEYQmlRW8XFu3LPOjhYvMvsX4dzZLrHDKjhYuF01pWCavaRRYR9VIqIgrTthkmCbmgePDAml8rzc42irj0tMK3LFkC1UCy6Pwjdfl1ew8TBv36a9WkSTzDwOTEwqph142aZJl05w8YPy7+D76LZ5jEmky5LqSkJLLku9b+GnJB/S+Pyrzy2tg4iksTMk88jFz+M2ZCtF1SixwUHr22pJ5tHLF3zP8u5KzaP5cGVsxsWoFhWw4DhUJZhk9ORLq/jE4rM+LIuTROWPs3tmPPprBGy2vA8StnzYnxGZlyB1tUlwalraZpqtIYmnpvDVkGiNqxblVAGlvJAHMPpKuHNPENyKo+RXSGhllU2mGhaE18qnLGzHicVTlxJp1q3O0q7yL/iibRmbSbcmBwwsBUtGqLVa9UT6tmgzJ4eFUa+VnEwzKTASuMYvjiNXCJeUC5ffG9Nq4BS2Dj4KUBa1yGmkbOY4YM14e80aasBMsuRM9YnCYm0mDmG8NsEBUolUWpeiJ1HCorkvaHStw9kS70u7cSsiJhbmCiKJDcvd4ZJkjp0WpDM414RtvC+4ERYnHGJtJkn2laaBAVFRC5SjazouVbflyBtbVzXdjZzIFVxnEvSmlSyiTWccelSaRWx8FcjyXV3enONoyuOEqSui4BuN3jxaKK6wmNNq61wYmMbCtRFJF0ROTOCl+EJisTBEG4vhRWiZeiNpYLl2M+0QZLmiCVfxhlrwhtrs/BdJsKq3vXV/CFCWeV9FnU37La7i6JByT0wMsYzGMJGKqipbTkidseLg37PFvEs0ooJpEq006k2STKPukCKiJRKUSsT5BPI8rzBA0KNl0awJtzDDcrhUFlJbwiFbylTn5axs9xXPDSLxFhWrvoSppEwgbRF/EyAG5dBWnzlpDG03pzDSokbNhXIXZCui9V5XVTDs8nzq/JF7pXFklYFpV3BVVROv/8Anfi6ySg4Oip7ioSz5NgudIVTVVJc1Ve8F1g1bcHQkgVmnVct4vMncNAKiGNpdKf/AHFswaMWwbSpmUePB6uPHg9XHjwerjx4PVx48Hq48eD1cePB6uPHg9XHjwerjx4PVx48Hq48eD1cePB6uPHg9XHjwerjx4PVx48Hq48eD1cADpi4DiVAx+VVcknVaNUoseOezHsjxz2Y9keOezHsjxz2Y9keOezHsjxz2Y9keOezHsjxz2Y9keOezHsjxz2Y9keOezHsjxz2Y9keOezHsjxz2Y9keOezHsjxz2Y9keOezHsjxz2Y9kI5Ouq6aJRP+Y//xAAuEAEBAAIBAwIFBAMBAQEBAQABEQAhMUFRYXGBECCRofAwsdHxQFDB4YBgcMD/2gAIAQEAAT8h/wD626cXSheCFVgujo2YihXtsUE36rOTeDkgPEclzoDbZri5sVoqoICgvRxiS6yqqJaEu+l+T0yNlnYs41x/q+i/uaQsnVZApdFycDN7j7f8GGJN4B+ye18mWJ62WH7PROiJuYPKR6qWBOrlB+cAV4c8Femg7oOQYBZXme+Eka9njenHTWse8zx3zAwiTWdB9E0JH2bmRG0hLNXXUZftJiyKi+UB0E3UgnO4wjstUIjeiNsioc/ooGdql0pJ+/3xERoiXhS37fbBjUO+6u7Xt173B7vrsIsOeqavfWJiIngI73Ugjtt6fEV8BXQA8aR36++M1S11fxu77246XWPAojsPaqrPKv8AqnZOEDEThHpksT+H/wD3/wBh30tOQ79F07c9sBJ4dVLonVx76IEAadOuvxVSIEaq771z8P259cEkcXnzndcn03Zrq5iyEEiybI7XfMJXy+hjvwJfPpjLqDpuIHegQFZvea7+jTI1bRtpby6/wKodDU1qgVgSefGflP8AzAboxe7WtA77eP8AVwhAvf06iUR0imO1Y1aeXGGCiT66Jzw/TVbsBt1frFmBJMQVgS655zVkNkpR19z4ANMrgpoOCrwd8CRJOwsX0ypYy8+c44ySvJII4p1/+e0hryL9oORdk6pf1D504FeC/FCFTwBVyn8/+MCoKeCVcglRzSP+gRD2mKvobzRltiod0Knv+vLALeMEBV1OZyHrvroO6gFQOBs243XXHzmNUITY8vvoPKZWS2Sk8waaTa1XtKpZsAELwwAZ2g+TObqXoYgGzgo71J8NQJtFHeyfBykERK8bkzq/ECk7jhx8NNT7G8HJ5pTneJn47vxHRFtUHuJhhrUSkUfMiWbEyIEIFV4IZRxuhK+qYkknZgTxeecASGwQepx/mrJnAsHzrUs6rugGW5fcodp0+2QwGTwcnRwRH1X5tM4itB3p59HnjCo2ZgNQ4rI9OvX57gLKjd0ifRsHc6kF91E3SAEuyG2zdcQoNgiqjNu16+fm3SKzyGfRYOqcp1F0+iN98Wk4cievqcCQxJC1aGqB17j0MACcBgngZbOqu/phrWYtCbB4uE0pJDBkusYJkGXjq9ek1gPIoDSU0dikOinYypSjAgkOZWeevTp8H3ANaJt3W8QAjysw0xKJDRCEHtSqcnGfju/H5lu9RZBPb2wCHFNBwtheJwQPVWkEnECJIj0vmbTKjHB2I2R2b29NRzlNMbulOnWiHKM5AFHqa68Mmev+anwPVgWy+8Q3oSxMFTPjN6k7e8/5j7RTgy3XGoA8he/zVFYhbW9dTx1xEO3MgukhUjudTfb502wOqscb2+j04aOgA4q5KXTKynSvzuNEGxEdJgEHxrU76RPTZaw4wmUUayjnavsBSlM5cKOyVvtJrsayVtbQB7GXW/KHQ0YJqVIDWV3JbNt75GWN4HQss59Q7Yk7DNXGGhdJbOb3wRZwoIeisjubDsdHGpAB5dydMpV95HbOTQ1H2kxcAi6GeEjeGSB1bhytkEVqOFDl74AklEoTsL++BmQIiweymFE6oAHSGRqc3h8ZtV6ISXQFNdXjg56Jpoqpz0zi1D0XLwq+G3Puq+/+bxxhcX4Wz2XODgTst4bzLvWzk6mIrKSI7z/vXmHHyobIQF6t8bnebnGRaRbCdcOLzZvv/j78V6aDyJ1H/wB5MnG26FrywB3vr7uU34rq/wDDpP0FCCtumMJOSrbynb/6bGLXQL+2dpnvD7W5vIzRu7ZweMTXjrh+wPvlB26uD78Ps/8A4JCFU6Au8ByLy6vz8ckgeID9XH5zj7te6n0zbxnZuccJZfviU8eErxUv3zpZGLHQVb5R9sep0dVU7b2/E7aOcSdWnH/31+cR2a111vF4O/xRGiSB2TSut2zp0cgSgtasSCkC1Y+58Nh7mcmqO6PJwubgjs1rrreLwd/iASyqGwdER56p+ibptTRvGgwVt5NCPfWPPMuDFKcTw4nSgGJaJwdAeOvyUMhEk6+L9fV+RDcCzQaCpCrd9BytJdNR54Aoj7T9IQ/GyU2XozNh55Kimyu4iJe6dP1kCirry4AQE1dgf+/nqkS7tW/ME4FfZdk6n3OiZoC/Xa+y9X0en1FRDlkifN94/dhQu9AMEHGgF3TRp4xLTJg2AoUC0CJrTj2YpnrOXmR++LfOEhRi89D6HwfCNIaFgGeI/Vz7x+7Chd6AYIONALumjTxiWmTBsBQoFoETWnA02EERRPC3s8ZeoWitACAo2QiqHVzeBkQeFQzcqOutyRPy3SpTiyL64eOooLIvM7k5NPBxgLI9A+mmjLqjy+uGLgCAFBNAPNZeTE5EY4aRGiPHSTs84ehinQ2DUizQURh1/E8ufY8UUVIMg7HcvBzlUT9BKGiLwsg1iUeIoFKEVgwrrXdNtcGHkCGIIb7LB8YkKBWJ3FBTB4icaDIQgGCjFSdTxgQPBgc5oO4V8GKjyDuqsZqEzuvgq3rZZuGumqHyYG8kkTuMeVj93NPB1s18nXYAs25WHswkGjSj2tLzrEXBURRIizaAWVbrKw9mEg0aUe1pedZJYJJAZIvXTaAPKmB5zZgnRYvPDaXhDNtHjAXe96akKMjrZgHvIgd7aCw6Rt0nOc6CBFts0XSTR5cEPR4adiDfWw54ecpcLF1RE+zPY/WEemw693557Y21dXOdHObJHhy5X9c4tBpPDf5cr+uF2Po65JzzjYWp3VKP0vqDjNW6hF+H1HT466+b7x+74E+y4fasfvfwEGT3hFOfEQ9nfPvH7vgT7Lg3Fk1KIj3gwoMpkmKHJqhUNyiwpOpjrboq06ghH1geeqIxmuEIZucQ3wZ91/f4c427Isy1oODt72tFAhKojrHHjNZFb6xJesz8Ty59jxs3IBEA6EcnfEmnfLWG2RgHlMDHRPc6UdeNhz1efz/Bn4Hvz8zziwyQPAIvQop5cNXAk7Jr223faZwYoM4rt9A37Yi3YRKa0SQD74OEdolkSK3TTtHACdaAYmjvu5yjSxwB5HU2a0h9OXgN0GIqXAGNVm9yrHVjgDyOps1pD6cvAboqa1ztVxt3WhZp3jINy10Ca0nANWaxWfKtmoqCqOxAYxdaUDFVUoZwA70m+brLJCrIYGqpSNWUieYHPs8deh9Ns1c7EgO4eXZKJ4e36qEFVJ5cMt1eXV+X3+ANnQZktryKz6cZOInZEvQlb1qeOuN05LA+05YsV5th+9JlPiXRie3RwTTqF+EUiSnmgPQd+uOW0jJUXfv84IoCjodXADStQAbeJdBC9VnxGnEco0GB6h9QbqPxSyg4RkxNFVd7twoG8Np9LPl5YsiD7HPzctWhZ7PHyP8AITq8Nsg1qXcfLZxzgoOcXfpcs45wUHOLv0uDVGh0jG5OWjirPriEqB0jN40LAaUX74yTDljXqYGa2ykbHdT3wEQIHaDwXrtq9a+n6orFn2j/AMyi7qnoOvsfDlew3upP3zgWFK+T5wU6PJuyxlx64DmNg3TZ977ec4/T/vwXCB6dSfcMYrQfXcB+5/vI2fis6rm/3+Av/XWus4dvCrnd3zY/tnVhHDh0BlVvZ9NbcHnqQr7mKi7W5LHn4Cy/pN4z5RaFTMFAWq2w2hC9eqBkriVtqarwbnXoCriwEVBSR6qs6bOOSOU3bLoG17oc5LA3eAya1owC8el8zB6GizSDTcPVOdYKPj0m1BSBNrrc5yEdhYtezpOuZqvbBYOwpawUaNE89sphhtaKDSrnnXLiC+RtFgF2nRuafdMhj0yhpRpunHHOaBUARiS3VY985pMoCsKQ+Ee0Mbn8thK1HfAJRhbTpUsdcV6f6e29o+j/AHnk9j0d/wDfhG5jenITvDD0rRrPCJ1yQog8a5yd7UrF5jRPTyyXOXGthffLp7C1Kq34OYwdHtI+9e2PD9iQU+q/Ka1JllRyQkhHfbHU2HwLYLVJ2QdvQVWwQAnLHaD3eOcKIttcdzSsRbsCdckVyBydI8c+2LRtg0SqPHNZOmrijxyaTSRe3FyQ8FpHQKAO6uuncQVnCPYRgaOo9eMhf3JSVNXQCDtVcWSQyrNHiwRTejpcQxiY9qcFVi9R7mU7/UjxUKCro6nvmni1hoUnKTnw4yIWEBBrdQpHuYuTmOxTh7uP4xrdqag4PEnA0fX/AE9mzU4wmzS4+H59j4IrqFeRE+5mnQScj1PJ5/rEcgoE6hz+eM4K6xC4waoLZfKfvlabAl+A6y3ALwx7qydYYt9V+6rfu/70Jvb+w/nUMEaK12To/DiuHF5z+7Z/cuAII8irmsWHpPgKjBJqnF7vAer0ciAQ6JoOp05fM7PzM2jC5w2djXVziadWfUdYMUiI2jvXTeEiJz0lBZ1i5IIBIVKgrrnQ7fJ8LJjUIV44QKy286zh6bApRrEKCS+Tv8ESIjV2MvHc9uuMtexW0IeJI7vqfDeQ4BZtdYmw3qgQ2Gm3trrjOsErUiE5DonwFekFZVSb9XFKrB1ywgVK6qS6+HS/iIaCrvsH2+Mg9qNnAFO/Dff/AEf1zMPD+b9eV9bp1p3H5gWo6qjq9P3xCLhQ78v17DpNwAUlNUNVXbfmCbcYzgYv1JgYATQaYSuH7vpli4x+KofT98OHCduoU+1vqGcINSgrpaKEF1RkG7MwHARgjFN1lmrBymVEpx2c6K/IATSgaULcBnQp7RlAaGqUIcXamEhJk1CAs8ynu2mB+sZ7URb6bl6XAEhuAPrDQqVCbMhv4SRA90K+VwQ0pjVQCKnVYfXEQm0AI89pO/ugMmRp5AcCedUYCm0yMKcQCCGuxr2wraog0oAAqC28TEjTCq0Izcl7xUyHtfATgpzmnLq84lWXAkdEdE5QBpGuT4IMEN3Y+9q4ExhFLATZU2A3xf8ASOAfnNPR/PXOIi6kb68/Z9cuVA7xv03nR+//AIziFXeH77w3ES9R+vT6Hrjr7in7nT83+g9YHYwP/PD0xVqvB19CYtFTfb8nxRq1PKt+PIGDW7rtikBaBrfTEoVRwjsystJJSRHlBRios4nxSqaNxmu2DbJkYcvKFna7Sx+Io0YnD2yqq1V5u7khBA8lxKpKbjNdsssdPP8Apumd0H+2a/8AkfxlgGeS59P/AIaAJXQ4DveA8ucQsNIg9N9PsOAhZ3I/YDPBw8HDwcPBw8HDwcPBw8HDwcPBw8HDwcPBw8HDwcPBw8HDwcPBw8HDwcPBw8HAJC3cr9xwAEg6BToQCeqYG0Tcp9xNPyqw3v2MM6j2NZLu93Pyrn5Vz8q5+Vc/KuflXPyrn5Vz8q5+Vc/KuflXPyrn5Vz8q5+Vc/KuflXPyrn5Vz8q5+Vc/KuW7PRc6v1MVwR/S5+/qwDq3sG8VJJ7SHVe3Y+vj/LtMXy7Xd6J9+HOLqC9fh8PRO58dK0dfBhgaB/mHB9ntjp0P0WHaTpdEF3yoez+ppBXAXXtklEic/KmBDEUDl10O/6lA1Oo7oHwVH6/GC9f2fq0pBh41/g0B6c/osF4r6/wP1LD/NKKCkoAcHfClLwwaiAC9LvvwTB8muiRQIHbZvb43Q/zbCbQFddddulb/C2w9iaK8VnTp30+GyNtbeICpF34zQeQiQNpNOyiTT4/Ub/hCp/c+Ikex+oK2BH0uJ5SBCQZJhW18Ju9pv1mU8nqNBenOsTLsgDK864wZ8EGkFPSvGTo9P1BfTP3/RsV4oth9F+n6j/YVVe1KWi7n/kEh6yAQidVX3BiCpFFQIlQvPSSdbiaJftbts9+PGEM6pcygggF0M1rvSTpNgTpZZzJOxi4f+aE5BVvlC6On6ggNUe2sfd+nx9o/qIWhHU6Oe6GwXvOMNtJpM5bPzjNEEoppeW+msWWwVJeheMJ6LegJbMWr5/UoHVT9EMIxTgeXg3Hw5ePkD0f8xCGp0S17GS/GTG+HL4Hfl+Mq3nj1/ztSOtPf9J3goSs6Dy+Hk+uVC/hqHenHvP8rfFOQid7xg0IxpL7vl88duuIyUdtte/xs45y+2Pfo5R2N/ylDaw85Xs9X9SyH1sD7dcedPkfdP8AI1atWrVq1atWrVq1atWrVq1atWrVHY7uA/bHDV2VPpwfPyZ6HPymflDPyhn5Qz8oZ+UM/KGflDPyhn5Qz8oZ+UM/KGflDPyhn5Qz8oZ+UM/KGflDPyhn5Qz8oZ+UMt/5M5V7n/68YpiAnabqG67zeJ027AlyKE3NnDihVNdruBoCKDQ6GFsRqNIpFUsYNwkgozPrEdREEnGdMXoafKl0HbkTAtCkIb0QQs0KXXfLCkAGYgDunVDZUuMJwtKrxEBjppl98UEtepBBBWi6Hq483BppEGXS7EHTqwVCKSylQRBEvCdTLR26EDYArBKoBTeOeuT2M0Agjdjya7CVpaOZ2gGh6AdTRlYoQtLrQgDUHTq2YUPtoRAoIlGJ1HeOErLAFLoQFIUVMiEGZAPeug84ja80ylEO4xBNO8thxp5ilAdbg2dLrKSfSLoSCkTaw2b5iam/NMb8rWk7UbAANSPfGHs2rLhVh3wyZPpJV1FdNsAYAbJiDAKCDUh0NgdBDEcXhgaIKbnL1N7xbsfJCgaA7IxY5stpgEq9SDUFSOdkjTDnSyJNdTFbHXEnqnRFt6YNqCSMaQg7DSCMd4r2XNE0uwGLGLMWnmVGVWLywAVU1kR8CqA2wCJRicIlxfr7iQxSCAOqoXrhvK1AB2aNc7xGJGeVvcW3r2yrwU7TJFStvBxzhPc2kkbOuO/bzrAyIaQTRJDnoppqTEMsSBKqgjG8bMCCNsEFgBVm2cHOIjN2o1C0gpWzjhaYLG+zPQILNYHI3pmnZnYK6ICqvQHFQqAS0altEjNjccJekRAV0MIw530yJplZCgcq04Bt11gycFjBiCgkdIglM2CdhprqaHe9fvhPc2kkbOuO/bzrIr4tgDt2AxdxZ1xIjNq+yOwaFF7byPqgYLSALAOwGt4F1zXRdkGy3o7NcxNNMoIwEQCkFFjlFpu6IxPZP19qz+ESiJWJ05msld5H1UzkvmTrMUCbM60CUeiCDHeLqxKrNUCEQWFRYYakCBHkdklNzbHjBznCCQFkNlFSL1DEsAMEYAjAab1x4wLbPUc7YBAI7piTFAuOXKwIEaMeHuZrK8EIQCUAQWWPcykKfUjesjY8PTeKD5SWJaFAnCRE3rB5QKhIjCyxd8EuVIoa9sUA2oSIhOQTePN1iLBu9MLQ2q4vGKnON0LdhSnmEXY5UUEpaq7F3GKdQecnU6kIRIsl4TV0tZEbHarYqQVtFUhLnDusWs2TQjRg0jzgT1xygAX1Cvlw244PAKdYBTVEmL+QQKcCVlPTQXriuXPlCugIh0rlrwY90jD5JusgfI4BOr96IDxvRdXFtEGEQb3Na3uY3jAMgBujdUVWsMEjZl1Qj5V+aPzgBT12JnB19YeTKt9HsQUjT0EJzi5NwQW9IAMUSsSZDH7SXZDdSMF2M1k5MCVY0Ba26OTmZT4Y3UsSdBFBg0wsfsJYgutJa6ZrNa4FfA7zfroiHhqspsl3gRpFHXxQUDsG3Ui3LAqZWIFL3YHXEFpbbSEbJyJL0wABYwiEhRNxjamsWP5IpsgUGBeALMO1KpdMRsnJJbrKqkPhdZIU4a4TVx4dmHPoDWzgqNQaGmzncRIgvsG3UijmiUQ16l2cygx3uAKwBgBFBgRUKroxxnQ2R0w2g8hveIOihooIgvHYbdSKPwqBahJNA9FrHWVQSNEQWERK5E3p4yidJiuwLBHaILTepnIRGwPmJQsaENSm8LnAatYq6o8KRF64rXMEFFahqt3Nf6FBIwj2ThxNa7eUtX3XHdyl7iw8VX3+FITQsLwvP7fb4pSqlrWq/IFLQUsDg8c/d/xkXhn5EdPsmILSpebdv+G8Io9JEuo29mHO8lhxkqqIKxTQsGvXAABTqHl01HSIRGzJAhCyqhuoMLvXR5yimTdGgtABWjyALEzcnOCWwKCjHZRjvB14BTLsQUF5QATeVxoUkUe5pPOFUkVElC7AQWKLFMmveAEhA4C2ApU1qKIsEKQAyAux6Dw2asiID1U0nURo/wDcIfbByqKlAAIq6R6bw0O7RbBRFF1SlyLGlwqCKUXjXObF5c2k1FddgIRrrONWHQ7dFAkaWklxKhJFStAjONbOMSKooVMsQEHSpBT1wJEthZNTihvtcTT5SosuwIrTlnMzdvpuAlkUapOm9TFDRYICqQDbNo3pN5JKtIdixAQdKLKdN4mGHJOmtQQGpbHjpi4cvLJibBETYnUxuYDVIYpBAuqoXrifzaJGhBVl4OjlEiBAoHbR2oOuMqGHFAEglha1CJMuxfyGqQVHkBa8Soz4EjpbSlA42WkmBEUhTcWRBIG7OSUc0thqr36SSdbz0w0p1opWpyFp4ZdWgkxk47QI7u5Rp1wjnq2xDsGolTO+y9qtKdPhtyls6YKeCmqiDBTqM7Li5VlZNZYgILFFimLJt6pbiJ5KbOnTDCaBQk1f8/Rr/VgO2Ar7GTBY9MCICgjRjw3nAmhTgpYEoHQocKy/DkpSaKBQRFdJZ1mQCqFOulCdGuW6uLljWO0BaTpoUTZMF8RAIoSgXV3C6plxb1ZWCdGElRiqIXZBDlQCChAKpG6SZTTlpEQoUSiajEZrAGnwidmXgV0O5MEPDEWXwmHBmz3yElADrZjbqBZXeCaRFypXQhB6zxvCghkrYildWgHWqbx8Mxg2bYKUkStXsY6LFEEjOqYaeAQ3zjUkMJ0IgCEQWrbMpMrUu2mjWk11rDOtahA7SIyiPrMO1KpdMRsnJJbrGnkoiLKxmxEHil4xnYZINogCBILVHRmgKRl9CSnDvRrOoJXddskaHRfOQ/FjJWwQAyjrZvpgbBYWQ6lHhB2Jq5DMHR2wEKXqK1ZhDIG0gBU084znvrNSDW6UWwkRpjvWbOJcJEphQlRkXd1iI+bRRQRqAlWbZNClyIgtU0USUpvjIyg6wqkrbE3LqxdYMraBIZBVFVgGje8kQPg7UWgDqQpyqatui2C5eby4JaECpNW2SLlUEIDzNmCERGrbWxkDgWsaBhpNqI4CUEbLbZqXObaZEmnR2skvX/UVCcRdgAPoT2xUL27oBfcH0+dYY3nD3/RS1GuIMlBGPkjiTVUKq7WvL8iQ5qYn4a85GEUCADzAAPKG58HxSvyDPSg+3/8AsWydKAWXQQ2rPBB3wP8AYf5z+w/zn9h/nP7D/Of2H+c/sP8AOf2H+c/sP85/Yf5z+w/zn9h/nP7D/Of2H+c/sP8AOf2H+c/sP85/Yf5z+w/zjOlAJZpI7Evkib5D/aVj4gGl4iI8ds87N52bzs3nZvOzedm87N52bzs3nZvOzedm87N52bzs3nZvOzedmrHxIELxAA57f/o//9oADAMBAAIAAwAAABAAAAAAAAAAAAAAAAAAAAAAAAAAAAAAAAAAAAAAQQwAAAAAAAAAAAAAAAAAAAAAAAQgQgwggAAACAACiAAAAAAAAAAAAAAAAAAAABTghBRCgAAAAAAAAAAAAAAAAAAAAAAAAAAAAAAAAAAAAAAAAAAAAAAAAAAAAAAAAAAAAAAAAAAAAAAAAAAAAAAAAQgAAAAQQAAAAAAAAAAAAAAAQgAAAAABTAgADiCyTzRDjiAAAAAAAAAAAAABCAABQAAAAAAABDCCBSABASAAAAAAAAAAAAAAACABAAAAAAAAAAAAAAAAAAAAAAAAAAAAAAAAAAAAAAAAAAAAAAAAAAAAAAAAAAAAAAAAAAAAAAAAAAAAAAAwsgAAAAAAAAAAAAAAAAAAAAAAAAAAAAAAAAwBDGsAAARRQAggQwRzQxgQAAAAwQwAAAAAAQCUYyUgAADgABBBBAjBAgCBDDCAjwgAAAAADwQ3FdMIAQAAwAwQggAAAAAAAAAAAAAAAAAABAbO3lWgABCDCCCBBAAAAAAAAAAAAAAAAAAABAgBCDcABCDwCyhTwQSgwAAAAAAAAAAAAAAAABCQxAAAAEEABACACAABAAAAAAAAAAAAAAAAAAAAAAAAAAAAAAAAAAAAAAAAAAAAAAAAAAAAAQAAAAAAAAAAAAQAAAQQwwwwwwwwwwwAAAAACgAAAAAgAAgAAAACASAAAAAAAAAAAAAAQAAACgAAAAC1UEMAAAAChAAAAABSiRwAAAABAAAADAAAAAAAAAAAAAAgBAwAAAAAAAAAAAABgAAAADAAAAAAAAAAAAAAABBDDDDDDDDDDDAAAAAAAAAAAAAAAAAAAAAAAAAAAAAAAAAAAAAAAAAAAAAAAAAAAAAAAAAAAAAAAAAAAAAAAAAAAAAAAAgQAwAAggQAwggQgAwwwQQAAgwwwQAAAAAAAADADBABABAxABAARACADBCCBABBhCAAAAAABDQSyxiAiQRxxRywRxAiCQgAAAAAAAAAAAAAAAAAAAAAAAAAABCAAAAAAAAAAAAAAAAAAAAAAAAAAAAAAAAAAAAAAAAAAAAAAAAAAAAAAAAAAAAAAAAAAAAAAAAAAAAAAAAAAAAAAAAAAAAAAAAAAAAAAAAAAAAAAAAAAAAAAAAAAAAAAAAAAAAAAAAAAAAAAAAAAAAAAAAAAAAAAAAAAAAAAAAAAAAAAAAAAAAAAAAAAAAAAAAAAAAAAAAAAAAAAAAAAAAAAAAAAAAAAAAAAAAAAAAAAAAAAAAAAAAAAAAAAAAAAAAAAAAAAAAAAAAAAAAAAAAAAAAAAAAAAAAAAAAAAAAAAAAAAAAAAAAAAAAAAAAAAAAAAAAAAAAAAAAAAAAAAAAAAAAAAAAAAAAAAAAAAAAAAAAAAAAAAAAAAAAAAAAAAAAAAAAAAAAAAAAAAAAAAAAAAAAAAAAAAAAAAAAAAAAAAAAAAAAAAAAAAAAAAAAAAAAAAAAAAAAAAAAAAAAAAAAAAAAAAAAAAAAAAAAAAAAAAAAAAAAAAAAAAAAAAAAAAAAAAAAAAAAAAAAAAAAAAAAAAAAAAAAAAAAAAAAAAAAAAAAAAAAAAAAAAAAAAAAAAAAAAAAAAAAAAAAAAAAAAAAAAAAAAAAAAAAAAAAAAAAAAAAAAAAAAAAAAAAAAAAAAAAAAAAAAAAAAAAAAAAAAAAAAAAAAAAAAAAAAAAAAAAAAAAAAAAAAAAAAAAAAAAAAAAAAAAAAAAAAAAAAAAAAAAAAAAAAAAAAAAAAAAAAAAAAAAAAAAAAAAAAAAAAAAAAAAAAAAAAAAAAAAAAAAAAAAAAAAAAAAAAAAAAAAAAAAAAAAAAAAAAAAAAAAAAAAAAAAAAAAAAAAAAAAAAAAAAAAAAAAAAAAAAAAAAAAAAAAAAAAAAAAAAAAAAAAAAAAAAAAAAAAAAAAAAAAAAAAAAAAAAAAAAAAAAAAAAAAAAAAAAAAAAAAAAAAAAAAAAAAAAAAAAAAAAAAAAAAAAAAAAAAAAAAAAAAAAAAAAAAAAAAAAAAAAAAAAAAAAAAAAAAAAAAAAAAAAAAAAAAAAAAAAAAAAAAAAAAAAAAAAAAAAAAAAAAAAAAAAAAAAAAAAAAAAAAAAAAAAAAAAAAAAAAAAAAAAAAAAAAAAAAAAAAAAAAAAAAAAAAAAAAAAAAAAAAAAAAAAAAAAAAAAAAAAAAAAAAAAAAAAAAAAAAAAAAAAAAAAAAAAAAAAAAAAAAAAAAAAAAAAAAAAAAAAAAAAAAAAAAAAAAAAAAAAAAAAAAAAAAAAAAAAAAAAAAAAAAAAAAAAAAAAAAAAAAAAAAAAAAAAAAAAAAAAAAAAAAAAAAAAAAAAAAAAAAAAAAAAAAAAAAAAAAAAAAAAAAAAAAAAAAAAAAAAAAAAAAAAAAAAAAAAAAAAAAAAAAAAAAAAAAAAAAAAAAAAAAAAAAAAAAAAAAAAAAAAAAAAAAAAAAAAAAAAAAAAAAAAAAAAAAAAAAAAAAAAAAAAAAAAAAAAAAAAAAAAAAAAAAAAAAAAAAAAAAAAAAAAAAAAAAAAAAAAAAAAAAAAAAAAAAAAAAAAAAAAAAAAAAAAAAAAAAAAAAAAAAAAAAAAAAAAAAAAAAAAAAAAAAAAAAAAAAAAAAAAAAAAAAAAAAAAAAAAAAAAAAAAAAAAAAAAAAAAAAAAAAAAAAAAAAAAAAAAAAAAAAAAAAAAAAAAAAAAAAAAAAAAAAAAAAAAAAAAAAAAAAAAAAAAAAAAAAAAAAAAAAAAAAAAAAAAAAAAAAAAAAAAAAAAAAAAAAAAAAAAAAAAAAAAAAAAAAAAAAAAAAAAAAAwwwwwwwwwwAAAAAAAAAAAAAAAAAAAAAAAAAAAAAAAAAAAAAAAAAAAAAAAAD/xAAiEQABAwMDBQAAAAAAAAAAAAABABExECFQQVFhcICRsMH/2gAIAQMBAT8Q7bSyFHwYzEMiIJnAw9iG0MUARYABHnaihG1fsYFYG4tqdSa4EYoAgaRYYAGoAd4qQABZ0IHwGDDaKdVx6Gm5CakjJ6GX/8QAJREAAQMDAwMFAAAAAAAAAAAAAQARMRAhQEFQoSBRcICwsdHw/9oACAECAQE/EPTaHQIRYOxotBq4JPFmeFLscQA1+YEseFqBF3l8oiGeIkKSKIM1C4G4EGkDPYtgpgUAG7GsCwgeHRElYTluZ+qlDPP0t4NmLKGAbxAx7DL/AP/EAC4QAAIBAgQEBwADAAMBAAAAAAABESExEEFRYSBxwfAwQFCBkaGxgNHhYHDxwP/aAAgBAQABPxD/ALbhvygrNpkOGAI6ixax6aE1QAJeXc6rFEOR5MHUQQ0dstjYGl5ifA4vpbvszkoGrA9yAAZavk6GFM/pedNSb8rqGjASJIAACGaE1oEC7sBL86KXxQMXO7Ro6BXXCLq7uMpmT0iZvCGjJVNBbeAeDcDdnrzESHPw/TtF589QtHuGWalW2rZABygQbVFN4KEPuzX+oIBtVgsvwAE+YCeuEzwjZQCgRGqXa7niKA/C2ILLe4rAu+hqENI2IxP3D2Z3jYgLlr3OkpD0oHvmdvEAJSSK3EVItbJdYYEb9lrx/YkyX0/pyXgBrTfKcghEt0Kks1ZDtibZmHVvuM/rsKM0I23axMej2HiLJLOj0MEBJxsfmjZSGUZszW3mFDBuAA7NK2SGDzrktPIG1lBUWu4DAK9cuqFyjh6WaQgpgAAJFAxAiSId1yhO4vACh6N7VaTEld9dfttOPrUPwTsAup/16o6LARMuFzlAkJFjAIxuP49+QLrlUkBldb4E4w3jgwPHRD72RPfokAPVnyI9AhAy2lwIaVL23IfHJmYNYQhaNPNhASCBikBPKFhxmdj8EPMAGVt1bmaAQgDOaO48JEAOpgEsRnBaRyN9Io45p9hKhQQsibsQNhPA5glAd1GueUMC2CjiCYBDha3uQLMFAcBJnJ/UqAmwIvrq+dEoANd0qbABErXt1nv6IWpoJKOHjBgdkgwAgd7liz6dCnGtiQaxSQrOA6SoQAAlraN8UFTHZHVELNgHudeckAexJ7ZIC+y69d2FiEMpFmiGgFoOnq+ykgIEMkF7tDdQAo4mopvMwQy7KvPitbgO+aCLJP3PYCAL+j4/QoL4AAdcN8DsAWD76AYqFFgATIEopKsKoWQiyjjGDdtqCQUucQqYKuveWR+dBatJdXPtQCA1zggEonrjuIax3xAEc2XeCAXuLVGPAgECd7LMLkABFvvpvfFQ4wV7XSjAa9hLFVgFATSmGEACXu3TpRyFmAlN2gCAGiV2lDsAA1Kp/h1EAyOzyNNgAArNfFSt4AAOyQV1FXshN3L9hQEhzLP3pbWhAAFt3n4mACEKBSIuAb1BwchgFkbh1IQKKVoHDfhAFgHhyqRpZVueZUeeGLbud+QHtmI5AIAk6LX8OAM9SGoAMurHd5diFIdEORzAMtNoQUjofgeQCwmGkRH8m4wGZEbgjnvwgWF2NEozNgSjJQc3LP8A4FCPX6WMPF1vvjD1nmZ5gewrDtvkxKZwCsWb3lCLZLZTLFAD6TnbKFoAQLCRB/TjbmnUjeOAPoprXBZt4+lsZjBAqFz2qZaoCZ3NOpG8YixW+LBVo+CNP3VKQsDbvKYwCudj8UcgHCfv2FmI5NWP1ZlHAJuEqERKQAAvK0lHS0A/hDRduR6AI7aAQR+MgMBG8ORBNfCgIS7tSzicApChwD4iE/8At9ACWSMpxh3HEi73TRAEHstOKbniAPZTOJSGsBrldjjxLDFyz9sMxg53HEi73TRAEHstOKbniAazLjqpqAC/BSy54CABkYN58OAIU4VKqXDjndqMz1AQNb3CQaRBgEhaXSORMG2QoVYlGICdAmqUQAEu0aMdEvvNNIAJfwUOxoAAFzLPC8J2AAQi7IG43DAAKRihkYBqEKfwAVYqH2agxEng+4lCnXehtuIOM9q6m1wA92Pm8B1maACRymjbHCgQEBOCiEAEjlNG2JQI+4DmrM4BUMrCGihabAEN2rqTwCACBiLZGBoAhVxT10UBwxaIi6yDAh7MyoXjEFPcImOKiVQFgobIUk+PKDZBLD+AOSAdM2UAYBS5E8iB/iaLt2DI+tmKKOKWiruDO3YI6bFSkAQBlLjXirJACJsjBpAgzZ0g1Yg4QNjsBCd2oJAaARjzw0tVqTCUu0aMro+/E65APG21FzpIge+oEBmVHBADffHNCJPENbfQYxMwkl33M48xgXFBctFc8IhVBsKX4ziWfqAQP5W1LkoAAk/zYo54gEIP5W1LkoAAqasHBrAwT5ml0PKQACZ0BQQuCkAC6BGUhpgUkgSF66n4SAXq645kBSBHi0iAQR6mIC+klG7Wwd0MOtOCoJopvblbwgBpaxr9RJLzZQ1mvkiVch0Iu+agJ3gwPCr86K3IB2/ZwSG3GekVtchMGqNW4wQCF7WmOHgCIF6vyWBufnGcgtqdM8I+7InvxC1yW3l4B9/lPcYHDDUkhbHvSoFJIWx70qB63pSAA6pI/FQn1+liERwyFCElCa4CPe1AQZG/IzHcMw8URDn2phzxQfYMBGVybMD/AB5rYvqu1CAApuJfxQoAnx2db4G0exjNA+r/AFhzTQkK6xO1JVX1237Z3YQPZJTNJdIyTmKieaqNORGAaUhhji9bcaSUAMOMb7Qnui2hX4wZV507vEnSAzLT3JoARjeTHcQGBmQZ0W2pgAWyybBcDpCZ0G1AOeTMgBCWgJwNRcDKXbtzHGgANmQSTFqxMACy60SQgB/gt47CzAIT0LHA8wCoQ6pTIjMARKGt0xuQITlUzWFhgKtUblUmjzXO9dMGJ6OCrY+qBodghLn+yIIWc8mc87UPIopEjLCSvyzoE/p4G+YyxuspUgHrsf8AtwreAbgMCfGbM6MhGzS/Lh1X0E3oyykoWJpEsjqMACSqOHIYJ7WT16gdnQJZQNSH9goOkc7El5ECHDlMCcCMfDOXRvv1AJcWOESrU3hkYQviA/jROhL+biKgCEkCq0rULaAFF5rJKCGgY9UZFosAC6iauMKh93BeAbFu02bBej4AJmTJVDLQKs7ngbN8nIC3lm3ph+z1DLOxsWxMQQ0gIAJBj9wQ9gvCSowNZdQNg2A7nM+Z66MrtO+8sC/yZ7IwiPyA7a6nbXUsdyEEfsTAghYexggDTHytBSWjiCXkFFyIARv1mi/M9hE8SGyQScImfipR7QI2l2cJsWQhgE+UajBKCAJWawoMBgyASYyNISavYBW6k4rpgCCutBIAbAsGCv1DEVNeBaCVjjuCZiBeGswEQBN5+2h2N4m8iyAftFHoZaYVhw0pnrOKEXMc6Op8Lip9OTYAUAVwmSiGauJLlELk8+wEqcUTlQNgUjlO75iAfJ1TgaCliJvMgqIjVM+YrVIOkAXdff8AfxAvMyV8r7BMHGQoSJEtAAgcjVX0jAAR7dyGOWAACXVITyQAaNMRS34F2AyU7MTFYQCPxKkByJACL0LeqMiwyCW/O9DfkAs4D5shWuAR8U9SZNEBM9gQX/ygBGCqj5l/oATVujHS+isK3IReugZFs7u7P0Nb+swQB1qMBFa7E6UPmgQ55GHzAJL2v1/AD+/2qJSBfkyG/IuT3KjnXVNiWyoxze9Exh7cSoA/XBSsDe+SANfraE5gmIAZO4uAObFOzFtsWAW3qpAb1SQBW2ZruYnt+uAJkRnowi4HQWBWX3Bn+DUVnSfKAA2Hz+BMwQOdSJ2B0OwOh2B0OwOh2B0OwOh2B0OwOh2B0OwOh2B0OwOh2B0OwOh2B0OwOh2B0OwOh2B0OwOh2B0OwOh2B0GMNrAKt7iEGBQIruGoY5h4CqqCSnmIEIQhCEIQhCEIQhCEIQhNSjAUPgGf/wAIW6sxnE3cBEt8nzhtS/7gCmD1pWV+IADE6wwLj84M64L93gnuyZqKg8QMuAJNAbNkAPhuVDmrPiBdyJqYpQ3N18UtcXeRM4lHgv2oWX8+I+phKrpwUTZcoFCA5qPzZX5QAhcrCEEABXt4CFKBqAMy3mOjY0AVs1l9vidAA7zXP2cYh4quz4WVBJYHcHWID1H1yLJBawVHpDMI7FHVzXcBwb8qBBU7vEVCag4zDszIHX+gltFCCrPTfdcyI6gEbjFlsU2HxxOhAAf5k6I3S9AEtjrCK8SjAEn+hvEJTzk8Ru7lmA8zOqnWJZjZ24gZpaY3MAz2G6k+8CIBMvEaLJ4KSWH+0cAOWeclw3fHLkAnetr33SYhT0arz0rq7eEpaaquRkBmYLzVEhnRDfqOEoSP/WRkN1yzZMQpJBaoDEhQPNLYWoIb7jl4mdcfcoDudVv/ADBjx48ePHjx48ePHjx48ePHjx48eOnRRRf+2e8uOfE8HYTzAhCEIQhCEIQhCEIQhCEJgD+X/wAvAs61Y8xQA3rpX8PoIZGQrXPxZygwuP3KXvQDKZ46PZUAIC/Jpbh5oBMWgh8SqwT/ADh10+gACvgcNYlRkCiWmlqO1TZCwoHvCpsPcIBAkCJ91OHoAcaP1vGp8CAmn9Rx9U8wMUS01XKFgQsGZDlwFekA813LzXCAUtJ5a1KyLjmMzKwQNaa66VuwKEzA5fVXYVIsY8jjQBg/31Mv25imYwpL2ZCASZi8mrK3MBn3iQ1Csopu9qf4yOQk7ZU2dzkIAGz7ubgKrjqiO7g0aDBVYNFrvmN4E0Xo1DJqFJfCDgr/AMAApU906aFRyhfl3RkwAACQiNhcvEmAk2+FyXEYF0o6l1DcBbDfKI4ywBznrd9sVABNUlMkdFSAZ9oReGoAAlp179U/CBsNCi+G/ACGTZeJnKEARW6Nh1KASoFdqUFxAuAnyy6XGhSQE+y85/lUJAMNTQfaQYCpXWSkgBAA3S7xBBIATVJTJHRUgDLj2N8fC1DiNGJbmNdgYFHEm85eAC5fRSS0bgwuZnVMNp4FD5l7/PDxxuqvPYwCBmL1j2gAA8e0cDbYAEgv0I8UFCAynH9ZiSCfZ61GFEGDQVGLJXQCkAgNhadqWEXA4qg0PRjAEF7iYMvwDgIA9mIsDBOofiJHpoAEvQzEYg8BTmQxZykiDbgdLByPq1x+XAcgntzpR0aRoDB/surOhAK3xeQYpMgAEpsw2kchNAHgAGMREWEL9Lfa9qIDs3tO89zNgZy6qE7cRQQVmpVNXRAcBNUdawqnl16iXbGE+1LFsPJrC/1/GBOBTeuHNsYBEISkqkcwA2cDiMessAwu/QWwbIoGQRnZnURUAABvXr+EMswgWe0aIRfEsAPwru5P3M0AB9+zcgHLF1XQWVADPPRTBWRwADNYeRAAf3uwPNQgKUhXe1/5AAEwxkkaJDQA+/8Ai+ShAV5nUEy27DA34bb1BakIBA3S5Uo9IAJ53xwmfTBhCmCHn3pNgCM48HIGRQURVIlW9IAXvcnm+ihYIT0VZeLtqBCuJEAerHgWErFimrhpBgCmWY6tyTehbAV2YVigGAVb7gM/RvLhzGNLxH4xvBYLL/AYm9pQ4ANK6s1jRV5Yz52+uQBxW8mNLyYqFfgiRUMAEpCnxc6RDLz+wC6wBAHscf0BQCqfUfhG/VgA8AkwbzQC2C+nO/mEAtyoS8oQPumX8tCyBQZ5M7rtwlAM8NsOq/CIL/5bajUBluzBcNG4oARC7ZO6MZ4nJoADzUci675AoB85TXA3iAAbxGUvdbBCqMNwwoJJKBs1dzGYRlybbq7Ktog1o+LoVmkMhxkZ9o0AAJywqhlYZoKBZmpZbCWQITA+354bwAdd83IUTAuzQjWhr2BnuP8AUjLe+KEJo/Ld0oEgAT+IColUQIPuzUtBCAC7NnRnYOEAMBwABOiwwuloAAPjEwL57UABSlb9JuGFgAi/H/GpdjOtycgIQEVTDpmiUHKqPsK9s6C19LKIFJ6By4S4AEWNJMukxBBsBhZgcBgIBFtOpiTyBYIXwfvtBwMBlrp7Hu9RDOIgjMigUoENRt4owEACTuJls8STwGyLp+MxqUAS1ipo5imAfNIBtDWQwNgoihENAwcyksgpBAU7chUPDgPgZY5OKdaQEiLbSSB3g4ABlEus/pSUCHVyIcOCZ6H7pKjQA+/+L5KEA448qioghgCnCg2k9NAoD+4IKIkMDLLTdAYADNAxWwUDCAVmtrA5NsKYi+dwGxoyDpAToTQQgO04/TgMCLruV2i85hACgEphGEogZV5six8gBHzOLaawlDEAaQof4K3AQZuHvpOABX/jnjvJFAAWumXrIJXWBO2zuk0woBSHb13gUMJ2X0jKgAIfb3MfjssHK69ZdXGb49YfTwgqMPMMLgRJjBwB2LObegN17CiDhyAwiN8G/wD/APYtmX7SQHSvA8mAGbNmzZs2bNmzZs2bNmzZs7dpIDtWgeqgCGet/XS8ngHjx48ePHjx48ePHjx48ePQz1v66H/I8D//2Q==;" vertex="1" parent="1">
          <mxGeometry x="300" y="55" width="186.75" height="415" as="geometry" />
        </mxCell>
        <mxCell id="HS_xxe3dGCpR05CBSFz7-4" value="" style="shape=image;verticalLabelPosition=bottom;labelBackgroundColor=default;verticalAlign=top;aspect=fixed;imageAspect=0;image=data:image/jpeg,/9j/4AAQSkZJRgABAQEASABIAAD/4gIYSUNDX1BST0ZJTEUAAQEAAAIIAAAAAAQwAABtbnRyUkdCIFhZWiAH4AABAAEAAAAAAABhY3NwAAAAAAAAAAAAAAAAAAAAAAAAAAAAAAAAAAAAAQAA9tYAAQAAAADTLQAAAAAAAAAAAAAAAAAAAAAAAAAAAAAAAAAAAAAAAAAAAAAAAAAAAAAAAAAAAAAAAAAAAAlkZXNjAAAA8AAAAGRyWFlaAAABVAAAABRnWFlaAAABaAAAABRiWFlaAAABfAAAABR3dHB0AAABkAAAABRyVFJDAAABpAAAAChnVFJDAAABpAAAAChiVFJDAAABpAAAAChjcHJ0AAABzAAAADxtbHVjAAAAAAAAAAEAAAAMZW5VUwAAAEYAAAAcAEQAaQBzAHAAbABhAHkAIABQADMAIABHAGEAbQB1AHQAIAB3AGkAdABoACAAcwBSAEcAQgAgAFQAcgBhAG4AcwBmAGUAcgAAWFlaIAAAAAAAAIPdAAA9vv///7tYWVogAAAAAAAASr8AALE3AAAKuVhZWiAAAAAAAAAoOwAAEQsAAMjLWFlaIAAAAAAAAPbWAAEAAAAA0y1wYXJhAAAAAAAEAAAAAmZmAADypwAADVkAABPQAAAKWwAAAAAAAAAAbWx1YwAAAAAAAAABAAAADGVuVVMAAAAgAAAAHABHAG8AbwBnAGwAZQAgAEkAbgBjAC4AIAAyADAAMQA2/9sAQwAEAwMEAwMEBAMEBQQEBQYKBwYGBgYNCQoICg8NEBAPDQ8OERMYFBESFxIODxUcFRcZGRsbGxAUHR8dGh8YGhsa/9sAQwEEBQUGBQYMBwcMGhEPERoaGhoaGhoaGhoaGhoaGhoaGhoaGhoaGhoaGhoaGhoaGhoaGhoaGhoaGhoaGhoaGhoa/8IAEQgFAAJAAwEiAAIRAQMRAf/EABwAAQACAwEBAQAAAAAAAAAAAAAFBgMEBwIBCP/EABoBAQACAwEAAAAAAAAAAAAAAAABAwIEBQb/2gAMAwEAAhADEAAAAeJAAAAAAAAAAAAAAAAAAAAAAAAAAAAAAAAAAAAAFmKys+uQC4whEgAAAAAAAAAAAAAAAAAAAAAAJr9Ln5Ofqv8AMxGst9OetjrxxlPypS1uylMWCvgAAC70gXiuxI7LXOfD4AAAAAAAAAAAAAAAAAAAAAAD1+oPy7tn6J/OHqYP0DxKeqpE90/P/UiuXLl0YdTi+fDs3GcmMAAAAAAAAAAAAAAAAAAAAAAAAAAAAAAAAAAAAAAAAAAAAAAAAAAAAAAAAAAAAAAAAAAAAAAAAAAAAAAAAGwa7b1AAAfT4A9ZDC+j4AAAAAAAAAAAAAAAZDGm4QAAAAAAFsJrnnZq0c7SkWAATV0i6wWSkdDuZxfRv9vOP6N+tpyHoGp0A4F67DElUtdUuJuUaWsKOU4O81dPLsXSuagAAAAAAAAAAAADpHN+jEDubf05+ABvaO8WmkXekAAAF7pGMAAAZOic3HSa5WR0eJpw6PH0jfOhScBQi4Y6WJnxEiTufOR1HR55Yj7XAAAAAAAAAAAAAAAz3CkDb1AAb2iLvSAAAAAAAAAAAAAAAAAAAAAAAAAAAAAAAAAAAAAAAAAAAAAAAAAAAAAAAAAAAAAAAAAAAAAAAAAAAAAMvs12wNdsDXbA12bCAAAAAAAAAAAAAAAAAAAAAAAAAAAAAAJDTlJgJLxCbPP2bjyq2WjS2ecafZqZdVSdfYdfSh2THjIC50zqxyl2TyU35LjnPQOf9TK/TOrbxxuf6HLnBnTbGcPdahjnzt8Qcndb1CAhL5Uy50PqfNSsu6RByK5Te2cndK+nNLVVetlLrHW4o5y6tpHNnVvJyt3KunL3SLAcgt+pZjlgAAAAAMspF9Sos+2qy7Pke1VPNuM6h4nvNOzAxdv+WTxCP7Pxn1PAi8WXFvaYDq3KR1XHy72dP++eXDq3KbKXH5yodR2eS/Tr0nw7Mda5HiHVfPLB3zR4tiOpVOsjtcRysd03uBYiT6Fyoddqclzw3ex8PHcorkQ6bs8vwnTZvjuI7ZUaLjO/Vnlfw69pc0kiDAAAAABl7xwf9GczatHrNA+e6cl8jfFN/nx7jqdnb+VzJt0TnEuk1fp6nPcWXF6LiACy5RWlqyzFQWvEVlZ9OEIMcgAAAAAAAAAAAAAAAAAAAAAAMv6N/OX6N0L7hs60DwOjNQP3zo7/AJqdsxRZYMvM/nT51pqvmhTbVMWXF6ngAOl80ZY9LjKOzjomzzJMXusRbDIMMgAAAAAAAAAAAAAAAAAAAAAAMvd+DdH5uz27PD5vM9bYyaPqxnhZGOp2fnj3jo2vPEuoch9JxIzFkx93kAAAAAAAAAAAAAAAAAAAAAAAAAAAAAN3SHQ7VxT1obPa/nFVNvaPnGEz2aK5cyxm43U89LSAAAAAAAAAAAAAAAAAAAAAAAAAAAAAAAAAAAAAAAAAAAAAAAAAAAAAAAAAAAAAAAAAAGcwJv6QaeECnhAp4QKeECnhAp4QKeECnhAp4QKeECnhAp7yQaa0TTAASfTrMOPP0F7uw/PT9Cj89P0KPz0/Qo/PT9Cj89P0KPz0/Qo/PT9Cj89P0KPz0/Qo/PT9Cj89P0KPz0/QFZxnkrc06LQgAABsyHqEAAAAB9Pj78DLiABtS1RAAABKRY3tGbhBNQvebq7VvHV0wkAAAAefQAAAAAABDfnT9Scv1LuPDnbQAAEvETUKAAAALPWLDljNamrp242PU09ZG/Iwm4e7DUM0qsNe0AAACYh5mGH6h/L36V3KJwdDWAAAAaO94Kvq7uKY++d3YIG7QE+fREgAAAKvaKZXlwEcfeAAAl43FOEGko0AAAAAAAAAAAAfd2RPEH9+DqHL/WeP6vcz6V1dP0LMQAAAAAAAAAABiMvBprlvP2Q07wAAANjfiBLogS6IEuiBLogS6IEuiBLogS6IEuiBLogS6IEuiBuaYAAJGOStf2pssbYqYtipi2KmLYqYtipi2KmLYqYtipi2KmLYqYtipi1QOmiQxkAAAAAAAAAAAAAAAAAAAAAAAAAAAAAAAAAAAAAAAAAAAAAAAAAAAAAAAAAAAAAAAAAAAAAAAAAAAAbxor7rlKW6vminNgrawfSvLdrFaS2QhV+qZGugRpUVihjWT+0VZY4Q13Qo8pq6xhXVlxleWTAQS1aJBrHGEeu8KQSyaZDrzXCJWiOIhMWYoLpNII1YMJCrfBkY385ErHulPWjYKescCYgAAAAAAWbcpo6BXoAXSY5mLPMUAdE1aKJzfqgvVJxi7+aUL7XIUdG9c59F2rkdhLxgp/wu0fWfpbvVOHU4qg7hM71MHRq3XR0SGqgtlZwi8ZKGLTqwAssrRRPbNYHSoOojoERVhbpTnuUvHmjeS/8Avno6TQNUAAAAAALBX5kldbNLFJvXOr6QmzqWIoszr3AgdK2aBUrDHTpBbfrIaXi165B4LtWCK2tTbJeF875p72TYKzs+pI0ZGywZH+tfcI3HP+SqSW1PlRn2MityxRBCTrbOfYZGOAAAAAAAAAAAAAAAAAAAMzCAAANjXAAABLRI9eQA2NmODNhAAAAAAAAAAAAAAAAAAABsYjwy+Dy9/DyyDGy/TCyDGyeD49jwy+Tw9+AAAAAAAAAAAAAAAAAAAAAAAAAB9+DOwfTL9w/DKxjL8xj39xfTIxjPg++TL6w/TJ6xfT7i+/AAAAAAAAAAAAAAAAAAAAAAAAAAAAAAAAAAAAAAAAAAAAAAAAAAAAAAAAAAAAAAAAAAAAAAAAAAAAAAAAAAAAAAAAAAAAAAAAAB78WcrC57pz90fXKVgv8A6Od57pqlOX7WKVkvXooOS1ypzl0bVKGAAAAAAAAAAAAAAAAAAAAAAAAAABvaIk5CuCx5auJvJACe14kTWOJFm81sWPFAiwZK2AAAAAAAAAAAAAAAAAAAAAAAAAAAAABJEaAAAezwz+zVAAAAAAAAAAAAAAAAAAAAAAAAAAAAAA67yK1G/nreYsUFr6Ja/VVyFs14bEWLdquMuHMLBXwAAAAAAAAAAAAAAAAAAAAAAAAAAAAAADa1pqOJP1JypWpjxgNHRuWoV3JNZCH1p7XPvie1Tn+/IzJg0JLYKbpWirgAAAAAAAAAAAAAAAAAAAAAAAAABZYU1F1lDm0rcfJTMF+gSB071vnNllrQAAAAAAAAAAAAAAAAAAAAAAAAAAAAAA+7+iTHrL7IzzLypF59ePPevs5yI1ZCPAAAAAAAAAAAAAAAAAAAAAAAAAAAAAAJXT1hcJPngueKozJbtWn4C5a1QFgr4AAAAAAAAAAAAAAAAAAAAAAAAAAAAAAWaE1Be5Wi/S64KR8OhQGnmNibr2oZqxu6QAAAAAAAAAAAAAAAAAAAAAAAAAAAAABKxu7rk97+yJHy8TjMsXasJg0dWUKaAAAAAAAAAAAAAAAAAAAAAAAAAAAAAAAssKajocqcnm7prFBxdSgSsx3UNE56tFXAAAAAAAAAAAAAAAAAAAAAAAAAAAAAACbiTYTWwVj5aZQq2aQiiJyTe4VPFY64AAAAAAAAAAAAAAAAAAAAAAAAAAAAAAbXjALXu0kWnFXZ0smClYCck67pkvCgAAAAAAAAAAAAAAAAAAAAAAAAAAAAABZYXUHR5blA6Xp8+9HU4OsZCxWXkfs1wAAAAAAAAAAAAAAAAAAAAAAAAAAAAAAWCF8/SybejtmSTrPgmIee8GDYg94qQAAAAAAAAAAAAAAAAAAAAAAAAAAAAAACzQh4+32WOXTlm1ClYOpQxRvvQvRUoi8zZQ47qkYc3wScYAAAAAAAAAAAAAAAAAAAAAAAAAAAAAfXwAb+SMAAEjH/AAAAAAAAAAAAAAAAAAAAAAAAAAAAAAAAAAAAAAAAAAAAAAAAAAAAAAAAAAAAAAAAAAAAAAAAAAAAAAAAAAAAAAAAAAAAAAAAAAAAAAAAAAAAAAAAAAAAAAAAAAAAAAAAAAAAAAAAAAAAAAAAAAAAAAAAAAAAAAAAAAAAAAAAAAAAAAAAAAAAAAAAAAAAAAAAAAAAAAAAAAAAAAAAAAAAAAAAAAAAAAAAAAAAAAAAAAAAAAAAAAAAAAAAAAAAAAAAAAAAAAAAAAAAAAAAAAAAAAAAAAAAAAAAAAAAAAAAAAAAAAAAAAAAAAAAAAAAAAAAAAAAAAAAAAAAAAAAAAAAAAAAAAAAAAAAAAAAAAAAAAAAAAAAAAAAAAAAAAAAAAAAAAAAAAAAAAAAAAAAAAAAAAAAAAAAAAAAAAAAAAAAAAAAAAAAAAAAAAAAAAAAAAAAAAAAAAAAAAAAAAAAAAAAAAAAAAAAAAAAAAAAAAAAAAAAAAAAAAAAAAAAAAAAAAAAAAAAAAAAAAAAAAAAAAAAAAAAAAAAAAAAAAAAAAAAAAAAAAAAAAAAAAAAAAAAAAAAAAAAAAAAAAAAAAAAAAAAAAAAAAAAAAAAAAAAAAAAAAAAAAAAAAAAAAAAAAAAAAAAAAAAAAAAAAAAAAAAAAAAAAAAAAAAAAAAAAAAAAAAAAAAAAAAAAAAAAAAAAAAAAAAAAAAAAAAAAAAAAAAAAAAAAAAAAAAAAAAAAAAAAAAAAAAAAAAAAAAAAAAAAAAAAAAAAAAAAAAAAAAAAAAAAAAAAAAAAAAAAAAAAAAAAAAAAAAAAAAAAAAAAAAAAAAAAAAAAAAAAAAAAAAAAAAAAAAAAAAAAAAAAAAAAAAAAAAAAAAAAAAAAAAAAAAAAAAAAAAAAAAAAAAAAAAAAAAAAAAAAAAAAAAAAAAAAAAAAAAAAAAAAAAAAAAAAAAAAAAAAAAAAAAAAAAAAAAAAAAAAAAAAAAAAAAAAAAAAAAAAAAAAAAAAAAAAAAAAAAAAAAAAAAAAAAAAAAAAAAAAAAAAAAAAFovhxt2QcbdkHG3ZBxt2QcbdkHG3ZBxt2QcbdkHG3ZKGVcAAAAAAAAAAAAAAAAAAAAAAAAAEnYaWLopYuili6KWLopYuili6KWLopYuili6V6MAAAAAAAAAAAAAH//xAA4EAACAgECBAQEBAUEAgMAAAADBAIFAQAGExQVFhESIFAQFyEwMjU2QCIkMTNgIzRCgCVwJkHA/9oACAEBAAEFAv8A23T0bN0RGiZeSFSulz28XFm6oJXPt1Sh1R9PaNUnB7Z9W6N9TkHRjmYlhRhraRcXGPNrbdXi6TFX2Su3ubEnRcdUO3S+c1SRVX7G0c//ACDbedMCGJY+Wsbn3GLMFvbsZzHO1NxYt1937j6aIY5mJtfa8KgcM5lthD/fP7E557dkOFfbdQZT1SsrMro2j79vlIF/D7mc5ln29VoqTBjEYLVWxac/f1rp69O+qMmRE+YNnqyfJaO+aXl+GCTjH/r0FcrGTKnX9eMePxxjxzwSax9dZxnGf34xzLM1O8Af300QUqs5eefqqkM2T1lfdPkPdDWRakkzAespMxHrKbMYbQHMVgMUzSKEgJbd/ObHdDqrxhBYY3DGU7wqjAMTFMeIinOP7xcuKSiX3C+A241BiY9KRBhb3G+k8T1beMmCwuyVQm+b25qwmoRn07SLEdtYgms8vbpEz09MdwDdL0nYVKwL0W6nsuQqFhX6+6HSvi/UtcsdaitH1c1u3fzmxZoxPDt52lzGDXcdfnmpeXqu33M9J27+8Q4NzVB2o1xN0YJkvpSkGDe42a9gvrrbUJlp+XE/VCchT64hYijbVFbpC6MpYRdoQnFuE8LWLlCI6t20S5XPS5sG7YFZuGuuQYRbaqhpVTUEbCzZg4/XMRVeHuBfFihb09UTa5SSubx7n7L97IxJ4qLeERtQFBj0JcHm9xyrpE/bJuFQY7ohjJzzZN60LaVep/2YwKWdcGWuDLXBlrgy1wZa4MtcGWsilj38Y/L6K7bpD6dqKwQc48JQSZJiUZQlokPN6pU4sbd+Ea9DoJq9CFHpOrVXoZU4sbd+C1Qdqv8AsbgqBVBatWL1gxRUShrZdNdj4tU4gUHxoKjFw5fVXSH/ALK+RRPuSqEgb7g/rP4qOiSxK1bbkENboD1SvrriGr5lNzHwJ9J+if6GCGtT21nkNw1A1AZ2g2oCG0dbv/0Az/QwQ1qe2s8huGoqbFbO3KhFa8sQEE8empgB3JY2ddBZ/pdOlZiStqCtMOKe460HT97/AO527+d3G3VnbIiqqFwKcSESpl1912dlWJxel5dmbjRXmi8ovV7b0hCVXtS1hm02xQVymEY3dNYRoq1KKcbumsI0lSAdeBUd9HbFaEmLV9QyqKoUaK7aSaznPN7I+4L+5jHjlHbcpxjSIxx0dHXR0tdHS10hLXSEtMbfWJhtMqRNF/H6J/oax/RW1/yoX6Hd/RGtw46lST/Q1j+itr/lW2Y4epqH/wAM8Orv8H2wTi7lL/c3b/sEv0RbAsXx7kxOO2N7/wC527+d3O03bCzqK/FFuKKV1C4x+trH8wsP0VtIorBXc1h1C1TWk41ebjLSs0l+S+LUDGevFs4odUUl7CqFs4odUbXO0+ErhcNChN/M8NipayrexX7rz/4uzj0vav3Bf3NtIxLPw8dcobUUjSyylJePosFcOL5x4ZL+P1Q8Mzs3K9Kh+CFyVFP44z4Zz9c5MSUPREs4R9Miznj40761VU+mZSExqZSEx/TUyzLrGfDMyzLqBJjyFjImLa0LbOfcF/c279KxIfEMd0vFg+aMmneYh6XceDZfx+9i/ubYbwKnlYeMfQ41FNdetds4k2/IWeiatKjCgi/j9DlTy1cemyCqnXIqzHTeQ/IKmaFXr8J9CKo/cBf3Nr8t0fxT0vlXz2Xk83w3BCUkKpoXDsjQJrOr78vL+P0BIFjTljAiDlXN9zJuasc+WDkG4rpuvkez7gL+5tdaBKfKMfL6JRxOPTmFs8C11wLTT7TJSF/H72L+5tyeM1iZeGYyBMk6efUK0uZOJcvH0OS87Rfx+9wz4S2/Y4UNrmC65guotmhI7U2PRaPxTBqefGXvgy6QvmE8R3OtnHcqmu5VNdyKa7jU13GrpjcnjgppnmQnv+JZxriS1xJa4ktcSWuJLXElriS1mWc/9FwgIxPgKL6iyljHNo65tHXNo65tHXNo65tHXNo65tHXNo65tHXNo65tHXNo65tHXNo65tHXNo65tHXNo65tHXNo65tHXNo6y0lnWBpH0wqRaXoRr2LEquzRYjHbFZjHbVXrtqr121V67aq9dtVeu2qvXbVXrtqr121V67aq9dtVeu2qvXbVXrtqr121V67aq9dtVeu2qvXbVXrtqr121V67aq9dtVep7XrJYc2bjwZVMmX7IAyYKwzGEP3azfDw0vy5PhV107NtRQSQP3dlWhs121SJMfYH/LofdIKYZ+iSpofbFnmEPhtZLC1b9zzY8f2G8UsSD9huX8v9pz8m5aDkjIpzSLXhJbdOSPJ9ECebRdMtzZVUF0n/AMf2q3P8x8EY+RL7bhcgUBULFUDYNZVnZlTwpaEm1Kydwv8Ac3FjxpvsHxxK/wC0pYiGt1fPURv8NYlvxGxWPDC3ZDKp1vHNs2QiInuOPL7Vf/Bj4U5+Yq/tyjicelmjF1TOCxq/PFdRgZZVnih9zdB8BqPsIzjLRByCT93jHjlr+VB8NpWeBz/e7ns8POfZicTUDInDj9yFMzGvOFDGc+OfhjOY5pt0QLGMsSx+5IWAYXe5+LH7YmCgz1NnOupMa6kxrqTGupMa6kxrqTGupMa6kxrqTGupMa6kxrqTGupMa6kxrqTGupMa6kxrqTGupMa6kxrqTGupMa6kxrqbOjNGY9az7Keu5bTXctpruW013Laa7ltNdy2mu5bTXctpruW013Laa7ltNdy2mu5bTXctpruW013Laa7ltNdy2mu5bTXctpruW013Laa7ltNdy2ms7ks86YbO1n/t2qYQCWHJias6eWGy1pmMtK5VJ0s3OCpSlx0guE2amakWq0xncUh5GcQmnBetkcFVW8BqA+ZexUjE+tWFC6KpIYQATYOWqnGBaIwpDppyCcE1jQTDm0eDAOmgilW244edelKcLFQVcEqUkY5qj4coV4tHPWTEItMUcU05uzrKzhWgKuZQXwogta8wBksVgmaDXFOPFGWTLdfJUStdNkNVU8KxYFgVOonlrUqg2CL18jDbpPI+4jNPSqk29BrinGamKKKFPLLBq7isq0nmKKnmSJByET7zzQS2MHgYscPgkW3KAp8WIOjxtYF086NlF1xcqzryljIj6w1WGBzqxzXerZ2S+TDl5CNtK85Vvrr5rmwQXRIpCzk4LK7OU0bg66p1LRvDz7vBM9maaqhSrr11x/paw6Dl+dX4fUEh5YajiipWF1zjYXq13LKPlrGBRGk8rW5/lXlLQijros4iWL62bobCiYVGwiakyLoq812q6L6onJMDzTVJVxjlZKSZYKsvXNMJMHYbgmJGzyVpWawsTkogeJUWGxtqSwR9M9nCyGQTJeOx7BGWYSISRSTLMmNeP0+Gfr6GWzOT/ajJIRJSzOX7KkVg5aMpkdahRsEZIHAzjqAr3GayYcFqyFMQMhnNUTCPoJvOGqIVZtQiRj0v+kermIFeGJavoxYy6Qfmo0hizNUzEFCEiRuK4deYYIg26xUGXyaoIIctuniRxCacQ1UyglSmGZOixNhipEvWM1ZjNdGPzTNVNdPk58jCmYmctUaGFaqIB4piSiWnj049TMQqqmzixL9C/vqk8FrMBwMJRsVQD1l1Xn0mRBUg8ORmiKSszvKxC3BMdpPAXqu2ZEwZd9UQ88ogrT2nTFY2S3DhajHYIueewxlRACJ4BFbFAzmTA8007IYruMk6+BrFadk2yItXiCzaLtjGDcbEPUZTWlU2j67GQthNJoa4duqlAepwVRttd8FQMPIIwDYJBKnYLhUddjyw2UCW5YByH2cpZnnks8i9QTTXL9hW0bShKWZy+IDkWK28w9nUCzHj/wBbY/pH8WY/XGNZjrOPp5dTx9YY1H+vl+n/AB8vwxH6eX6+TWI68v090x9c5zjx/wCfh/H/AFxj6Rz+GWp/1h/WOo/0/wCH/wB5/r4fw514fx6j9Me7eOvH4+Ph6PH4+Pxxn65z9Y5+n/VWMJTl6IrlnGUZQlqYpjj8YQkSco5hKIpzH7zt784GumNLFWqJxQaq0q+sWYGpDhpdOGScqxRad1mGVQIo+UiCpl5VqcmkgKJnsVB8M6kFxMUywowrlJJ+7ptTRZk8SS0riZiYuTcyK7ILUbQsYQtp6FaTGR1+buMWZcSxYlxCd2WWAXJAwhcT8hrYx9HtcsRHczHj/wBl9Pb8nrhHM5GFMBBrlKP32RBwsgKw1lBJexHVgk5bgWFgAkxKMKJ5HhJLn1wrJBuVx8A64lVyVaIffevMaBanCPNyeR+sM8y03JvPPl4ebI2ZYu2cDWtzLBxdH8TXDB9dYPkXv+FjZDjHjk9Q0uGdM3AQaVs8E68QK2dUcjraBksK1h2xgqGmMjo2yxPVMrgcqOSUpKqD5M/15E3kBViEueonz7ShUy+6xtWI16xeAy1y8DSbVg9h0PEbbDOtM2u2axXHwa4qo1XnQTHF0PEi4LAJWAMt1lwpEvTWHc1jUEIJN/yPMIlcvGBMG96UrjuxEwxXmYZK0TKpMLe/wDX9IVFg7LWQTLJdab4ILj0ecQUZ1V1mLWAuVCxFahZVWQjdCGM/v2Ppk9s2wKdu5MPPH8ZunIJOylzT9xmZ17RpYc32CxOyRnPvuEmMqxjmcj0xwDnSMQgGjOaCqY1KudQebjteRKKtYRoUKZiWnUiIl99xZMxSXLwGGpocSTyUGsPL8Rp0BK6TS7zFmAEYIvhzXnfGVW2ZGzL/AAJStI2KJSpHKUh5/wCAQ6b0hUcStNk4hZQHN8E4C0wXgUjAhrsW2OIqKWEqh5cUc2osDV9/NZtsBlaOTX5w/jNs0xJWXkbfuJmYq7ESoj255PsOHbz77itZklCEiTPT5FCdJOOA0nFgqASFUWonJ15DkoBSCxTTQmsv79h1jCoC8A7R0MklZp4axZB4jNgIqGGx2J7SC4sZcH0120Cx/gildzAPNJcsp5nKScope/wNX9IUjCbTs2ZknicnwMSDpk8w0p8cJq3gY69RAMqzmWFajcEIxsffyOMFHlxiQeYLrJyygm9wmHrWbBeMTyEaOXBCzLL32NUxKvGORSMVQhYlSRxINKKcV4QragtR/OPoQTGtWCImWjgPLlaJNb33DJsBCXIDNOITzK3U4uLMXnZsRlRE3CzbteVDLnR9OlbBzYWLcG8+/wCY5xjy58uISzpOtiZWcPIfOM65M3KeSXl9+g6nioU8nNPSf4k+PzwGihy0cgqY/nw3bCaZCGZ57cOMnC/wCRSTjxSZhxJ68xJ4UcwAztjNokSThjmC+Hv0ag0qwQ5GKzXqQ1KmBxA1KsohzCtpj1cOcsEhKigsrKhLt/EIe/cSfkETISsWKxNSuR8TFp/Gey4ygHs2TNoVYUgvwhXtW42sf4BNco4ZXNgcVTzwnVxmnJafMECQWuETwkAsMCrZkU4BeKxWTCrFWeDGhgZveYPrRqFMww09h6E58bDwmCDk4Scac/nk3aLNMCov9FSnxNbXmZVRlmUyLRPAoosCWsfzD39VjC83HZuS9CLkkWf/AMEzSUZrs3y/Lr5fl18vy6+X5dfL8uvl+XXy/Lr5fl18vy6+X5dfL8uvl+XXy/Lr5fl18vy6+X5dfL8uvl+XV3RmpDe6I2DNaXuy413Zca7suNd2XGu7LjXdlxruy413Zca7suNd2XGu7LjXdlxruy413Zca7suNd2XGu7LjXdlxp6wZsi/5F//EADQRAAEDAQYCBwYHAAAAAAAAAAEAAgMRBBITITFRQJEQFDBBYXGBBSAiMlDwI2CAobDR4f/aAAgBAwEBPwH9SEeEPm5d3qU6JshBJDfWv+KWCNratcD9AjYZXBqbFBEKZeqBs9Q3LPyWFHsOQRghcPlCtVn6u7z04+zFzZKgVTWF7i6QIWeIEOA0VQATshaCTk3mQDyVsEkrB8NKZ69OQV4K8FUV4mEtDsyR5JsbJgQ1xULMJobWqezEYW7oQkS3y0/tRWme7GQWkVyzp/fSRVXaK6qAcTZnhko8ck6N9+/GaV3RFpI1CgxA38TXo9oyAkM2z+gMtMsY1XXZvDkuvTeHJG2zEa0WZP5ULwFihYoWKFihYoWKFihYoWKFihYoWKFigrXhXuuha9tG6hp2R7ln9+azWaoT9+Xvy6Dt26jhXCoRBB7aNhGfDaq6NldGyujZXRsro2V0bK6NldGyujZXRsro2V0bKgHd/AEf/8QANhEAAQMBBQQGCAcAAAAAAAAAAQACAxEEEhMhURQxQWEFMEBxgZEQFSBQobHR8CIkMlJggLD/2gAIAQIBAT8B/shPtD6iPLmcz4AVUcslmBFHSd4IHxqVBbJpJA18ZFeNDl3+4J5hZ4i88E+1Wu0EkE9wrT4L83dLyTlzKx5v3HzKZap2mt4+asVq2lhrvG/69v6Ra10IvmmYzpXgU+VsMYjhdXPMivgFtUxaWXiaprS4gDijAxo/E/yBI810e+GKQi9WuW4j00JB5K4VcKuEDtNuDjELoBz40px1TpZLM4F8Y8APmFPLjSF9KVUMmFIH03FYlYcJrxTnUH5UVjspMwIcDQ1NK/T0tddRfXeFickXkjtPSMTpbObu8Gqimjw8OUEgGoomusYIyPmFaMIyHCGXo6KiIBk1yHuCWwWeU3iKd2S9V2bQ+a9WWbQ+ab0dZmndXvKyA/ijYnP3BbM/ULZn6hbM/ULZn6hbM/ULZn6hbM/ULZn6hbM/ULZn6hbM/ULZn6hGzvHNbuyxMvuWQHXTxgi9p1TaZ81Vp++WXxVW1P3x+iq3PwV5or98D7dl3nqMll7Un6D2Vjiwgpjw8ZddPKCLo7NmFiP1WI/VYj9ViP1WI/VYj9ViP1WI/VYj9ViP1WI/VYj9UXE8f8Aj/8QAUhAAAQIEAgQICAsFBgUEAwAAAgEDAAQREhMhBSIxQRQyNFFhcaPRECAjM0JSkZMkMDVQYnJzgbHB8BVAYJKhBkOAwtLhU3CCg6J0suLxJWPA/9oACAEBAAY/Av8Am2SS9gAPGM1yiYnAUAYZAiqS8a3bSJS1nldVaW5M0TbEzIuPsgsu1iuOZ220RfzgMGcam7tuGi5e35vZlcUWcReMUInBkfL1ntb/AGhbGODObjay/pD0tiC7hFS8NiwLbQqZktEFN8Kbho5pBHxF1BXJrVXV64aarS80GsTOj3ZKZeMCMFdVsFL7lh1iWU1aFBUb9uYov5w2jc7L8MdC9uXrVVTr5+iGn5qcZkxfVUl0crr9yQ+M683KI29gIpVW5xdiZfjD700aNq29ggP/ABCTjez4mTTdUv8A2lGlk3fs178olTam8ZxwVvbRKYfRGkeAJLuPFLCmE96aWBknTGjzm2GZbSBIeMDaImr6Kqnt+b0IVoqb4wJlfhrSZ/TTnhZOTP4W4msqf3Y98CDQqZktERN8JMTaIc6Se76EiZUlqqzwVX/pWJb7UfxiYmeH2Yzinbg1pX74mQrW0W0/8Bhs1ZlnJKYbUjnQXWZS31t0K1pSXF+T0bcYvXqKoirspvqsPmy+ksL54rqqKEICO/PmSGXl4RhErjbZCurLiOdXOktvxtSWq/ODcxLGrbra1FYN18lNw1qSrvhXpZpk3aURXBrTqjiy38i98cHNqXaavv8AJNW5wBhxhWqR5mU/kL/VDk3MIKOOUrbs2UilVt5vCoiSoJbUrt/w90YaN1foDWPhDLjX1wp4+WfhomccQvZGWcUXL5gQGhUyXcKRiOyriBz0/cOHaWFDfLzMuv5wRIKDVa0Td47bGwVzNeZIWS0MAsg1kR0rnDjU6Dc2JD6Y08GIUu8gesoLTwYhS7yB61i08CGUu6gL6Vi0h9HQICwdhJTfFrQE4XMKVi19sm15iGkSvWv4Q+y2LNjZ0SoxofSTTaMm86iGPPEyIIpEqjkn1Uir7Drac5AqQl4ENdlUhSACIR2qibP31uZl0Thk2qpevojCOLME6m8D2LDMzLDYzNBfTp8Zk5gMRoTRSGGFkE4qLeVltfHEp8fsyXYK9MV0nJzDhkmqaFkqdGtHIJj+Zf8AVCro5smmKcUvGoa0xG1Eev8ASQ+07xkNYaZHQrJmtB2pn/4w882yFsrLiuGKelrZwJOKJMkVFat3RMPWJY2yjqN/SWvdCGairKl5q3dDzliK2DOMjf0v0kBiWqwZ0wrd0P8A/pU/GGS0WjYzD+bjp+ikFKzk1w+b2i42HEXriV61/CH0mZN5x9C1lRclX+aNH6iMsNGiNtpujSByaMogoN7jqcTVh5h/STOkmyHWCxBVIeZ40xIllzqif7fhDEqmT83rn1fqn76OjnHBZm2Vqyq+lFZw2mGB4x37olyAKSQtoLJVqi+MyU0NzKGl6dEMfs1ByRb1ELU6PiP2fpnWl/7tze3BWLcNcl8dDbW0hWqLAjpuVVXRyxG4U9FyhuTG43N0HNueVVzzic8cKaYfVzaLfoosFPENUJLVbr6PNHCm2H1c2o36KLCzbbKukaW4Q56sNuy8u+swR6rS8US54fN9DJMAQ1OfbBSGlWycl/QINqQcvo+WNxwv713dDMw7VQBc6dUPvtVQDKqViXecqoNnVaRPk60ZSk4iIXrJlSF4Iy+VyazhbeqHMLzRiSnXmh1wfNjqB1J+/Wm4RJzKsLIaUTEkjyz9CHBljVxpF1SVNvis8LzYvS/qhj9l2Vot+GmXR+7i/LlQ0/rCut6NYGaX+9g3XluM1qq/ETLTLSYj+WJXZ/iZ2UjdG6N0bo3Rujd/AGe3xEcm6tN+r6SxQjSXPcV8KiLWKgw6qfUhRNFFU3L4MtvjDpK88VTtt3bfCs2s38Ou8zXp5oamwm6zpFm1VPw8D+kNJCpK7qS4otM+f9c0DpK88VTtt3bfDMTrZBhMZEirn8SwDJmeI3ct0MS7iqIuFRVSCZmNJOtuDtT9JAjoyYWZasqpLz+JK6REzV147VHdv7vEVpwlbZALjJIwQJTbUUICX4ptZgVNq7XFFpVIafkuRzI3N9HxqeJc2wjr/rnsT7oo5NYAdGUXTM2TpdSpHkrB/wCiPPf+Kw25LHc6mRZbvCvit/bf5ok56ckxecrknrlVdsTzrMiEnMyg3an66Fh6Zwgx0dpfTPakSUwLQI+TtCOma5l4NFyYcRtmv5Q39t/miTnpyTF5yuSeuVV2xPOsyISczKDdqfroWJp1JAEBnJxuvnckz2RNzZy2DJsii8HbzqtP9lgZWa/s4UvLGtqOIyqKP9InJGZAX222lUb0+rT8Yf0fI6PGiaqTJcZab9kaPmXJBt+YNvVDYi5JVVhdKSksMo8ydpiO/wDVUhr9m6AKbKnlXHUrn0RLaSl5ZZE3CscYVKUXPuiS+wiS+0h99zSrMuR08mSJll9aBYeNZ6WFUqrXpQDTv9msOTNbb8PWTp2Q7Jm2jsvh3gJ5xN6Pk9HAfGHHLbd7I0YVEWj+/wD64kdJ6OaFpl0bTEdy/qsSyOsgs9N61ypmKfqnt8ExMCi486to05v1dEpOKi48pqOdWzuiZ0rpQcVllbRb51/SpBsz+jQlAt1Ta21+5ImtKaRRXpZgrQD1uv2pBsz+jQlAt1Ta21+5Id0nMSzk/rWy7KBW7pWHZeb0MWjXbatPI3an4RPuvsJNzMtkDCw43OaHWRnP7pQG32xLzkpo0dJvu+crrW/dDSyskUjMf3w7B9kVPbKvavt/+XxqRRNsIc6Sh9AdseYRetY5OMcnGOTjHJxjzCR5CrRddUix5OpefwL4rf23+aNHfbf64099h/lOH/t/8yRIfbfmfg0bpFrOwcN39daf1hv7b/NGjvtv9cae+w/ynGktHAYi+5mN3V/tE/oudeFl54BsdFckKn/yj4XpPDlhzJ3E3RNrwlZvyKpiqlLsxg+uNC/Yr+AxP/b/AJhEmf8AZ16klZSjbllIlUdfSacR5EJxN660SX2ESX2kTEyy4wgOUpcS12dUMtaUJpSJqraouSL+kWFfnJ1WZNHa1xdUkrxUGF/9PE39sX4xo77b/XEzoqcS5vzoe3P8odsWrTPkw+6GZdvjOHbDcjo0WrGWhRb0rTo9kTEhpIWkF1pbbEpGkNAzLiMzOLUFLf8AqkOOaVmWpaXAeOK1id0Or2G4Z3MkWV2zuhxzSsy1LS4DxxWsHo2Rm+DzjJqrJcW8aw89pfS6yjQpkqFdVYmHpXSCsaQHiDsu6axPJ/ac2TS3yOy679UhqY/s9pG8y861stXqiTTSKtLpS7Ws9XP/AGiTkz1X5k8Q06Nv+n41IOZcStmQdfg82sUsp0rFyqhJ4pAvG2j1xRYXxxvWg1zj9m6OmOFEblxFTZ4ZqUsB5l9Nh7l5/Eqm2M4sIyUeaviqgGQiu1EXxkQzIkTYir4k46LqftF7VAacVP1+HjUcMi618FHDIutY5o8oZH9ZYqm2PKGR/WWKtkoL0LAPKKOqJXUPNFgph7V3CPqp8akB9YoRV2DnBYZUGKkVyc0WoNqeM/8AXWF+fEhocO7WL8YVBbQa+Kbp7t3PCOTEwbV2YtNZUihzUyi/Wjlcx/PGMDhHnrXQviys4Dl+Lx09Xm/OJecvVXHjRMOnPWODzs2YzPpWBUA64mxnHLWpUUIlbS5SrspEoEnMqTcwVtCTXDriZdmnnABl7D1ArWJd5h3GYfRVBbbVy2/OKQ1jVuuL8Y2LHk+N0wNtL9/h1fRNFWEW5KGiKiwAgtypv8BfWSF8WWkX3EFqYkhSvqkJEqQroUtb0gmGFfQEcoOZk3WilnivvJxEs64dLRs4jTrLQts1yxqbY0Yc4jDU7jeUwqcXnLpifKxl9Vm+K5mm/OAvEGwbSgA2lBH5xSGiJ21biy++CVt25U8VRNKosL+z5pW2/UJK0jljf8kcrb/kgmpl2+woX58SBT1TVITmLKCVulqxsT2xr0FOuEJCqnivKnrrC/PiQrTy0bc38y+Dzh+2POH/ADRW9V64RD2cyeItF8qWQ+Bfn2hQgH5ZrmXaka7TqRxHvYkcR32JHEd9kcR32RxHfZFJZr7zhTdJSJYoPz/ksbY2xtjbG2NsbYzX/AvYyKkUfCHldP1We+OQqXW+sfJ/blHyf25R8n9uUfJ/blHyf25R8n9uUfJ/blHyf25R8n9uUfJ/blHyf25R8n9uUfJ/blHyf25R8n9uUfJ/blHyf25R8n9uUfJ/blHyf25R8n9uUfJ/blHyf25RyCn/AH1jybhy5/8A7NYfbFHUyXYSbF8WyVC7nXckVnXyMuZvJI5Oq9bhRyXtC745L2hd8cl7Qu+OS9oXfHJe0LvjkvaF3xyXtC745L2hd8cl7Qu+OS9oXfHJe0LvjkvaF3xyXtC745L2hd8cl7Qu+OS9oXfHJe0LvjkvaF3xyXtC745L2hd8cl7Qu+OS9oXfHJe0LvjJhQ6UcWLpB9a+q53wrUy2rZpz/FC2G1YWXk8mfSLe5++YT6YkuXGHm6UiiLeBZgXOnhFkMk2mXqpAsy42gP8AX98Vp9M/QPeMGw+muC/Em5/ePrhp9Xf8coOgTZp6JJTxXLmTTD4+rxev4t1peOx5QOrf4UdXjv6y9W742lc/3FmbHjCthdX6/H4mSDcjar7SX4vRn1nfxSNCMO1QDbVFp9ZYm3ZIn8SUIULEpQqrSJ4Jt58gYYxL61JckiQNl1xlh8yA8RUypDKmxNMpfroVCuHoLngGWgfGtMSwUX0UpakJMg0/Lri2KD1Fr0xp/wCoz+XxZDuNo0X+XwywpuaH8PjH3A4wAqpAE4ik8Y3K9XWrzxo/DsN1+4VU+jfEyM6IG40COBh5XJshllwmnUcRc2wJLF++HZq1nBZcUVHO4kr8bNdSfj8TKuInEUmyX+qfF8GnZVJppCuDXtUV64YmkZQQYybaRdgxPM4fKrc68Wi1icfwacJZwqXbNndEs2rAOIyZFr5oVYGVlJbg7OJiLVy/OGJrgqYwja6t/nMqfdHBJeVwAxcSuJcsT64NOFoCcbi2/FzLy7G2lT71y8Mqaf8ADRPZl8YoklUXJYwWp5wJXZZYl1Oa6NHNStzSApUIUrbqw/w15X3HktUqW0TohDmJsn0FKCNtvt54flcXzpKV1uzOvxrg73CQU/H8viXJZ1aA9sL1S3QQOJQh2/vlE2wMqnHrc917k8JSTy5GtzfXzfvyNNLVljKvOW/4pG51bDHIHvyWLrbw9cNYf3rybaqPrLkkeQJHpn1/RDqiq5r4UUVoqQLOklw3Nzu5euKitUX96U3TQATeSwUvo1VtXInefq+Mqy4QdSxmYr1tjHGD3Q90cYPdD3Rxg90PdHGD3Q90cYPdD3Rxg90PdHGD3Q90cYPdD3Rxg90PdHGD3Q90cYPdD3Rxg90PdHGD3Q90cYPdD3Rxg90PdHGD3Q90cYPdD3Rxg90PdHGD3Q90cYPdD3Rxg90PdHGD3Q90cYPdD3RxhT/tD3R5Z0j+/wAf4M+bfQi5Ryrsx7o5V2Y90cq7Me6OVdmPdHKuzHujlXZj3Ryrsx7o5V2Y90cq7Me6OVdmPdHKuzHujlXZj3Ryrsx7o5V2Y90cq7Me6OVdmPdHKuzHujlXZj3Ryrsx7o5V2Y90cq7Me6OVdmPdHKuzHujlXZj3Ryr/AMB7orMvG79Zf8Xlz7AzI04pEqfhDMuxINt3o0V95LtovPGkCYcl/JGRqyC6whX2Q2p8GlmwlQcU0qiWrsr9KEFXG3UUbkJsqosDLVCpBiIfo221rDXlmG3nhuaZMtYuaAmXHWW0cuQAIluJU3UhxTflzcZ840h6yfroicV3gsoLKpeqaraLzJvhQRxmxGcbFv1FCtKwyeI2809Ww21yy2xjm8zLNXWirpcZeikTvCll0dl2FIMTWHoPpSLHHGxvczPYMaUlWjacEGCUCJfN66bemkSStLKzaPqtirUgVU2osNOE/LsY1cIDOil+umAZbpeS0zWBNqYYmAxEbVWyXVVfuh5vHlzfZRVJkT1qJDDrsxLsC+nk8Q1zz6oNl4bXAWhJEjo5WUMW27necyUbl/JIY4Vo1JRlT1jZcvqm9NtIKa4EkiqOjwfb5Ufv/GGJlkMMJprEtTYhbCp96RLu48u0kwqi0hktSWtOaHXMRlzBVEeACqTdeeHKPy5uNBebQmtwp7KQ7KqoXNgpkddW2laxNNqIEvBXLb9y88C6061NNkeHVlVWhc0PUeYcdZSrrQFrDBCCiAgNxma0EUiQVxWZqWeNUuHWFejOAeceYlxcWjeKVL4fbAEbQbdUfqpFsxKBM3qiaxElPZE5KyEo1L8EvNTvKqiMMGCjR5/BGvrZd8FLhMSxOgBEdD4lOeG3kdafacVUQ21Xam6DfJxqXYFbb3VyUuaDSaOX8myrjd2sJ6q0LpSHZhHpFx551UMxDalqao6uSw4uI0yDaVI3FygxE2jFJdZhDEsiHohh03AbacdwqqsTTUu81gMZk4ZZBnsXLbDRKQOtOpUHG11Sh7Dp5JonVrzJDBgo0efwRr62XfD1HmHXGM3WwOpDEkr7suKukJCyZaxDX2ROHjMSrITBAl6037ERInmpt5ts5dq4dbJdlF6obUpiXaV7zQma1Pp2fjBA4lpitFT4+XdbOoCDSKtOYUrGlnVPycw28ja0XO7ZDOFOLLmMkDVyhULk2iSUhtZewiRtEdNsLBI+hIpcvD7ODf8AardX8ol3uHDLI22KONcHQjqKeitsaPC9SdbJ1Xei4qxMYs2E7cicHqzR0V+kVO+J+X4QjQOPi804QLRdWlF3wUm07iC3KE2Llq65k4heyJJkS8o2bimnNWlIl5Z6ZGVcljKl4KqEJU5t8TaCa4SSHBmiUczpSBLmWsaUdZmMQZtlVDUVKEpitv8ASNG4zluDMOEeS5IojT8IlxenAwBVcaWfZv8A5Mu6AOZD4JfsXPLdGAs0w+8Uy2SYMvhpbnvokTs4k1eYm5azYt161TqpGjMebSWNGNa4FWo3lspvh58EVAJdWvNEvOTJmktNNJrhtA0Gi/1gZUpgpsHJgXHMKqIIpVMq784mZVmb4djkOENpeTpvz37solJOtVlmbT6DVVVU/rGhRv1pdwldy4uvWNNIp14S4KtZcZL6xOK3MMJLuS5hLtBLUIVUd5U/OGXCRUmnh4PVd7YLXuT7omOGOK225Lm3VErthBYfGbdKYbdW0VREEK8+/OJtxrSAkLwqjbQy6CetuJbfziblZk8JuZBExLa2qi1T7okZfhCOgEwr7zggtqatKJviVR6aSVclxVskIVW4aqtUpvzidmG5hUSgYIqC6+SJ90Aq7EKNIGTlJeaF1tHbdl2+kaOaSaR4mp3FdUQKiJl3RpEzOgvMPCGW1V2Q3L3eWSZI6U9G1I4I++ks626rgEVVEq0qmXVAoDiqyzJGwLijxyoW7rKG5e7yyTJHTotSJlHDaamSQcFx1u8U5+f8IaBX0UCkjlzdFm1BJVXO2JaXZmEmHW5hXDtFUTYnP1RpBvhVG5wheByxdQs9Uk++JRnR8wpuMKZk8OSXFTJPZDn7SfJUelzYxFzsrGi5VmZSYdGfQztFUT0eeJ99uaxjcE222rFql227dlEnPPTeDho3itWKpVGiZeyJtWnmGJg5ojxHmL7m+jJYnFx7GJiURoXMPYtB3f8ATEoiT7cskuGGaFL3KqJ6Q5Q66qqV5qVS2r8woQ7UgnHFuMlqS88AhrVAG0ehPBTd4c8/EvmnCdKlKl+7Cba2mK1RYUizJc/3OWaeIEC9KoXpdETDhPSgMs0RXR1Q6EyTbGCBsrVrFFy/UIeuMJHW3E9ceLEuw2bcwLjBLbtzwqw0827LTQYqNrYVUQumJh15yVlBSYJraqDdzJ0QTK0vErclh4hmJd4mfOg2eYwDavyyPOChNtKeZ5dUcIceZl2b1bq6q8aFaeoq7UUc0JOdIkOCOg89MjxELfVejZDjzT7EyDa0cwiVbf6RpRcNDdTCs1aqlT3Q6jrzDQtImIRHkJL6PXCMITaoTeLioWpZ61Yl0l3WXwfOwXAVaIXMuUOuA8w9g+dBs6qH66ImkAWVTC1idTipcmadOcNiy8LiE2K0Rc0ySFeA5bFddJCUkqVtvFTLJYZFXGjeetsaAtZbtkPED8u+TPnQbOqjDrXCJXFaS5wL11R59kMmpg608lQNvYsNvG8xLi6tG8UqXxMNvuMspL0Q3DLKq7Eh1uamGkFJdXWyE8jyXPZsygJlJth1zEVNUloWzJMtsTpurKSqMEKOW1EBqm72QjCE0qK3i4t2pZ60cLF5l9i/DubJdscMqOFi4XTWlYJq9pFFhH1UioiCtO+GSYJuaB48MCaX0vVzjSKuPS0wrcsWQLVQLLo/CNV+XV7DxMG/Xpt6tkSTzDwOTEwqph142aZJl05w8YPy7+D50WzzGJNJlyXUlISWXJda38Nm6D+t+/yrzy2tg4iksTMk88jFz+M2ZCtF2pRY4KD17bUk82jli65n+XglZtH8uDK2Y2LUCwrYcBwqEswyezcl1fxicVmfFkXJonLH2b2zHn2bYI2W14HiVs+jE+IzMuQOtqkuDUtbTNNq0hiaem8NWQaI2rFuVUAaW7oA5h9JVw5p4huRVH0K7IaGWVTaYaFoTX0qb40Y8TiqcuJNOtW52lXWRf8AqibRmbSbcmBwwsBUtGqLVa9UT6tmgzJ4eFUa+lnEwzKTASuMYvjiNXCJekC5f1jWm1cApbBx8FKAta5DTZGjmOGDNeXvNGmrATLLcme2JwmJtJg5hvDbBAVKJVFqXsidRwqK5L2h0rcPdEu9Lu3ErIiYW5goiiQ3L3eWSZI6dFqQzONeUbbwv6AiLE44xNpMk+0rTQICoqIW8o0s6LlW35cgbW1c11Y0cyBVcZxL0psqWUSazjj0qTSK2PkrkeS6ur05xpGVxwlSV0XANxu8eLRRXbCY02rrXBiYxsK1EUkXYibs4KX4QmKxMEQai+VFaJl7I0lguXYz7RBkuaIJV/GGWvKG2uj8F0mwqretdX8IUJZ5X0WdTXstrqLsSDknpgZYxmMYSMVVFS2m6J2x4uDfs8W8SzZRQTZEq006k2STKPukCKiJRKUSsT5BPI8rzBA0KNl0bYE25hhuVwqCykt5RCt3lTn31jR7iueWkXiLCtXXQlTZEwgaRF/EyAG5dBWn0lpDGk3pzDSokbNhXIXdCui9V5XVTDs9H1q/NF7pXFklYFpV1BVVROv/AOvHF1klBwdip8SoSz5NgudIVTVVJc1VfEF1g1bcHYSQKzTquW8XmTwGgFRDG0ulP+W9OfwbfETwrG2vg25+Dm8G2Fjn+dt8J4ChawMD4VgoSNZPBsrA+AoL+BU8C/4VqAikXMniiQNkokdiLTaXNBCaUIclTwARgoieYqu/xEAEUiLJESFE0oSZKkG4IqoBxl5vnqW6y/8AasBMzLRumcwQUQ7YnWqcINpRwmVdw7kXpjSbfBndVmtHCotOb/eJdHJdzy1fKk6g0+qO+JMdtuk0SJ6ada4QvCibFvFRv76xOvHV9hgQUQQ9t3OsaNVlFEMJaIq1pnGjheaMzmxzVHKW9MTiSoG27KuCNxHW+pU+6HtHtg4j7YVR6/aVOaNGI62bky/a5eh0Qc8oJ+i4hzjgr1VjTMtL5ChsINYfZtsJpu5HyeTXLmtgSbacmPJXG604lQLms+eAfaQVMNl0AwqDYLmJ98PFMy7LwuqhKKouS9EOvONtmjjeGQbrYZXg7Buspa2ZIuSc22AFBCgTGOn1u6HheaafaecxFAtxdEPLgsq08iIbNurlDImDbYtJaKAkSa2h8F4nT1xNgiD8KJCPozrlBlhMjMOBYbyJrKkMIrLLpseaM0WowYusMuorqupci6pRNXCCcJUVOm63mgldlmFeIbVdtz/+4EhYZxxCxHaZ0/5mX8Fes21w1+IQQzIskgm3ktMclSHXGxqDXHXm+ftH3TLrZ4IUaRNUutf9omnZqXaqkwoqTrtoJ0J0xPMlZcFuALxqgZ86w+TrGC20yh4Ru6qqv0vViXOVVpDNFxAacvRI0YrsojxzJEJKpqnpUjSTTUvYUpxXL1qucDotZfXUM3787raxo4nJfHdmHF171S2hbom5i3y3DbLui2NKgwNg4LK0jg7ysB5PN0n6Hd9Xm+fQ8lL4gDaLmFrJBgotvCR4nlAuoXPDzpg0eMiYgEGqVNkY+pxMOyzVt9WkDVtppB2C2FqRKBq0lVqHtrE2VB+FcfKESjWIgWI9Zr064FpBacEFq2rgXKHVD14MuC8d6iYVRC50iYxLPLiInlzQgGDJmgWI4TdTp/ACvI0SsplfTKKJmsE64g0HjoJoqh1wriiNUG4gv1kTnpDZggUcSoVNEuh2bmmgfNDtsJ222n59EPtNtC1ZrFU9UE3Zw3joPlMxtKsYjdghW1FM7bl5kh1BFBwStcvKlIBRw/KJUKuJrQrziDaK0NBOqh1x5l916lTc9AO+LppVFmto09IvBLmiIqTBWhnvgzmWnJhxJjBUGi4vTEyxKkhNs7XDKiD1rGG+lFpVKLVFT52WRS3BXozhl1UqgGhRMzbc7iYp3A2FalnsKJjSKTImLjeq1nddTYsaG8pkx5z6OcTDQGimU8TiJ9Gm2NKtC8gDMC2oOLxdWm2NFMHMCI4ReUotIb8owDwu1dxgu1foxpVG3UXGdBQ+kkaGq5kx5z6OcaYS9LnnBVv6WtD0+s0hNuM28HzrWmyJMHpbCwEVEdxVyyzWkK/JSiowa6iX1h5jSGo5LnitDzlbs/CLWZwZOaxr3SL00/W6NIG2rIkduCrw6n0sollYMXECXEFUEolc93z2RtIKAO0zK1IPBPDPilTNIxJg1cPnWBmFTyRFai9P8AE4Ty8NrxIZbLJDNBialBkkbRo7QdBMxz2lExo3goA222qi76dabVWNFNrKMucJGjhEme2JhsWm1EZwmkqnRt640o+kuB8HFrDbXi6yRIPNMgyroEpIHXDJkw2/8JVKOJVNkaRMJdtzDNuxDztrDBMgjaOsC4ojsqvz/llCtuuVEuNQURS64VonclG1VtSqpzViXW/OX81kmrBNGdWycxVSnpQ89NTJNk4NFJG0JF6xiWKUJV4OFEMgTNeqEbaNMNFutUEXOHhccuR4rj6YDGK6wEAct3z8syjS4CZXwgilSXJIcO9lxWqYgAdVCD12VdALyZQ9dEhgsVgMdKtoR5lD006Mu4+jllr2wabvrRMguC0jWsZXag1hpXDbMXUqKgVYxcRplu61FdKlVh+8mmcArXFMqUjDdtWo3IQrVFT5+WTRzyC+jSGnaVwzQqQ/NszLjjrh3A1ZbTOucP6RB8idcCiMWbCpzxodb8pfzuS6ucTDQHVwp0nUSno0jSjaGSMzAt+WRtVtt50jRku4+rbaNlU1bz/lgJY5hJU2jVUImMRCRY0gJvq6664CiqhbciRK4JXWSwAWW/8AgM3b2mWhWl7pWpWC4O9aQrS5stsKbxk4fOS/wCV13D7stsMg5xCMUX2xOSqyIIy0dBMBtVpK7axM6OKWaGWbaVRKzWHLjVjQ7SS7JcIGjikFa5xMNgIWjOk0mpup+MaXfaYbI2Baw0Uchqma0jRxiyLbjgEpIAUrnDDrLDbxvOkhkYXU+jGnbGgSxGbKDxY0bQEFSYquW3+AMJ58jb5owCmDVrZSGVxFqz5vogmzNVAjxFT6XPDj808+hmNL2qfhDByhODgDQTPjLXasGLrs02qlXyVKL7dkPTUsSsK5u6IRZlxXFHZX5+WcRvyCelWBAEqRLRIcsmGnXWfOtjtTvgwR9sppsLzZ3onXEspzTTZTA+TFUXNYemCwCmcVW/KN3Up6MTaOuNMts0Jw0TVG7ciQweKDwvIqioxLq443Lrjql5DmvRGkQdFpSYJupb8+b5/WWR1cBc7IadTNWzQoemWcU33DvASSiAtc+uHp9vF4Q4FMJRyEqc8aLWhfBePl0w+yN15zavJ9WNJALbyszAN6wBUhtpujRku+rotg0t2rr+yGJfWvB5TXqjSdiH8JVuyqer/AhzDrwS7AlbcW8oXBdzFaXgu2FIyUlXesBNXJaR2U/gAmyZXhtePDAu8RTFC6qxOsPSw8DbOiLag4Q12pE1KONCmjgZVR1Mhy41Y0K22goLw0c1U1s4mQbWgpOk0iU9GmyNMPSwIsy2DWHq1pklY0bVpccwKoiGa/dEvj2345YInxVOmVYeeKgzXDaEqgmWrCqIoNwCS056fwAjbrzhgnokUYJPuK16l2UN+UPyfE1uL1QoE4agpXKl2/ngnZknzIkpeDtCSGSYvaRkaAt9S66wgXlYi1RK74VHXnDRVqqEdc4udMjLnJa/PyzyW4KdOcAAZkS0SHhanBcmGcjbtt9nPDjITSFONhcTVmXVdEpizmGc0moOHWH3QdsmsdW1LCuzT0f94neETKA0xaTjmHvL6MS7jT+ODyKqLZbATMxNYAm5h0w7s4mWhm0OZlwVxQw/R64aMpqrzjYuC3h8/T8/KyjpIyudlcobcHjASEkOvy7LvCnSu111QXo54dnG2nUnXAtotLBXnjRi2n8F4/Tnuh5gRO85tXk6o0gIMOuS8wAVtpelsaPl30dRtpsrxRUvSuyGZehXg9idFIn5i07JhgmwyzrRIlsNCTClxbWvOn8AIqoqIsXUWnPGQrzwc1NP8AB2BK1FsuqsEDKqdF1VpSsa1Y4Vb5G+z74uotvP8AP5Syy1ZtS85SGMbzeIN3VWJ4ZkPgCGnHTJBrlbE0Dyf/AIvAyy1KUypGg2mjtBxNdPWziZFs1EUnibonq02RpkpTlaA1ZTjUol1I0WDgEcyQFVN8EDZFlM2l0Bbv6I0g09juCEttUUFqu61P4BQTMlFNiKsYd5KHq1ygdctXi57ItqRb6QRzDavqqUriKKp98Nq2OADQ0BELZ98EgGSCW1EXbFFcOlKcb5/WfQgw09HfzQDYcYytSHmmJkimWVoomNENeiHJVuYNZ1sLl1dRehIksZ91HJsdVBHYsPk0443McIVsjEU4ybuqJ85t88GXtIyRNYlKJV2XcJwHxVdZKRi2lwhX7a2+lTZ1Q6Aq9jtBepK35MuhF+f7Lys221ygHA4wLVIecalbJh1aqSnVBXoh2ZCWUZxwLVK/VTppGj1wuSfS40Oy+HTEmVfrd/SJ5MBFamAG5vFQV1eZYkGSavBltb20d2V+lByptl53FbIS2FBmbLqPmNFo9qddP4BQzaMQXYqjlGKrR4frW5RUGXCSlcgg5ybV0WUWiI2FVXp6oJpptw13JZnTqhMUCCvOlIBbCoeQ5bYqbRilbcx3xMOUNHmjEcO3NaxhYR4nqW5xKOIhq69fULdlsNBMAbKOLSqgv6WDBFqgkqVpT56KUWWRZhV85DCvebvG7qrE65MGPATP0iqhDXK2Jp9466LVjV1tRUpkiRoEAMhAkzRF25xNIJkicPIdu6myNMNyq0myBrDpktKJdSNFsEiuTKgWSlHwohEXHfgt+5ynGiZXSiojWMiJiJXy3PGlsUyGYxguJIXBL4a5o4MMq5rz/fGhhmlXGQXq3LWJQNJEuMU+CtoZVWkTf2x/j/ACqbIPiuVDgKiLYNjaABsRPFF8BQiSu3/+CaMGjFsG0qZlHLg93HLg93HLg93HLg93HLg93HLg93HLg93HLg93HLg93HLg93HLg93HLg93HLg93HLg93HLg93HLg93HLg93HLg93AA6YuA4lQMfnVXJJ1WjVKLHLOzHujlnZj3Ryzsx7o5Z2Y90cs7Me6OWdmPdHLOzHujlnZj3Ryzsx7o5Z2Y90cs7Me6OWdmPdHLOzHujlnZj3Ryzsx7o5Z2Y90cs7Me6OWdmPdCOTrqumiUT+I//8QALhABAQACAQMCAwgDAQEBAAAAAREAITFBUWFxgRCRoSAwULHB0fDxQGDhgHDA/9oACAEBAAE/If8A626cXSheCFVgujo2YihXtsUE36rOTeDkgPEclzoDbZri4biRlCo8Vh29MLZR0OsnA5vTt+H9F/c0hZOqyBS6Lk4Gb3H2/QYYk3gH6J7XyZYnrZYfk9E6Im5hgpG1TwTKD84Arw54K9NB3QcgwCyvM98JI17PG9OOmtY95njvmBhEms6D6JoSPs3MiNpCWauuoy/STFkVF8oDoJupBOdxhHZaoRG9EbZFQ5+5QM7VLpST9friIjREvClv0+mDGod91d2vbr3uAEg7RkRoOhpZOmWBmEtEPQz3e34e7JwgYicI9Mlifs//AF/7Dvpach36Lp257YCTw6qXROrnqIHBfqd32O6qRAjVXfeufw/bnzwSRxefOd1yfTdmurmLIQSLJsjtd8wlfL6GO/Al8+mMuoOm4gd6BAVm95rv6NMjVtG2lvLr7wURGI673HCE5V2+/wCIQhAvf06iUR0imO1Y1aeXGGCiT66Jzw/LVbgQJJiCsCXXPOashslKOvqfABplcFNBwVeDvgSJJ2Fi+mVLGXnznHGSV5JBHFOv/ntIa8i/SDkXZOqX8w+2nArwX4oQqeAKuU/f/tgVBTwSrkEqOaR/AEQ9pir6G80ZbYqHdCp7/fywC3jBAVdTmch6766DuoBUDgbNuN11x9sxqhCbHl99B5TKyWyUnmDTSbWq9pVLNgAheGADO0HyZzdS9DEA2cFHepPhqBNoo72T4OUgiJXjcmdX4gUnccOPhpqfY3g5PNKc7xM/ju/EdEW1Qe4mGGtRKRR8yJZsTIgQgVXghlHG6Er6piSSdmBPF55wBIbBB6nH+asmcCwfOtSzqu6AZbl9yh2nT6ZDAZPBydHBEfVftaZxFaDvTz6PPGFRszAahxWR6dev27gLKjd0ifJsHc6kF91E3SAEuyG2zdcQoNgiqjNu16+ftbpFZ5DPksHVOU6i6fRG++LScORPX1OBIYkhatDVA69x6GABOAwTwMtnVXfyw1rMWhNg8XCaUkhgyXWMEyDLx1evSawHkUBpKaOxSHRTsZUpRgQSHMrPPXp0+D7gGtE27reIAR5WYaYlEhohCD2pVOTjP47vx+ZbvUWQT29sAhxTQcLYXicED1VpBJxAiSI9L5m0yoxwdiNkdm9vTUc5TTG7pTp1ohyjOQBR6muvDJnr/mp8D1YFsvvEN6EsTBUz4zepO3vP0x9opwZbrjUAeQvf7VRWIW1vXU8dcRDtzILpIVI7nU32+2m2B1Vjje30enDR0AHFXJS6ZWU6V+240QbER0mAQfGtTvpE9NlrDjCZRRrKOdq+wFKUzlwo7JW+0muxrJW1tAHsZdb8odDRgmpUgNZXcls23vkZY3gdCyzn1DtiTsM1cYaF0ls5vfBFnCgh6KyO5sOx0cakAHl3J0ylX3kds5NDUfaTFwCLoZ4SN4ZIHVuHK2QRWo4UOXvgCSUShOwv54GZAiLB7KYUTqgAdIZGpzeHxm1XohJdAU11eODnommiqnPTOLUPRcvCr4bc+6r7/wCbxxhcX4Wz2XODgTst4bzLvWzk6mIrKSI7z9evMOPsobIQF6t8bnebnGRaRbCdcOLzZvv/AI+/Femg8idR/wC8mTjbdC15YA73193Kb8V1f0Ok+4UIK26Ywk5KtvKdv/TPYDzrPJ82eT5s8nzZ5PmzyfNnk+bPJ82AcX03+PgBFf0+MWQq8BgadJAaP0/mscERspX0XCgEUEu/O956IKT+mOBLYSPp8BC6H7Qjs1rrreLwd/iiNEkDsmldbtnTo5AlBa1YkFIFqx9z4bD3M5NUd0eThc3BHZrXXW8Xg7/EAllUNg6Ijz1T7k3TamjeNBgrbyaEe+seeZcGKU4nhxOlAMS0Tg6A8dfsUMhEk6+L8/V+whuBZoNBUhVu+g5Wkumo88AUR9p90IfjZKbL0Zmw88lRTZXcREvdOn3oKeL+X2OwsV+SOvlcdCTkKJ7Cvu4NqzvU/JX54Xup1q/NLkOn+HjAFoZMsad9n8/iITi/Z+sfmwoXegGCDjQC7po08YlpkwbAUKBaBE1px7MUz1nLzI/XFvnCQoxeeh8j4PhGkNCwDPEfm59Y/NhQu9AMEHGgF3TRp4xLTJg2AoUC0CJrTgabCCIonhb2eMvULRWgBAUbIRVDq5vAyIPCoZuVHXW5In5bpUpxZF9cPHUUFkXmdycmng4wFkegfTTRl1R5fXDFwBACgmgHmsvJiciMcNIjRHjpJ2ecPQxTobBqRZoKIw6/xPLn0PFFFSDIOx3Lwc5VE/QShoi8LINYlHiKBShFYMK613TbXBh5AhiCG+ywfGJCgVidxQUweInGgyEIBgoxUnU8YEDwYHOaDuFfBio8g7qrGahM7r4Kt62Wbhrpqh8mBvJJE7jHlY/dzTwdbNfJ12ALNuVh7MJBo0o9rS86xFwVEUSIs2gFlW6ysPZhINGlHtaXnWSWCSQGSL102gDypgec2YJ0WLzw2l4QzbR4wF3vempCjI62YB7yIHe2gsOkbdJznOggRbbNF0k0eXBD0eGnYg31sOeHnKXCxdURPoz2Pvf4fRxCCpgBa5VoGoaeV0emDgk6o5/cOf3jiP7j++P/AFH980/rv75YdmlHs7zSDeHYO9+H5P8AI+z9Y/N8CfRcPpWP1v4CDJ7winPiIezvn1j83wJ9FwbiyalER7wYUGUyTFDk1QqG5RYUnUx1t0VadQQj6wPPVEYzXCEM3OIb4M+q/n8OcbdkWZa0HB297WigQlUR1jjxmsit9YkvWZ/E8ufQ8bNyARAOhHJ3xJp3y1htkYB5TAx0T3OlHXjYc9Xn+f4M/ge/P5nnFhkgeARehRTy4auBJ2TXttu+0zgxQZxXb6Bv2xFuwiU1okgH3wcI7RLIkVumnaOAE60AxNHfdzlGljgDyOps1pD5cvAboMRUuAMarN7lWOrHAHkdTZrSHy5eA3RU1rnarjbutCzTvGQblroE1pOAas1is+VbNRUFUdiAxi60oGKqpQzgB3pN83WWSFWQwNVSkaspE8wOfZ469D5bZq52JAdw8uyUTw9vvf4fRyIYwkvDb7D9c2AdXRlP+GB/UpgZJ0wkxx+C4P2hXsOP2xGCIxHo5+T/ACPtgigKOh1cANK1ABt4l0EL1WfEacRyjQYHqHzBuo/FLKDhGTE0VV3u3Cgbw2nys+zyxZEH2OftctWhZ7PH2H+QnV4bZBrUu4+zZxzgoOcXflcs45wUHOLvyuDVGh0jG5OWjirPniEqB0jN40LAaUX64yTDljXqYGa2ykbHdT3wEQIHaDwXrtq9a+n3v8Po4BYbbed/8wRGqv0zhOMIDgzuJAfkY4SaLu3H4XHHrgGNBD5ufk/yPxz+H0yS0bFnV4xFEEo5wNx7Ynw2BB1Up6ZERZGjy5oK1LlBmkKyCF31vrn5P8j7OhACoCk8tjNtcYthJHEENu9A8dcPwws2pwlFl2mKoQDQiippG10dc3QdBFs0GNtEwRMBg02MUnGUS+OwoErwvN3v8R/h9MQgW5L3Z/Fc7Ojv/XG/YDtjjlmF9JES/Nx85356wcLkD4JNnP5ufk/yPs2Bz2bQV41SeTGQa/KhNOlD0q44zy3VtCtI9AdTE1cqQBBVnOwRuuJQ8CSoEpIMK7dPSEOZQ7E4hH385Wa0rF3CvLy38R/h9HBxN02vmyaBlhvLecmOOHIOiJdPTJh00OU8x3PlinPyH7Z3vlP2xQBYgAU1YBn5P8j8c/h9MJDVL1t/JwjOir9P55wyUlKz4EDHmdsC17N/C4t+AbcMH3c/J/kfjgPejvK3GROj4fTp8s42ae5jH4Wgw+M7fbNcAOvgPw4nFE5PPtlvPOU5wv46SDROHBPC4WB2Ht6jmwD1AH60z+RfrlP431z+h/vn9T/fHp/I/vlCVetx7H75zdkV/kwQ5l5Tp+P6NQ7X7httt8uJ2v8A4XAJXQ4DveA8ucQsNIg9N9PsOAhZ3I/QDPBw8HDwcPBw8HDwcPBw8HDwcPBw8HDwcPBw8HDwcPBw8HDwcPBw8HDwcPBw8HAJC3cr9RwAEg6BToQCeqYG0Tcp9xNP2ajsl9H3Xp+b0HLYQKQT1KivyMhlJ1/QIf5G2222222222222222222222yMbeqp81PplCINGNeugT0nvnRBYOTveH1Puufv6sA6t7BvFSSe0h1Xt2Pn4/y7TF8u13eifXhzi6gvX4fD0TufHXnmpY8vl4A7va5DHP7L1v8AmRQboGzueO51+STcQPZOj6Jv7lh2k6XRBd8qHs/dyFbHjzkTaQeMl45yWIKhFNad8N+ylVkQsh4dNW6vP3dA1Oo7oHwVH5/EhI9JuKD9ff72NQM0Xfy/wQBmlm1VG+ET7kwXivr+w+82UEzDBCnKP5YcAkqFKAKNLt+rqt1lGZZUjphx0zbt4xc9QDdhrT8scf5SVRpAadIm+db1DFCCUgOZzbtuD4NdFFAgdtm9vjf3ajfoQqfzPiQiAT0B95v60ddhTBzvs7S7XUXRxowVLl90sofFe/i3EWRFBGKNkeXenxujNaJSxpomh1vpgiGFIEqNhpm7sXsZep1+8Er0Y9Q/c2K8UWw+S/L7uqH9xwLpdM477ygixmAWFRV3Vm85RWuPwU3bOmPyYcvcNs34655wm5+aAlJNSaa7nbJJBAiZhtCaePT30oXmUKTqcQ5LziCpFEiCJULycSTrcfkFefBvjdniX7sQGqPbWPq/L4hzan1FfU+8hKaD1EiYPSiLB1hbPGtGOKPcAaLdOzd5r3wYTJDG0AWRb1qHuwuZCN8sLUNXjffOGHqw1S7nHOBA8feMb6rWvp9yDCMU4Hl4Nx8OXj5A9H/MQhqdEtexkvxkxvhy+B35fjLLQ+ndeQp5Hqn+dshg9DcvISHovX7p3goSs6Dy+Hk+eVC/hqHenHvP8rfFOQid7xg0IxpL7vl88duuIyUdtte/xcIoRGROG4MUQE1+mfPD4wOY2kaTvf8AKCFmyAe7hGgtJEdQ8h5d9u/3lkPrYH26486fI+qf5GrVq1atWrVq1atWrVq1atWrVq1ao7HdwH6Y4auyp8uD7cadeTXs6flgHHzJ/kNtttttttttttttttttttttth4oPBflinkOqs9nR7f+vGKYgJ2m6huu83idNuwJcihNzZw4oVTXa7gaAig0OhhbEajSKRVLGDcJIKMz6xHURBJxnTF6GnypdB25EwLQpCG9EELNCl13ywpABmIA7p1Q2VLjCcLSq8RAY6aZffFBLXqQQQVouh6uPNwaaRBl0uxB06sFQikspUEQRLwnUy0duhA2AKwSqAU3jnrk9jNAII3Y8muwlaWjmdoBoegHU0ZWKELS60IA1B06tmFD7aEQKCJRidR3jhKywBS6EBSFFTIhBmQD3roPOI2vNMpRDuMQTTvLYcaeYpQHW4NnS6ykn0i6EgpE2sNm+YmpvzTG/K1pO1GwADUj3xh7Nqy4VYd8MmT6SVdRXTbAGAGyYgwCgg1IdDYHQQxHF4YGiCm5y9Te8W7HyQoGgOyMWObLaYBKvUg1BUjnZI0w50siTXUxWx1xJ6p0RbemDagkjGkIOw0gjHeK9lzRNLsBixizFp5lRlVi8sAFVNZEfAqgNsAiUYnCJcX6+4kMUggDqqF64bytQAdmjXO8RiRnlb3Ft69sq8FO0yRUrbwcc4T3NpJGzrjv286wMiGkE0SQ56KaakxDLEgSqoIxvGzAgjbBBYAVZtnBziIzdqNQtIKVs44WmCxvsz0CCzWByN6Zp2Z2CuiAqr0BxUKgEtGpbRIzY3HCXpEQFdDCMOd9MiaZWQoHKtOAbddYMnBYwYgoJHSIJTNgnYaa6mh3vX54T3NpJGzrjv286yK+LYA7dgMXcWdcSIzavsjsGhRe28j6oGC0gCwDsBreBdc10XZBst6OzXMTTTKCMBEApBRY5RabuiMT2T7/AGrP4RKIlYnTmayV3kfVTOS+ZOsxQJszrQJR6IIMd4urEqs1QIRBYVFhhqQIEeR2SU3NseMHOcIJAWQ2UVIvUMSwAwRgCMBpvXHjAts9RztgEAjumJMUC45crAgRox4e5msrwQhAJQBBZY9zKQp9SN6yNjw9N4oPlJYloUCcJETesHlAqEiMLLF3wS5Uihr2xQDahIiE5BN483WIsG70wtDari8Yqc43Qt2FKeYRdjlRQSlqrsXcYp1B5ydTqQhEiyXhNXS1kRsdqtipBW0VSEucO6xazZNCNGDSPOBPXHKABfUK+XDbjg8Ap1gFNUSYv5BApwJWU9NBeuK5c+UK6AiHSuWvBj3SMPkm6yB8jgE6v3ogPG9F1cW0QYRBvc1re5jeMAyAG6N1RVawwSNmXVCPlX5o/OAFPXYmcHX1h5Mq30exBSNPQQnOLk3BBb0gAxRKxJkMftJdkN1IwXYzWTkwJVjQFrbo5OZlPhjdSxJ0EUGDTCx+wliC60lrpms1rgV8DvN+uiIeGqymyXeBGkUdfFBQOwbdSLcsCplYgUvdgdcQWlttIRsnIkvTAAFjCISFE3GNqaxY/kimyBQYF4Asw7Uql0xGycklusqqQ+F1khThrhNXHh2Yc+gNbOCo1BoabOdxEiC+wbdSKOaJRDXqXZzKDHe4ArAGAEUGBFQqujHGdDZHTDaDyG94g6KGigiC8dht1Io/CoFqEk0D0WsdZVBI0RBYRErkTenjKJ0mK7AsEdogtN6mchEbA+YlCxoQ1KbwucBq1irqjwpEXritcwQUVqGq3c1+AoJGEeycOJrXbylq+647uUvcWHiq+/wpCaFheF5/L6fFKVUta1X7AUtBSwODxz9X/GReGfkR0+yYgtKl5t2/4bwij0kS6jb2Yc7yWHGSqogrFNCwa9cAAFOoeXTUdIhEbMkCELKqG6gwu9dHnKKZN0aC0AFaPIAsTNyc4JbAoKMdlGO8HXgFMuxBQXlABN5XGhSRR7mk84VSRUSULsBBYosUya94ASEDgLYClTWooiwQpADIC7HoPDZqyIgPVTSdRGj+uEPtg5VFSgAEVdI9N4aHdotgoii6pS5FjS4VBFKLxrnNi8ubSaiuuwEI11nGrDoduigSNLSS4lQkipWgRnGtnGJFUUKmWICDpUgp64EiWwsmpxQ32uJp8pUWXYEVpyzmZu303ASyKNUnTepihosEBVIBtm0b0m8klWkOxYgIOlFlOm8TDDknTWoIDUtjx0xcOXlkxNgiJsTqY3MBqkMUggXVUL1xP5tEjQgqy8HRyiRAgUDto7UHXGVDDigCQSwtahEmXYv5DVIKjyAteJUZ8CR0tpSgcbLSTAiKQpuLIgkDdnJKOaWw1V79JJOt56YaU60UrU5C08MurQSYycdoEd3co064Rz1bYh2DUSpnfZe1WlOnw25S2dMFPBTVRBgp1GdlxcqysmssQEFiixTFk29UtxE8lNnTphhNAoSav+fo1/qwHbAV9jJgsemBEBQRox4bzgTQpwUsCUDoUOFZfhyUpNFAoIiuks6zIBVCnXShOjXLdXFyxrHaAtJ00KJsmC+IgEUJQLq7hdUy4t6srBOjCSoxVELsghyoBBQgFUjdJMppy0iIUKJRNRiM1gDT4ROzLwK6HcmCHhiLL4TDgzZ75CSgB1sxt1AsrvBNIi5UroQg9Z43hQQyVsRSurQDrVN4+GYwbNsFKSJWr2MdFiiCRnVMNPAIb5xqSGE6EQBCILVtmUmVqXbTRrSa61hnWtQgdpEZRH1mHalUumI2Tkkt1jTyURFlYzYiDxS8YzsMkG0QBAkFqjozQFIy+hJTh3o1nUEruu2SNDovnIfixkrYIAZR1s30wNgsLIdSjwg7E1chmDo7YCFL1FaswhkDaQAqaecZz31mpBrdKLYSI0x3rNnEuEiUwoSoyLu6xEfNoooI1ASrNsmhS5EQWqaKJKU3xkZQdYVSVtibl1YusGVtAkMgqiqwDRveSIHwdqLQB1IU5VNW3RbBcvN5cEtCBUmrbJFyqCEB5mzBCIjVtrYyBwLWNAw0m1EcBKCNlts1LnNtMiTTo7WSXr+EVCcRdgAPkT2xUL27oBfcHy+2sMbzh7/cpajXEGSgjHyRxJqqFVdrXl+wkOamJ/DXnIwigQAeYAB5Q3Pg+KV+QZ6UH2/3CLoLnHP2zfG/x8AHyHBBejlFNlcV8ByvTIFGmQDecg2dOAaPtgK2PjBAN65zrFDkMRlurxM6bC6YkW8mUpY6YoBbeM5JF6Yjyid8eQdOZ+KmGcvsZIh1wXR1d5YDbcFIl4wLAswSHoftg5zT1z8vBEpNZ9Jn5375KCvkwAgbM0CUcu2Tx8sU6cUw2zumDa1T8Vs2a+Fd+ON8ZXf65U2MxV5b64Lgz3yry2ZV0tmVNjMrv9cqWavOV4uCDTr1+Apwz3xKPA5dR05AVimsVdLfV/8AKpBo4BX5GbFpE6fYOpoSacV1fGO1YoIiMT1vwGVKJA9zufYRWQFavBMeQ1QREdmRh1MpbrfSv43wTeheJzXTx2Jbzi7cUaBVo2l4J9cQEmZhguonOwdE11wUtNJp4o09FTzljarSWEuXm0YgCqlzzoPr0cc80KUg0InTnXumv7mdQsLHrMAt8KBXUTbvizXDnVoiYlpA4XWJgM2ggprA3zboxwkHAXTJE1u77OFLRusQprBIiJLy9/VzfBCnovPS2HXRzgDBuqdtIwevMv4w85GAo0R0I8PfAS1BBquS2fT3wjkyAAAoaUN84qy1ROKGmnHNeXJvQgnbIAMsHt53nJtiG+HPyc+cCNhNQZaoROZy6PXJqnRCOCRone8q84vFa40tm1w81PQza9W/aYBGII1CFXW3rcDVgCQR1YKG4fLErjsAWzSCdrx0wIRbZV3IlPDfNy/alKVw5a82+2VxeaWTmWGnM9MDD2vDCcDFjyn/ANMmFpRqSW2fX7gfqAO6ujK/XtDHtrWQawaBKw5a77fj1dgbAiIALKsdv22fsRWOzNvlIE80L4EwkCgR1YV39QcsgI9phei22/LNtWjWJG1Sjw9siuuZAAgMsfp5pAdhsLyEdTtrAOEG1L2hZOkn/QTXyggEGnbd/rrv1dj0mSznfFwB+nldqq7XrldkHSrKNM21Jw38dkMMawmENq4q7SCpIm9fWn1yMrtyAFHYk6JkITppa/oe985MY0KCu3u+7loLutqoV3vZ0mKCp62t3W9b73AqmoE8Z7NWXzcSSMghdreN79cL0VFskF0zveMBAa8Gaek3p7/pjLXBAmSuuGcXb/oCFIqsva8f3iENEgFVxkOO0LiRpc0MyoZ+V0PrgiK75HQFri96DXA3hq0nVImB8uIKwQvnTO7vs46ECqBQZaMm9ZHDpd6kd4h3CBd8vTXOEmBAAw7AWvGKBgIIXgjq4VE0iI7uSLBpaAvtlI+jcYrLHQFfbvgBhwLlH5Ih0Ynhr1zWO9c0rUa3U1vKHWSDQQTVrPKOu0kVDAlwiabPxZXKn0bUtnO/fnCQkoOoJT6YtCRKUpBAA7bsxKQwSqBCQCc3phVTI4O3Pp2OmQUkN20HDvgWIyYRQgoLqyfSpC9XWC0ZBakGb5xLqSIodJiDPA3qYrxLA6Grx084VRC6GL2djplKRejoNX5N3jSThaXGskpbf3wVwUEErRIq+sp2xczkAAHZVF2dc5PDpWoUl7o9MFqRBoqaaDY+hrhv4BNJyQJV2U5fXEB4plaBBDeicfjaGnAkV4Ku3wfrgLFWgaOzqJTneJ2wCnAcaNB4MDIJsOBUnPH+gKHTrUOYEmybt5+SgdeeoKV+uUq4VIlRdidXi++CoTAYBdyIrxJsylBcDDAkYO+ZeOMq3nNZwu8TQ9g1hauQ0ICoczn3fZhpjEFBvavoXVmUIokAPYJtmlvXGGrTIiKaReeL2w9u6QUsOhrj8fSCqHSMRwF8NxDigFnlyiCLh3olT331wMupt3l7b33uWenFKyLQprpx4xZK8nUAaDomt33qD5ixbS8wJoJrKopAuuux7a7fPGAhVBs4bLrsQxNtYQQ2Ggsrt3+PKktWnNnHPLzJcpKIByqwMR3UTlxSTnTFxQdgInKyTQ1L+eAHdFCHJI7Pls3i1u0LArJKk0WSbN4gw4xBmhUXhgTpiLELigy2Hf8ArKXHzufBBWfL65oMEjCeGg0f1MBu4XTcI67dun48wgasF5qWXnc/7n16DRNfTCQKoqtBukOIePXFoDWhQDeCEvv42ZOqVzN+29drm5IZSuBqQ3058Y4asFoHAUF/LEFnqQLR2pUh164InkSrsiiPprv0q4le0VgQgdy4nysKIbTYcXk1/oYRLnwRZY1m8pqo2QDOTkZioxyxfm/6D/w6LrjUnN3b4zUttuadt+jkFPFQIuNibi7uDYeAECnVavvfWywoNRdCprm3rrtijc0Qu7dThdPM65DIUrKOgvW+vdwSeWVuqHjfvrWCPs1AgAeKb1v6YYcBAbG5rXmYkauIKunzrr+P1NmnCB5Kk3OKm33ualgJvQ4F5Tw5LWHpOv0798RKeM2zfqmIDE3Lo0KIkJ0kypVHBfkTW7IaD5FU89MZsmy1yN+RkbliEdCBsjo7YSnEU0F2fP8AHmELRgPMWW86v/cgAAuqrA+eanX2irNKSHmcYqWgbAV7FBNZQQS0QZNEDy99DisAZYoOhIKlvETtlEZukAgN9YHj0qgky2QQ7D19uMYLHsaGtCu+6Bg5EEFNMXoBHdOPx8Vlq05t555LLLjkZCPVEZ9MivYKlSUXlwQ84qqSQDIXfZ2JfTALiTi6Vre9d5gJmuAFCAt58fXHV0NFAGXYvZsPVFhw6gC0doVOFoecaGliAKNdecGkXwGot3rxL/oiAdp1ocACutvr13ODiAoAMo6Y42Atqq+7iHV4Nohb2/0AS69YpzRt0TUnPzFDm+Zttv0yMYo4EiwtOm7c0BkAEFBFW9b1e2dSStQ8KlhenfDrnYZfg88/XE1HKCKDCJx1mUWNyEo2Dqb47uW4jMP7mHHeZyoRsXFIiHE104yAooJsKzz/AKBwL3SmuNLhglCJsHBLJ4yKg3VVdr1a32xlampF8xYvnnI+fuzTdRuiR1PQxP3bWq8rVrd55Vu4d0svnnAbNYUCDF2wl5ms0ZIKFDgr0Px4XKn0bFknOvbjCSh+ZWH1cQlgh0rEa8HUhm8b+BQFFRQf5uMxUbXeIokOI9e2sA8UG0FBdAy6dZNZZSAXZCgB1tmmayZo2UAzhV6+3nnK7FFFpR0mpa9Ic3CEQNAidbLEZHbK7chE6UM5ckP1nT8eQpFVt7zj+sKOjD1Rp+WRg5r1NWN08UOfbAJrJqhEvLo4e7gXxJwLFdW9d5gaisgAyBbb4k84gSUsuAEFiU2F1MFo0MNMLwKlToPpig7tKFI0W2+2H6eEQgFLAp0X0x9Ih4dx0vfXD4/0Dhikol98mETdI0va5sk64C675FQNtyroSQ65vhsFonDOSm5hdgKu0dvXLM6Nl3peO064gESdIYvr+P7HQEnVo3khqBOvVwIIvZ40X2mMCMBhzt63O1840tC9wCdOS3ib+RiwDQOhiPcLr1cK7DSA6fTXjEYXV9D0HPHbx4y6S9I0Tp3hXr33i4Oqq22I4prdYS5x1gBjNJvY9G9P9B5Tvqh7OjElGuqvycZLSnNXydvbBIiVZVL1Z+uaMkh1rYPBNjm94nlDy1tVdv8AESi7gB2hz74qGwiVI8kvGuPx8Fp3k6DTxDfTt7XjSGyFUn1cjmQheiO2jeeemWscaRQq1vDyk04cOiSltKrxvgLzswH8pIhSl9d5q6wbEByliAaOXn09jo44oBCQXvHfTNnMMi1rd6d3m9MbzfNyBb6u+eGPHT8eDZBtU27zj3zTMGxdjr6mMx2LWqphFeqs6YtsZ1IgJiihxYecE2UgnZb219c9RsKUmk3632xi66koAWAUlk/KPP6pyuBByJWE6cYrwkEEgCiNkupmzaWYYGst8Wd7/oPJO9he6RwGC+LnzyYeTIqJO9DxznQbf3q7Qjv3vE20dVqh90VKN986idL1HfPZywb1bjsg9d61igAsoTs2c+MWJhX9hzZvjLdQ9TeXiXjORTr2045426wZlw8xSoSxeOuIvKU7Bgx2OuvH41WwEkdW28kNQ1OvJkMJay6bX2uOZGhqDJLsO043hsghQokNg3xee+FXBcCt6HOu+EuRwQHN6N4OfRWogWun6YYItAqiMqygdXp3xvATIsUadqh1L2eaLY5KDx3qG16k3rLneiotbRNlOPDhzB3QWs3uOOuvGbhGdQzVa8HyxmHU53La6v1fOfzHf+OVQFocFysl0PF18T0TVibGiInHPa5NqRCCb1VV6vX7FkTU4TAAII3dEePXFWVsNV6f/gmSdKAWXQQ2rPBB3wP9h/fP7D++f2H98/sP75/Yf3z+w/vn9h/fP7D++f2H98/sP75/Yf3z+w/vn9h/fP7D++f2H98/sP75/Yf3z+w/vjOlAJZpI7Evkib5D8UrHxANLxER47Z52bzs3nZvOzedm87N52bzs3nZvOzedm87N52bzs3nZvOzedm87NWPiQIXiABz2/2P/9oADAMBAAIAAwAAABAAAAAAAAAAAAAAAAAAAAAAAAAAAAAAAAAAAAAAQQgAAAAAAAAAAAAAAAAAAAAAAAQgwgwggAAACAQAAAAAAAAAAAAAAAAAAAAAABTgBBRCgAAAAAAAAAAAAAAAAAAAAAAAAAAAAAAAAAAAAAAAAAAAAAAAAAAAAAAAAAAAAAAAAAAAAAAAAAAAAAAAAQgAAAAQQAAAAAAAAAAAAAAAQgAAAAABTAgADiCyTzRDjiAAAAAAAAAAAAABCAABQAAAAAAABDCCBSABASAAAAAAAAAAAAAAACABAAAAAAAAAAAAAAAAAAAAAAAAAAAAAAAAAAAAAAAAAAAAAAAAAAAAAAAAAAAAAAAAAAAAAAAAAAAAAAwwwwAAAAAAAAAAAAAAAAAAAAAAAAAAAAAAAADBUVAgAARRQAggQwRzQxgQAAAAwQwAAAAACl+cLgigAADgABBBBAjBAgCBDDCAjwgAAAAADyb1X/ygAQMs8AAAAAAAAAAAAAAAAAAAAAAAC/CwaEGgAPOHIAAAAAAAAAAAAAAAAAAAAAAACtvvayGAAAAAAAAAAAAAAAAAAAAAAAAAAAAAABwwx4gAAAAAAAAAAAAAAAAAAAAAAAAAAAAAAAAAAAAAAAAAAAAAAAAAAAAAAAAAAAAAAAAAAQAAAAAAAAAAAAQAAA8oIIIIIIIIIII4gAAACgAAAAAAgAQAAAACBEAAAAAAAAAAAAADMAAACgAAABOVkEEAAAAChQAAAAAQqbQAAAABIAAADAAAAAAAAAAAAAAgBIIAAAAAAAAAAAABIAAAADAAAAAAAAAAAAAAABBHHHHHHHHHHHFIAAAAAAAAAAAAAAAAAAAAAAAAAAAAAAAAAAAAAAAAAAAAAAAAAAAAAAAAAAAAAAAAAAAAAAAAAAAAAAgQAwAAggQAwggQgAwwwQQAAgwwwQAAAAAAAADADBABABAxABAARACADBCCBABBhCAAAAAABDQSyxiAiQRxxRywRxAiCQgAAAAAAAAAAAAAAAAAAAAAAAAAABCAAAAAAAAAAAAAAAAAAAAAABCwgBAAgAAAAAAAAAAAAAAAAAAAAAAAAAAABAATADjBDRCAAAAAAAAAAAAAAAAAAAAAAAAAAAAAAAAAAAAAAAAAAAAAAAAAAAAAAAAAAAAAAAAAAAAAAAAAAAAAAAAAAAAAAAAAAAAAAAAAAQggQAwjgQAAAAAAAAAAAAAAAAAAAAAAAAAABBCBCDCCDAAAAAAAAAAAAAAAAAAAAAAAAAAAAAAQAAAQAAAAAAAAAAAAAAAAAAAAAAAAAAAAAAAQiBiwwgAAAAAAAAAAAAAAAAAAAAAAAAAAAAAAAygAwzARRyAAAAAAAAAAAAAAAAAAAAAAAAAAAAgDwwAAAAAAAAAAAAAAAAAAAAAAAAAAAAAAASiyhigAAAAAAAAAAAAAAAAAAAAAAAAAAAAACCCCjCAAAAAAAAAAAAAAAAAAAAAAAAAAAAAADDAhCQgAAAAAAAAAAAAAAAAAAAAAAAAAAAAADRSiiQAAAAAAAAAAAAAAAAAAAAAAAAAAAAAAAQBjCgAAAAAAAAAAAAAAAAAAAAAAAAAAAAAAAhzxjiAAAAAAAAAAAAAAAAAAAAAAAAAAAAAAABxATCAAAAAAAAAAAAAAAAAAAAAAAAAAAAAADDwzRQAAAAAAAAAAAAAAAAAAAAAAAAAAAAAACyBgAQAAAAAAAAAAAAAAAAAAAAAAAAAAAAAAAzyxhxRgAAAAAAAAAAAAAAAAAAAAAAAAAAAAAAACAACAAAAAAAAAAAAAAAAAAAAAAAAAAAAAAAAAAAAAAAAAAAAAAAAAAAAAAAAAAAAAAAAAAAAAAAAAAAAAAAAAAAAAAAAAAAAAAAAAAAAAAAAAAAAAAAAAAAAAAAAAAAAAAAAAAAAAAAAAAAAAAAAAAAAAAAAAAAAAAAAAAAAAAAAAAAAAAAAAAAAAAAAAAAAAAAAAAAAAAAAAAAAAAAAAAAAAAAAAAAAAAAAAAAAAAAAAAAAAAAAAAAAAAAAAAAAAAAAAAAAAAAAAAAAAAAAAAAAAAAAAAAAAAAAAAAAAAAAAAAAAAAAAAAAAAAAAAAAAAAAAAAAAAAAAAAAAAAAAAAAAAAAAAAAAAAAAAAAAAAAAAAAAAAAAAAAAAAAAAAAAAAAAAAAAAAAAAAAAAAAAAAAAAAAAAAAAAAAAAAAAAAAAAAAAAAAAAAAAAAAAAAAAAAAAAAAAAAAAAAAAAAAAAAAAAAAAAAAAAAAAAAAAAAAAAAAAAAAAAAAAAAAAAAAAAAAAAAAAAAAAAAAAAAAAAAAAAAAAAAAAAAAAAAAAAAAAAAAAAAAAAAAAAAAAAAAAAAAAAAAAAAAAAAAAAAAAAAAAAAAAAAAAAAAAAAAAAAAAAAAAAAAAAAAAAAAAAAAAAAAAAAAAAAAAAAAAAAAAAAAAAAAAAAAAAAAAAAAAAAAAAAAAAAAAAAAAAAAAAAAAAAAAAAAAAAAAAAAAAAAAAAAAAAAAAAAAAAAAAAAAAAAAAAAAAAAAAAAAAAAAAAAAAAAAAAAAAAAAAAAAAAAAAAAAAAAAAAAAAAAAAAAAAAAAAAAAAAAAAAAAAAAAAAAAAAAAAAAAAAAAAAAAAAAAAAAAAAAAAAAAAAAAAAAAAAAAAAAAAAAAAAAAAAAAAAAAAAAAAAAAAAAAAAAAAAAAAAAAAAAAAAAAAAAAAAAAAAAAAAAAAAAAAAAAAAAAAAAAAAAAAAAAAAAAAAAAAAAAAAAAAAAAAAAAAAAAAAAAAAAAAAAAAAAAAAAAAAAAAAAAAAAAAAAAAAAAAAAAAAAAAAAAwwwwwwwwwwAAAAAAAAAAAAAAAAAAAAAAAAAAAAAAAAAAAAAAAAAAAAAAAAD/xAAkEQABAwQBAwUAAAAAAAAAAAABABEhEDFAQTAgUGFgcYCw0f/aAAgBAwEBPxD5IBLI0AyYcdOwBInQCCbx4IFQ2iq22zzWEXj7gXUxFCabIxFgHKKsJqBaZOoxRo2lCkgWfvH6dLOA40UCZklAo99AkIQLcnQIWr9gGgIVhG8glwfSl75f/wD/APGMknkg7gmUytet7taKGKbR5pTjEbcqSSSSSQtPoCH/xAAlEQACAQIGAgIDAAAAAAAAAAAAARFhkRAgITAxUEBBUWCAsOH/2gAIAQIBAT8Q/GyCCOgWD8TgBK1AAuG9EBxksB6wgRRBnQT2FdDAHtjkAEqqDkbwGAEJmxgnBD58Nynkoh5kA7kBIqH98wnOa8gHxEPJW2AGoBIUYMwgKHb46AavbEhCVEJQlx9iqRERERERE81we9GfTXwJQFvRNztG0GGYMwemHCZxtLZPMeJ/jxVlJJ0lSnqIqblTcqblTcqblTcqblTcqblTcqblTc5v9AQ//8QALhAAAgECBAQGAgMBAQEAAAAAAAERITEQQVFhIHHB8DBQgZGhsUBg0eHxgHDA/9oACAEBAAE/EP8A1uG/KCs2mQ4YAjqLFrHpoTVAAl5dzqsUQlrn6WSIpgCwSy+qx5fw5KBqwPUgAGWr5OhhTP6XnTUm/K6howEiSAAAtKSk6QLuwEvzope1Axc7tGjoFdcIuru4ymZPSJm8IaMlU0Ft4B4NwN2evMRIc/D9O0Xnz1C0e4ZZqVbatkAHKBBtUU3goQ+7Nf2ggG1WCy+gAT5gJ64TPCNlAFH6b97CTVUR1EOAfQTxl6FnIvLvXM7eIASkkVuIqRa2S6wwI37LXj+RJkvp/TkvAECS7fPRm/8AWSNWQ7Ym2Zh1b6jP67CjNCNt2sTHo9B4iySzo9DBAScbH5o2UhlGbM1t5hQwbgAOzStkhg865LTxD20oysFez8t5gNIQUwAAEigYgRJEO65QncXjAB+Su+uv22nH1qH4J2AXU/69UdFgImXC5ygSEixgEY3H/PfkC65VJAZXW9hOMN44MDx0Q+dkT36JAD1Z8iPIIQMtpcCGlS9NyHxyZmDWEIWjTzYQEggYpATyhYcZnY/BDzABlbdW5mgEIAzmjuPCRADqYBLEZwWkcjfSKOOafYSoUELIm7EDYTwOYJQHdRrnlDAtgo4gmAQ4Wt7kCzBQHASZyfxKgJsCL66v5olABrulTYAIla9us9/BC1NBJRw8YMDskGAEDvcsWfToU41sSDWKSFZwHSVCAAEtbRvigqY7I6ohZsA9zrzkgD2JPbJAX2XXruwsQhlIs0Q0AtB09X2UkBAhkgvdobqAFHE1FN5mCGXZV58VrcB3zQRZJ+57AQBf0fH6FBfAADrhvgdgCwffQDFQosACZAlFJVhVCyEWUcYwbttQSClziFTBV17yyP8ANBatJdXPlQCA1zggEonrjuIax3xAEc2XeCAXuLVGPAgECd7LMLkABFvvpvfFQ4wV7XSjAa9hLFVgFATSmGEACXu3TpRyFmAlN2gCAGiV2lDsAA1Kp/h1EAyOzyNNgAArNfFSt4AAOyQV1FXshN3L7hQEhzLPvpbWhAAFt3n4mACEKBSIuAb1BwchgFkbh1IQKKVoHDfhAFgHhyqRpZVueZUfnDFt3O/ID0zEcgEASdFr+HAGepDUAGXVju/HYhSHRDkcwDLTaEFI6H4HkAsJhpER/wBMxgFc+BLGMYxjE2p/oVlgTKOoAOSjsRfkV1P63Ss9BaqkrbQbuSVCJc6YbmBZf2OLc06kbxwB9FNa4LNvH0tjMYIFQue1TLVATO5p1I3jEWK3xYKtHwRp+6pSFgbd5TGAVzsfijkA4T9+wsxHJqx+rMo4BNwlQiJSAAF5Wko6WgH8IaLtyPQBHbQCCPxUBgJbUcBeOjcHx7YBCAvyGR9fAJFmovIImlnPC75kMQnWBxO44kXe6aIAg9lpxTc8QB7KZxKQ1gNcrsceJYYuWfdhmMHO44kXe6aIAg9lpxTc8QDWZcdVNQAX4KWXPAQAMjBvPhwBCnCpVS4cc7tRmeoCBre4SDSIMAkLS6RyJg2yFCrEoxAToE1SiAAl2jRjol95ppABL+Ch2NAAAuZZ4XhOwACEXZA3G4YABSMUMjANQhT+ACrFQ+zUGIk8H3EoU670NtxBxntXU2uAHux83gOszQASOU0bY4UCAgJwUQgAkcpo2xKBHzAc1ZnAKhlYQ0ULTYAhu1dSeAQAQMRbIwNAEKuKeuigOGLREXWQYEPRmVC8Uh9wG668QC25MJQaxRP+ztnqdo9ceFhMimNmvHOfQZrVHKo8Ug7dgyPrZiijiloq7gzt2COmxUpAEAZS414qyQAibIwaQIM2dINWIOEDY7AQndqCQGgEY88NLVakwlLtGjK6PvxOuQDxttRc6SIHrqBAZlRwQA33xzQiTxDW30GMTMJJd9zOPMYFxQXLRXPCIVQbCl9M4ln6gED+VtS5KAAJP82KOeIBCD+VtS5KAAKmrBwawME95pdDykAAmdAUELgpAAugRlIaYFJIEheup+EgF6uuOZAUgR4tIgEH3AVUjVF70QHmBAGTaJbUbsCQwYUlYxXhJLgOG6vAYBB6RW1yEwao1bjBAIXtaY4eAIgXq/JYG5+cZyC2p0zwj5sie/ELXJbeXgHz+U9xgcMNSSFse9KgUkhbHvSoHrelIADqkj7VCfX6WIRHDIUISUJrgI97UBBkb8jMdwzDxR9wK/BPYiYHVWvb4IwyP7JnVEKtd3PUEwri9vbAx1Y5f9FvPZD7n2HAaZ1gjzxVt/gzSXrwUqHXMtg8JXxe395aVAJRxj6FJBC5yxBTiBC8aZ7zODGYi2ZUZhEhTnM3kAAFA4j6lCAF/pFtkCaFk5jT/B5iH3PsJCrBSyhZ/slGnln9Won+9f0pxIzyG/4gCis0XRMm3+j0Bt1aW0l3HMCGeB23WAkquFsqvICGuPApbSkAL2pxNkaAArZH3Gj6gG37XqkgIWsU8DNnmIPuApDBKqqHolEl9GOAQxokvHjBu3OuQqGCjX58shYG3AIfc+wpskOn8EHIrstzGVFjqch/1YYBmVl9hjabpYaYxisGOll/npIW2gI7acIGbgm5dwEIUuY/3BCK86oIalyEKdWPCxRq74jAckgvz3QsEE3MpExNZhLshngYnYDsjsjwLk7t+tRK5c+2gPLP0AIKhvjfG+N8b43xvv8AhgeFZ0nugANh8/gTMEDnUidgdDsDodgdDsDodgdDsDodgdDsDodgdDsDodgdDsDodgdDsDodgdDsDodgdDsDodgdDsDodgdDsDodgdBjDawCre4hBgUCK7hqGO2WkhtACs6RoQjHcU7Xp7/KTffffffffffffffffffffffeL0QxcAxMKsRP2wsPCFurMZxN3ARLfJ/MNqX/AHAFMHrSsr8QAHWu2MAAAt96o2eeavzIosJcAV/ly3SeQ8E92TNRUHhhjdCMwDUTHuApIDOfCtyWgOEivgx1WJ4Yu5E1MUoZXfJeekd/F2hkwun4JFWXLjl4IH7qFl+viJ8oHFREAzN5hr1StAC++dM+XAgKsMF9ylocgG9Ancg0hAWSxM39Oe6AqsvNnW/KAHetPDd5rn6PjlJkSr93ZQfIJWXaQAotbEuCIgUZR5fypYagDmYX0CswAa5pWe6RgAApJeIF205mHwVTu8NUJoAYFrsRy0A9Yvv5JgQD/XFVgQgU7ZKWoBSlbfxaRALYW122gMgHYHgmQXDQFXem+qdkAGRCx54ZWiT/AEN4hJ2fbd6viKCW0wA9ihAaYAenka/lDwAJh9rSQgD0ZRnyIYARMEJtQRLxHdTmm74KSWH90cAOWfmS4bvjlyATvW175pMQgRP3/DD84AS2ixsHsHhAUtNVXIyAzMF+VRIZ0Q36jhKEj/WRkN1yzZMRPZ08tDBX5NLCQzqeND8pMglzlvFPyIkIIZ1x9SgO51W//IMePHjx48ePHjx48ePHjx48ePHjx06KKL/0z3lxx9cd79EEcM/JbHHHHHHHHHHHHHHHHHHHHHHH9zmq0yG8v/XgFnWrHmKAG9dK/h9BDIyFa59LOUGFx+5S96AZTPHR7KgBAX1NLcPNAJi0EPiVWCf5w66fQABXwOGsSoyBRLTS1HapshYUD1hU2HuEAgSBE+6nD0AONH63jU+BATT+o4+qeYGKJaarlCwIWDMhy4CvSAea7l5rhAKWk8talZFxzGZlYIGtNddK3YFCZgcvqrsKkWMeRxoAwf76mX3cxTMYUl7MhAJMxeTVlbmAz7xIahWUU3e1P8ZHISdsqbO5yEADZ93NwFVx1RHdwaNBgqsGi13zG8CaL0ahk1CkvhBwV/4ABSp7p00KjlC/LujJgAAEhEbC5eJMBJt8LkuIwLpR1LqG4C2G+URxlgDnPW77YqACapKZI6KkAz7Qi8NQABLTr36p+EDYaFF8N+AEMmy8TOUIAit0bDqUAlQK7UoLiBcBPll0uNCkgJ9l5z/KoSAYamg+0gwFSuslJACABul3iCCQAmqSmSOipAGXHsb4+FqHEaMS3Ma7AwKOJN5y8AFy+iklo3BhczOqYbTwKHzL3+eHjjdVeexgEDMXrHtAAB49o4G2wAJBfoR4oKEBlOP6zEkE+z1qMKIMGgqMWSugFIBAbC07UsIuBxVBoejGAIL3EwZfgHAQB7MRYGCdQ/ESPTQAJehmIxB4CnMhizlJEG3A6WDkfFrj8uA5BPbnSjo0jQGD/RdWdCAVvi8gxSZAAJTZhtI5CaAPAAMYiIsIX6W+V7UQHZvad57mbAzl1UJ24iggrNSqauiA4Cao61hVPLr1Eu2MJ9qWLYeTWF/r+MCcCm9cObYwCIQlJVI5gBs4HEY9ZYBhd+gtg2RQMgjOzOoioAADevX8IZZhAs9o0Qi+JYAfhXdyfuZoAD79m5AOWLqugsqAGeeimCsjgAGaw8iAA/ndgeahAUpCu9r/AMgACYYySNEhoAfP/F8lCArzOoJlt2GBvw23qC1IQCBulypR6QATzvjhM+mDCFMEPPvSbAEZx4OQMigoiqRKt6QAve5PN9FCwQnoqy8XbUCFcSIA9WPAsJWLFNXDSDAFMsx1bkm8i2ArswrFAMAq33AZ+jeXDmMaXiPxjeCwWX9AxN7ShwAaV1ZrGir8Yz52+uQBxW8mNL8MVCvwRIqGACUhT4udIhl5/YBdYAgD2OP6AoBVPqPwjfqwAeASYN5oBbBfTnfzCAW5UJeUIH3TL+WhZAoM8md124SgGeG2HVfhEF/8ttRqAy3ZguGjcUAIhdsndGM8Tk0AB5qORdd8gUA+cprgbxAAN4jKXutghVGG4YUEklA2au5jMIy5Nt1dlW0Qa0fF0KzSGQ4yM+0aAAE5YVQysM0FAszUsthLIEJgfb88N4AOu+bkKJgXZoRrQ17Az3H+pGW98UITR+W7pQJAAn8QFRKogQfNmpaCEAF2bOjOwcIAYDgACdFhhdLQAAe2JgXz2oAClK36TcMLABF+P+NS7Gdbk5AQgIqmHTNEoOVUfYV7Z0Fr6WUQKTyDlwlwAIsaSZdJiCDYDCzA4DAQCLadTEnkCwQvg/faDgYDLXT2Pd6iGcRBGZFApQIajbxRgIAEncTLZ4kngNkXT8ZjUoAlrFTRzFMA96QDaGshgbBRFCIaBg5lJZBSCAp25CoeHAfAyxycU60gJEW2kkDvBwADKJdZ/SkoEOrkQ4cEz0P3SVGgB8/8XyUIBxx5VFRBDAFOFBtJ6aBQH8wQURIYGWWm6AwAGaBitgoGEArNbWBybYUxF87gNjRkHSAnQmghAdpx+nAYEXXcrtF5zCAFAJTCMJRAyrzZFj5ACPmcW01hKGIA0hQ/wVuAgzcPfScACv8Axzx3kigALXTL1kErrAnbZ3SaYUApDt67wKGE7L5RlQAEPt7mPt2WDldesurjN7esPp4QVGHmGFwIkxg4A7FnNvQG69hRBw5AYRG+Df8A/cDExUB1cZHYfn68YhE7gocmIHrsAKD9vBtTDrulHXRg9C2FCdRbAC5FyIAcsCgcUSyXj2ViFQCrF081EeKrkNLDyirJ5yiQLV8jssiROlsEQgdOTARzwbDDGbTJKJQC6T8ZmAniOok5fA15WkFfNUzyNtsLNYFOJwExUC/wLoamwcSQGsmECYqBXmchVAwUKkaEMbgL6/IJQsD5OSSAC+X/AMqi8vWXyBpBwAL+sbLBCrNunGDAy+2QR4AnlJKWwKTTJRjCCKuzqn54FFMaBNABZS5FHy0oD3W98JQAQGoxamjZEAOV6BAC1DPlx1qEAzOVJT2RAH/7/mfIAp5qOupIAUGs1zDkSRt3FrmMAtRBKdmEkPgjxQ1nHRleoJhW5IhZKTIAXr+kcHziID3iteJVwAz5Q/VlgFNtn/OiwuGkdHeiIAq5zPtiQAHzR72cIX8ntAiQFEf9DJQACUN09VgKhlaZkhHqmj9AFAIitW40MAO8PEoAn7zuKUgdOExsSgtruYkLUgsVV8b/AOmWkc4N0jweA5DmTAGmZlAg0kv7mCA8+LSJ2zlKIIhMG+YPWPwAI5YkNmCCYZPAJJzgAEWB6McyEGWMIuigABKiLaMSgL/7Egdg3hbtXWAAU96vsFgMqJTgE2lHLpYB56BbXhgmMMXxwgBQQcK6WjcACqMFiYf1broAA+mcfDEApqcMoJngtpZICT/l84AB5+3xIEAC/bAGAoMr3L+jrCr9ACF9NbxekH70zbAWGjHGaDM/sawwEkfnd9gIzw/rZngBBRLNaZpqADlbSyTBAUli5vUgRUaMpl9wFKbWnSWAR8ygdEErG+7sRiQAMu5KHXcEBaUAU2TPjVd2AQFGKuZTlACVBpxEAggLmk2+0482G1baXSaNsNiQvR0mdgJlJhGj8DAXkxjYINOpaRHIBfF7SbSLBtSV50EANFcamCRIAFJ6A/GEQALtxRkOflnFqBYbMovPQCmrSrGbOwSSd+y+9yIA3kvCKLmAICxZ20AP2+ThIKBCZurfPOAACINmTkxieeBSXMRKA/ui1yQGDl+wIBACs7o0/wBAgEOCu0IAgMOqXsNgPLbdVzgZoK0lyRABDz4jyRCAOMKNUIAAKFC89ZvACpNxDrIFwC48kdSBATRa/enAKgfGTx48h5+bvlsAAYVL9CEoQGWxBa4zAwCLdeggC2ytwiADAn/E5zTyKAfNF9U3UAmtc/bOHn4OPmesAMvPNF7AoAOCZSZAwiZw1AFyA6ADMoAGg9sSDogCgxV3sDAACw+LNi5FAnNeI9uAJyRc4QwBx6dnToAD0Laq5sq8+NoGeQlAgPufTwc9F616zBPQPtpproBTY0GAL1/y0hAG3ip2bpGRMNA/63QiBIrsdqzNgF0u0FwosA9WPue8UP0MTIZvD0IA0uO4MAy/eEX+gn+EW0DgNnm3YXQFPLGBWNQDzNZhSgAIqHwfXcAAVfB1hAEI4+mY3AUxlwygBzYzmGkEBNF0lKHPAkzAXt6efhMYB7oMkSkB4EvrKCBIuhm3KgG7WtBEWQyYXiIqHZAU35po8uYAAdGMkLQQnxSYrmQIveqOI8+G0DPISoQDla0xgP8AiwGhCCgKw/yCJQuqApW46AAJrqq/2GEIC5W6DpA3bMYrHIMADOMZ4AybPncxAPPwy880fsAAKj2CwYM11EOt2oAhBe6HzqgI1us8OB+0JMsBJ5HFDguBABZFSqlIhAFBsvxKQBNW5+fogwXmSFYHgAquFpwEE253OWD4KA8Ij9AlwV2hAEBDRqHYq+YctkFIDRgLGvmuIWIA9r0FuNncAEG7ts6/magugARuOB6h424jACzQT9QSAPLQeHIAAUDjvP0DgtcazgFSHAoAECpJQlIBh6xuAROKQxFAS8cJsnGdIZ99ABX2b3OWwDz8EoL2AJq00OskbYbkhGXfjBm1mwGZJBFkjfTA8ICP4h1D1JAMKQOXs45EFqYZbs/RAKUQ9heYAEUpnpMBABM7Db6A0ACp+tizUhXz4QvpreL0ggJYOIwfItIfepghfRozygI/rjrQk+RPpgEK6QjzOdUAPaPOcS1UAC2cGxRACZ9C570oQK7VXieCw/QAWPQ6cocIhGJBLDb39IDcChtPRADcmpz6SA9KIgQInOESsXIU8/bLotnc4MCh3L1W+oKTS/AwBgdOlKZgwdTRFYkATHv/AIvqIGc+jsiAB8aufJVCBT56EJQAgql/9f0HsAAfHRSTAn9maoJMOALHa3sLO6h3DYg44EDmVy546swCIojXxAHeRnCtOweflmYpTAwAidrvQYBKK1iP0AiW1cBvBAC0WUbrQiAE/wAHhXyYACj24faSa4GxpLPdgACzcl7kcoP0AE56ZAgQCN8czdbODsU38CMwOB4K0P8AiA6S3WW5AJUwgvLnJedAv2t1U5iCCKufProoAWSHOIVIApTFbpY/QQQ+DmmeAuu1WhPqbtNsVDW9ByDoAAz4g19T0gA9gpdkAL7ETMBARRM07v8AssMXJggKE2YIRXXfw0BBgzTI5OQHyuVjhjlJ50faTPMuCAyX7UikPrk1qjICgUkyYGDRhQz5W4hA0g2cDvo1igbV9n2AJhJ/qQIIF53UxzoJgXQ3toiCA4UHyrdiEAHpmRV5ofQARIW/F5wCtawIyj89ELreryAKeesxFfHFK8OIDx4NBAQACZ2G1QKGRfA0V9UGQ/8AgmV+0kB0rwPwwAzZs2bNmzZs2bNmzZs2bNnbtJAdq0DzUAQz1v66X4eAePHjx48ePHjx48ePHjx49DPW/rofseB//9k=;" vertex="1" parent="1">
          <mxGeometry x="530" y="52.5" width="187.88" height="417.5" as="geometry" />
        </mxCell>
      </root>
    </mxGraphModel>
  </diagram>
</mxfile>
